<?xml version="1.0" encoding="utf-8"?>
<!-- Generator: Adobe Illustrator 27.6.1, SVG Export Plug-In . SVG Version: 6.00 Build 0)  -->
<svg version="1.1" id="Layer_1" xmlns="http://www.w3.org/2000/svg" xmlns:xlink="http://www.w3.org/1999/xlink" x="0px" y="0px"
	 viewBox="0 0 10 9" style="enable-background:new 0 0 10 9;" xml:space="preserve">
<style type="text/css">
	.st0{fill:#CAAC6F;}
</style>
<path class="st0" d="M7.9,5.7c1.2-0.3,2-1,2-1.8V2.2c0-1.1-1.8-2.1-3.9-2.1C3.8,0.1,2.1,1,2.1,2.2v1.1c-1.2,0.4-2,1.1-2,1.8v1.7
	C0.1,8,1.9,8.9,4,8.9s3.9-1,3.9-2.1V5.7z M2.5,4.9C3.2,5.5,4.5,6,5.9,6C6,6,6.2,6,6.3,6v0.6C6,6.8,5.2,7.2,3.9,7.2S1.8,6.8,1.5,6.6
	V5.3c0.1-0.1,0.2-0.1,0.4-0.2C2.1,5,2.3,5,2.5,4.9z"/>
</svg>
