<svg width="360" height="219" viewBox="0 0 360 219" fill="none" xmlns="http://www.w3.org/2000/svg">
<path d="M205.159 123.181C216.647 115.025 223.661 101.655 223.661 87.5599C223.661 63.463 204.058 43.8598 179.965 43.8598C155.872 43.8598 136.269 63.463 136.269 87.5599C136.269 101.651 143.284 115.017 154.767 123.177C133.077 137.702 119.224 170.201 119.224 207.218C119.224 213.692 124.495 218.959 130.973 218.959L229.018 218.963L229.53 218.951C235.836 218.681 240.776 213.528 240.776 207.218C240.776 206.96 240.768 206.383 240.694 205.9C240.375 169.488 226.534 137.518 205.159 123.181ZM228.634 210.774H130.977C129.013 210.774 127.413 209.178 127.413 207.218C127.413 169.759 142.379 137.497 164.655 126.942L172.41 123.267L164.679 119.559C152.398 113.654 144.462 101.094 144.462 87.564C144.462 67.9812 160.395 52.0489 179.973 52.0489C199.552 52.0489 215.484 67.9812 215.484 87.564C215.484 101.106 207.549 113.662 195.259 119.551L187.524 123.267L195.283 126.942C217.265 137.354 232.239 169.292 232.562 206.681C232.591 206.857 232.603 207.033 232.603 207.218C232.595 209.178 230.995 210.774 228.634 210.774Z" fill="#CAAC6F" fill-opacity="0.25"/>
<path d="M121.467 162.04C121.143 125.641 107.302 93.666 85.9228 79.3216C97.4147 71.1652 104.425 57.7948 104.425 43.7001C104.425 19.6033 84.822 0 60.7292 0C36.6364 0 17.0413 19.6033 17.0413 43.7001C17.0413 57.7908 24.0559 71.157 35.5396 79.3175C13.8532 93.8378 0 126.341 0 163.358C0 169.836 5.27119 175.107 11.7497 175.107H109.799C116.277 175.107 121.548 169.836 121.548 163.358C121.548 163.157 121.54 162.547 121.467 162.04ZM109.799 166.922H11.7497C9.78526 166.922 8.18508 165.322 8.18508 163.358C8.18508 125.899 23.1474 93.6373 45.4231 83.0826L53.1784 79.4075L45.4476 75.6997C33.1659 69.7942 25.2305 57.2342 25.2305 43.7042C25.2305 24.1214 41.1628 8.18918 60.7415 8.18918C80.3202 8.18918 96.2524 24.1214 96.2524 43.7042C96.2524 57.2464 88.317 69.8024 76.0312 75.6956L68.3045 79.4075L76.0557 83.0826C98.0368 93.5063 113.011 125.44 113.331 162.826C113.359 162.998 113.372 163.178 113.372 163.358C113.363 165.326 111.763 166.922 109.799 166.922Z" fill="#CAAC6F" fill-opacity="0.25"/>
<path d="M324.383 79.3216C335.874 71.1652 342.889 57.7948 342.889 43.7001C342.889 19.6033 323.286 0 299.189 0C275.096 0 255.493 19.6033 255.493 43.7001C255.493 57.7867 262.508 71.1529 273.995 79.3175C252.305 93.8378 238.452 126.341 238.452 163.358C238.452 169.836 243.723 175.107 250.201 175.107H348.25C354.729 175.107 360 169.836 360 163.358C360 163.157 359.992 162.547 359.918 162.04C359.607 125.637 345.766 93.666 324.383 79.3216ZM348.254 166.922H250.205C248.241 166.922 246.641 165.322 246.641 163.358C246.641 125.899 261.607 93.6373 283.883 83.0826L291.638 79.4075L283.907 75.6997C271.622 69.7942 263.686 57.2342 263.686 43.7042C263.686 24.1214 279.618 8.18918 299.197 8.18918C318.78 8.18918 334.712 24.1214 334.712 43.7042C334.712 57.2464 326.777 69.8024 314.487 75.6915L306.752 79.4075L314.507 83.0826C336.492 93.5022 351.467 125.44 351.786 162.822C351.815 162.998 351.827 163.178 351.827 163.358C351.819 165.326 350.223 166.922 348.254 166.922Z" fill="#CAAC6F" fill-opacity="0.25"/>
</svg>
