<svg width="208" height="142" viewBox="0 0 208 142" fill="none" xmlns="http://www.w3.org/2000/svg">
<path fill-rule="evenodd" clip-rule="evenodd" d="M104 64.8739C122.234 64.8739 137.016 50.3513 137.016 32.4368C137.016 14.5224 122.234 0 104 0C85.7663 0 70.9841 14.5224 70.9841 32.4368C70.9841 50.3513 85.7663 64.8739 104 64.8739ZM104 55.1429C116.764 55.1429 127.111 44.9768 127.111 32.4368C127.111 19.8968 116.764 9.73104 104 9.73104C91.2357 9.73104 80.8889 19.8968 80.8889 32.4368C80.8889 44.9768 91.2357 55.1429 104 55.1429Z" fill="#5C5C5C" fill-opacity="0.15"/>
<path fill-rule="evenodd" clip-rule="evenodd" d="M59.4288 53.5206C59.4288 66.9563 48.3425 77.8482 34.6669 77.8482C20.9913 77.8482 9.90497 66.9563 9.90497 53.5206C9.90497 40.0849 20.9913 29.193 34.6669 29.193C48.3425 29.193 59.4288 40.0849 59.4288 53.5206ZM49.524 53.5206C49.524 61.5818 42.8723 68.1172 34.6669 68.1172C26.4615 68.1172 19.8097 61.5818 19.8097 53.5206C19.8097 45.4591 26.4615 38.9241 34.6669 38.9241C42.8723 38.9241 49.524 45.4591 49.524 53.5206Z" fill="#5C5C5C" fill-opacity="0.15"/>
<path fill-rule="evenodd" clip-rule="evenodd" d="M0 136.235V116.772C0 97.9623 15.5208 82.7138 34.6667 82.7138C46.7983 82.7138 57.4744 88.8366 63.6687 98.1073C70.8008 83.2578 86.1794 72.9828 104 72.9828C121.821 72.9828 137.199 83.2578 144.331 98.1073C150.526 88.8366 161.202 82.7138 173.333 82.7138C192.479 82.7138 208 97.9623 208 116.772V136.235C208 138.921 205.782 141.1 203.048 141.1H4.95238C2.21728 141.1 0 138.921 0 136.235ZM9.90476 116.772C9.90476 103.337 20.9911 92.4448 34.6667 92.4448C48.3423 92.4448 59.4286 103.337 59.4286 116.772V131.369H9.90476V116.772ZM198.095 131.369V116.772C198.095 103.337 187.009 92.4448 173.333 92.4448C159.658 92.4448 148.571 103.337 148.571 116.772V131.369H198.095ZM138.667 131.369V116.772C138.667 97.9623 123.146 82.7138 104 82.7138C84.8541 82.7138 69.3333 97.9623 69.3333 116.772V131.369H138.667Z" fill="#5C5C5C" fill-opacity="0.15"/>
<path fill-rule="evenodd" clip-rule="evenodd" d="M198.095 53.5206C198.095 66.9563 187.009 77.8482 173.333 77.8482C159.658 77.8482 148.571 66.9563 148.571 53.5206C148.571 40.0849 159.658 29.193 173.333 29.193C187.009 29.193 198.095 40.0849 198.095 53.5206ZM188.19 53.5206C188.19 61.5818 181.538 68.1172 173.333 68.1172C165.128 68.1172 158.476 61.5818 158.476 53.5206C158.476 45.4591 165.128 38.9241 173.333 38.9241C181.538 38.9241 188.19 45.4591 188.19 53.5206Z" fill="#5C5C5C" fill-opacity="0.15"/>
</svg>
