<svg width="63" height="45" viewBox="0 0 63 45" fill="none" xmlns="http://www.w3.org/2000/svg">
<path fill-rule="evenodd" clip-rule="evenodd" d="M31.5 20.276C37.0227 20.276 41.4999 15.737 41.4999 10.1379C41.4999 4.53889 37.0227 0 31.5 0C25.9773 0 21.5 4.53889 21.5 10.1379C21.5 15.737 25.9773 20.276 31.5 20.276ZM31.5 17.2346C35.3661 17.2346 38.4999 14.0573 38.4999 10.1379C38.4999 6.21862 35.3661 3.04138 31.5 3.04138C27.6339 3.04138 24.5 6.21862 24.5 10.1379C24.5 14.0573 27.6339 17.2346 31.5 17.2346Z" fill="#5C5C5C" fill-opacity="0.15"/>
<path fill-rule="evenodd" clip-rule="evenodd" d="M18.0001 16.7276C18.0001 20.9268 14.6422 24.331 10.5001 24.331C6.35793 24.331 3.00006 20.9268 3.00006 16.7276C3.00006 12.5283 6.35793 9.12411 10.5001 9.12411C14.6422 9.12411 18.0001 12.5283 18.0001 16.7276ZM15.0001 16.7276C15.0001 19.247 12.9854 21.2896 10.5001 21.2896C8.01477 21.2896 6.00006 19.247 6.00006 16.7276C6.00006 14.208 8.01477 12.1655 10.5001 12.1655C12.9854 12.1655 15.0001 14.208 15.0001 16.7276Z" fill="#5C5C5C" fill-opacity="0.15"/>
<path fill-rule="evenodd" clip-rule="evenodd" d="M0 42.5793V36.4966C0 30.6176 4.701 25.8517 10.5 25.8517C14.1745 25.8517 17.4081 27.7654 19.2843 30.6629C21.4445 26.0217 26.1024 22.8103 31.5 22.8103C36.8976 22.8103 41.5554 26.0217 43.7157 30.6629C45.5919 27.7654 48.8256 25.8517 52.5 25.8517C58.299 25.8517 63 30.6176 63 36.4966V42.5793C63 43.419 62.3283 44.1 61.5 44.1H1.5C0.67158 44.1 0 43.419 0 42.5793ZM3 36.4966C3 32.2973 6.35787 28.8931 10.5 28.8931C14.6421 28.8931 18 32.2973 18 36.4966V41.0586H3V36.4966ZM60 41.0586V36.4966C60 32.2973 56.6421 28.8931 52.5 28.8931C48.3579 28.8931 45 32.2973 45 36.4966V41.0586H60ZM42 41.0586V36.4966C42 30.6176 37.299 25.8517 31.5 25.8517C25.701 25.8517 21 30.6176 21 36.4966V41.0586H42Z" fill="#5C5C5C" fill-opacity="0.15"/>
<path fill-rule="evenodd" clip-rule="evenodd" d="M59.9999 16.7276C59.9999 20.9268 56.642 24.331 52.4999 24.331C48.3578 24.331 44.9999 20.9268 44.9999 16.7276C44.9999 12.5283 48.3578 9.12411 52.4999 9.12411C56.642 9.12411 59.9999 12.5283 59.9999 16.7276ZM56.9999 16.7276C56.9999 19.247 54.9851 21.2896 52.4999 21.2896C50.0147 21.2896 47.9999 19.247 47.9999 16.7276C47.9999 14.208 50.0147 12.1655 52.4999 12.1655C54.9851 12.1655 56.9999 14.208 56.9999 16.7276Z" fill="#5C5C5C" fill-opacity="0.15"/>
</svg>
