<svg width="21" height="15" viewBox="0 0 21 15" fill="none" xmlns="http://www.w3.org/2000/svg">
<path fill-rule="evenodd" clip-rule="evenodd" d="M10.5 6.6667C12.3409 6.6667 13.8333 5.1743 13.8333 3.33333C13.8333 1.49238 12.3409 0 10.5 0C8.65912 0 7.16669 1.49238 7.16669 3.33333C7.16669 5.1743 8.65912 6.6667 10.5 6.6667ZM10.5 5.6667C11.7887 5.6667 12.8333 4.622 12.8333 3.33333C12.8333 2.04467 11.7887 1 10.5 1C9.21132 1 8.16669 2.04467 8.16669 3.33333C8.16669 4.622 9.21132 5.6667 10.5 5.6667Z" fill="#5C5C5C" fill-opacity="0.15"/>
<path fill-rule="evenodd" clip-rule="evenodd" d="M6 5.5C6 6.8807 4.88071 8 3.5 8C2.11929 8 1 6.8807 1 5.5C1 4.11929 2.11929 3 3.5 3C4.88071 3 6 4.11929 6 5.5ZM5 5.5C5 6.3284 4.32843 7 3.5 7C2.67157 7 2 6.3284 2 5.5C2 4.67157 2.67157 4 3.5 4C4.32843 4 5 4.67157 5 5.5Z" fill="#5C5C5C" fill-opacity="0.15"/>
<path fill-rule="evenodd" clip-rule="evenodd" d="M0 14V12C0 10.067 1.567 8.5 3.5 8.5C4.72483 8.5 5.8027 9.1292 6.42809 10.0819C7.14816 8.5559 8.7008 7.5 10.5 7.5C12.2992 7.5 13.8518 8.5559 14.5719 10.0819C15.1973 9.1292 16.2752 8.5 17.5 8.5C19.433 8.5 21 10.067 21 12V14C21 14.2761 20.7761 14.5 20.5 14.5H0.5C0.22386 14.5 0 14.2761 0 14ZM1 12C1 10.6193 2.11929 9.5 3.5 9.5C4.88071 9.5 6 10.6193 6 12V13.5H1V12ZM20 13.5V12C20 10.6193 18.8807 9.5 17.5 9.5C16.1193 9.5 15 10.6193 15 12V13.5H20ZM14 13.5V12C14 10.067 12.433 8.5 10.5 8.5C8.567 8.5 7 10.067 7 12V13.5H14Z" fill="#5C5C5C" fill-opacity="0.15"/>
<path fill-rule="evenodd" clip-rule="evenodd" d="M20 5.5C20 6.8807 18.8807 8 17.5 8C16.1193 8 15 6.8807 15 5.5C15 4.11929 16.1193 3 17.5 3C18.8807 3 20 4.11929 20 5.5ZM19 5.5C19 6.3284 18.3284 7 17.5 7C16.6716 7 16 6.3284 16 5.5C16 4.67157 16.6716 4 17.5 4C18.3284 4 19 4.67157 19 5.5Z" fill="#5C5C5C" fill-opacity="0.15"/>
</svg>
