<svg width="305" height="219" viewBox="0 0 305 219" fill="none" xmlns="http://www.w3.org/2000/svg">
<path fill-rule="evenodd" clip-rule="evenodd" d="M152.5 100.276C179.237 100.276 200.912 77.8286 200.912 50.1379C200.912 22.4475 179.237 0 152.5 0C125.763 0 104.087 22.4475 104.087 50.1379C104.087 77.8286 125.763 100.276 152.5 100.276ZM152.5 85.235C171.217 85.235 186.388 69.5213 186.388 50.1379C186.388 30.7547 171.217 15.0414 152.5 15.0414C133.783 15.0414 118.611 30.7547 118.611 50.1379C118.611 69.5213 133.783 85.235 152.5 85.235Z" fill="#5C5C5C" fill-opacity="0.45"/>
<path fill-rule="evenodd" clip-rule="evenodd" d="M87.1432 82.7275C87.1432 103.495 70.8869 120.331 50.8337 120.331C30.7805 120.331 14.5242 103.495 14.5242 82.7275C14.5242 61.9597 30.7805 45.124 50.8337 45.124C70.8869 45.124 87.1432 61.9597 87.1432 82.7275ZM72.6194 82.7275C72.6194 95.1878 62.8657 105.29 50.8337 105.29C38.8017 105.29 29.048 95.1878 29.048 82.7275C29.048 70.2667 38.8017 60.1654 50.8337 60.1654C62.8657 60.1654 72.6194 70.2667 72.6194 82.7275Z" fill="#5C5C5C" fill-opacity="0.45"/>
<path fill-rule="evenodd" clip-rule="evenodd" d="M0 210.579V180.497C0 151.422 22.7588 127.852 50.8333 127.852C68.6225 127.852 84.2773 137.316 93.3604 151.646C103.819 128.693 126.369 112.81 152.5 112.81C178.631 112.81 201.181 128.693 211.639 151.646C220.723 137.316 236.378 127.852 254.167 127.852C282.241 127.852 305 151.422 305 180.497V210.579C305 214.732 301.748 218.1 297.738 218.1H7.2619C3.2513 218.1 0 214.732 0 210.579ZM14.5238 180.497C14.5238 159.729 30.7802 142.893 50.8333 142.893C70.8865 142.893 87.1429 159.729 87.1429 180.497V203.059H14.5238V180.497ZM290.476 203.059V180.497C290.476 159.729 274.22 142.893 254.167 142.893C234.114 142.893 217.857 159.729 217.857 180.497V203.059H290.476ZM203.333 203.059V180.497C203.333 151.422 180.575 127.852 152.5 127.852C124.425 127.852 101.667 151.422 101.667 180.497V203.059H203.333Z" fill="#5C5C5C" fill-opacity="0.45"/>
<path fill-rule="evenodd" clip-rule="evenodd" d="M290.476 82.7275C290.476 103.495 274.219 120.331 254.166 120.331C234.113 120.331 217.857 103.495 217.857 82.7275C217.857 61.9597 234.113 45.124 254.166 45.124C274.219 45.124 290.476 61.9597 290.476 82.7275ZM275.952 82.7275C275.952 95.1878 266.198 105.29 254.166 105.29C242.135 105.29 232.381 95.1878 232.381 82.7275C232.381 70.2667 242.135 60.1654 254.166 60.1654C266.198 60.1654 275.952 70.2667 275.952 82.7275Z" fill="#5C5C5C" fill-opacity="0.45"/>
</svg>
