<svg width="25" height="18" viewBox="0 0 25 18" fill="none" xmlns="http://www.w3.org/2000/svg">
<path fill-rule="evenodd" clip-rule="evenodd" d="M12.5 8.04602C14.6915 8.04602 16.4682 6.24485 16.4682 4.02298C16.4682 1.80115 14.6915 0 12.5 0C10.3084 0 8.53174 1.80115 8.53174 4.02298C8.53174 6.24485 10.3084 8.04602 12.5 8.04602ZM12.5 6.83912C14.0342 6.83912 15.2777 5.57828 15.2777 4.02298C15.2777 2.46771 14.0342 1.2069 12.5 1.2069C10.9658 1.2069 9.72221 2.46771 9.72221 4.02298C9.72221 5.57828 10.9658 6.83912 12.5 6.83912Z" fill="#5C5C5C" fill-opacity="0.15"/>
<path fill-rule="evenodd" clip-rule="evenodd" d="M7.14287 6.63792C7.14287 8.30429 5.81038 9.65516 4.16668 9.65516C2.52298 9.65516 1.19049 8.30429 1.19049 6.63792C1.19049 4.97155 2.52298 3.62068 4.16668 3.62068C5.81038 3.62068 7.14287 4.97155 7.14287 6.63792ZM5.9524 6.63792C5.9524 7.63772 5.15291 8.44827 4.16668 8.44827C3.18045 8.44827 2.38097 7.63772 2.38097 6.63792C2.38097 5.63809 3.18045 4.82758 4.16668 4.82758C5.15291 4.82758 5.9524 5.63809 5.9524 6.63792Z" fill="#5C5C5C" fill-opacity="0.15"/>
<path fill-rule="evenodd" clip-rule="evenodd" d="M0 16.8966V14.4828C0 12.1498 1.86548 10.2586 4.16667 10.2586C5.6248 10.2586 6.90798 11.018 7.65249 12.1678C8.50971 10.3261 10.3581 9.05173 12.5 9.05173C14.6419 9.05173 16.4902 10.3261 17.3475 12.1678C18.092 11.018 19.3752 10.2586 20.8333 10.2586C23.1345 10.2586 25 12.1498 25 14.4828V16.8966C25 17.2298 24.7335 17.5 24.4048 17.5H0.595238C0.2665 17.5 0 17.2298 0 16.8966ZM1.19048 14.4828C1.19048 12.8164 2.52296 11.4655 4.16667 11.4655C5.81037 11.4655 7.14286 12.8164 7.14286 14.4828V16.2931H1.19048V14.4828ZM23.8095 16.2931V14.4828C23.8095 12.8164 22.477 11.4655 20.8333 11.4655C19.1896 11.4655 17.8571 12.8164 17.8571 14.4828V16.2931H23.8095ZM16.6667 16.2931V14.4828C16.6667 12.1498 14.8012 10.2586 12.5 10.2586C10.1988 10.2586 8.33333 12.1498 8.33333 14.4828V16.2931H16.6667Z" fill="#5C5C5C" fill-opacity="0.15"/>
<path fill-rule="evenodd" clip-rule="evenodd" d="M23.8095 6.63792C23.8095 8.30429 22.477 9.65516 20.8333 9.65516C19.1896 9.65516 17.8571 8.30429 17.8571 6.63792C17.8571 4.97155 19.1896 3.62068 20.8333 3.62068C22.477 3.62068 23.8095 4.97155 23.8095 6.63792ZM22.619 6.63792C22.619 7.63772 21.8195 8.44827 20.8333 8.44827C19.8471 8.44827 19.0476 7.63772 19.0476 6.63792C19.0476 5.63809 19.8471 4.82758 20.8333 4.82758C21.8195 4.82758 22.619 5.63809 22.619 6.63792Z" fill="#5C5C5C" fill-opacity="0.15"/>
</svg>
