<svg width="27" height="22" viewBox="0 0 27 22" fill="none" xmlns="http://www.w3.org/2000/svg">
<path fill-rule="evenodd" clip-rule="evenodd" d="M13.5 9.88511C15.8669 9.88511 17.7857 7.67224 17.7857 4.94252C17.7857 2.21284 15.8669 0 13.5 0C11.1331 0 9.21429 2.21284 9.21429 4.94252C9.21429 7.67224 11.1331 9.88511 13.5 9.88511ZM13.5 8.40235C15.1569 8.40235 16.5 6.85331 16.5 4.94252C16.5 3.03175 15.1569 1.48276 13.5 1.48276C11.8431 1.48276 10.5 3.03175 10.5 4.94252C10.5 6.85331 11.8431 8.40235 13.5 8.40235Z" fill="#5C5C5C" fill-opacity="0.15"/>
<path fill-rule="evenodd" clip-rule="evenodd" d="M7.71428 8.15517C7.71428 10.2024 6.27519 11.8621 4.49999 11.8621C2.72479 11.8621 1.28571 10.2024 1.28571 8.15517C1.28571 6.10791 2.72479 4.44827 4.49999 4.44827C6.27519 4.44827 7.71428 6.10791 7.71428 8.15517ZM6.42856 8.15517C6.42856 9.38349 5.56512 10.3793 4.49999 10.3793C3.43487 10.3793 2.57142 9.38349 2.57142 8.15517C2.57142 6.92681 3.43487 5.93103 4.49999 5.93103C5.56512 5.93103 6.42856 6.92681 6.42856 8.15517Z" fill="#5C5C5C" fill-opacity="0.15"/>
<path fill-rule="evenodd" clip-rule="evenodd" d="M0 20.7586V17.7931C0 14.9269 2.01471 12.6035 4.5 12.6035C6.07478 12.6035 7.46061 13.5364 8.26469 14.949C9.19049 12.6863 11.1867 11.1207 13.5 11.1207C15.8133 11.1207 17.8095 12.6863 18.7353 14.949C19.5394 13.5364 20.9253 12.6035 22.5 12.6035C24.9853 12.6035 27 14.9269 27 17.7931V20.7586C27 21.168 26.7121 21.5 26.3571 21.5H0.642857C0.28782 21.5 0 21.168 0 20.7586ZM1.28571 17.7931C1.28571 15.7459 2.7248 14.0862 4.5 14.0862C6.2752 14.0862 7.71429 15.7459 7.71429 17.7931V20.0172H1.28571V17.7931ZM25.7143 20.0172V17.7931C25.7143 15.7459 24.2752 14.0862 22.5 14.0862C20.7248 14.0862 19.2857 15.7459 19.2857 17.7931V20.0172H25.7143ZM18 20.0172V17.7931C18 14.9269 15.9853 12.6035 13.5 12.6035C11.0147 12.6035 9 14.9269 9 17.7931V20.0172H18Z" fill="#5C5C5C" fill-opacity="0.15"/>
<path fill-rule="evenodd" clip-rule="evenodd" d="M25.7143 8.15517C25.7143 10.2024 24.2752 11.8621 22.5 11.8621C20.7248 11.8621 19.2857 10.2024 19.2857 8.15517C19.2857 6.10791 20.7248 4.44827 22.5 4.44827C24.2752 4.44827 25.7143 6.10791 25.7143 8.15517ZM24.4286 8.15517C24.4286 9.38349 23.5651 10.3793 22.5 10.3793C21.4349 10.3793 20.5714 9.38349 20.5714 8.15517C20.5714 6.92681 21.4349 5.93103 22.5 5.93103C23.5651 5.93103 24.4286 6.92681 24.4286 8.15517Z" fill="#5C5C5C" fill-opacity="0.15"/>
</svg>
