<svg width="295" height="326" viewBox="0 0 295 326" fill="none" xmlns="http://www.w3.org/2000/svg">
<path d="M51.1146 144.402C51.1146 178.475 68.6456 209.321 97.9696 226.867C110.783 234.552 119.197 248.062 120.746 262.905H117.085C108.777 262.905 102.018 269.643 102.018 277.925V286.838C102.018 295.119 108.777 301.857 117.085 301.857H119.232C121.344 315.508 133.208 326 147.535 326C161.863 326 173.656 315.508 175.768 301.857H177.915C186.223 301.857 192.982 295.119 192.982 286.838V277.925C192.982 269.643 186.223 262.905 177.915 262.905H174.289C175.874 248.062 184.569 234.587 198.157 226.2C230.297 206.338 247.582 170.65 243.252 133.102C238.218 89.1324 202.557 53.7251 158.483 48.8825C130.638 45.8295 103.919 54.2865 83.2196 72.7798C62.8019 90.9922 51.1146 117.1 51.1146 144.402ZM147.57 317.262C138.101 317.262 130.18 310.665 128.209 301.892H166.862C164.855 310.665 156.97 317.262 147.57 317.262ZM184.217 277.96V286.873C184.217 290.312 181.4 293.119 177.95 293.119H117.12C113.67 293.119 110.854 290.312 110.854 286.873V277.96C110.854 274.521 113.67 271.713 117.12 271.713H177.95C181.4 271.713 184.217 274.521 184.217 277.96ZM89.0985 79.3068C107.897 62.533 132.222 54.8129 157.498 57.6202C197.558 62.0067 229.945 94.1856 234.486 134.12C238.429 168.264 222.729 200.688 193.51 218.76C177.317 228.761 167.038 245.009 165.418 262.905H129.582C128.033 245.009 117.93 228.621 102.476 219.357C75.7918 203.39 59.8801 175.352 59.8801 144.402C59.8801 119.592 70.5114 95.87 89.0633 79.3068H89.0985Z" fill="#5C5C5C" fill-opacity="0.45"/>
<path d="M151.9 17.3001V4.38644C151.9 1.96512 149.929 0 147.5 0C145.071 0 143.1 1.96512 143.1 4.38644V17.3001C143.1 19.7214 145.071 21.6865 147.5 21.6865C149.929 21.6865 151.9 19.7214 151.9 17.3001Z" fill="#5C5C5C" fill-opacity="0.45"/>
<path d="M242.618 58.3923L251.771 49.2685C253.496 47.5491 253.496 44.7768 251.771 43.0573C250.046 41.3379 247.265 41.3379 245.54 43.0573L236.387 52.1811C234.662 53.9006 234.662 56.6728 236.387 58.3923C237.232 59.2345 238.358 59.6907 239.485 59.6907C240.611 59.6907 241.738 59.2696 242.583 58.3923H242.618Z" fill="#5C5C5C" fill-opacity="0.45"/>
<path d="M273.245 147.033C273.245 149.455 275.216 151.42 277.645 151.42H290.6C293.029 151.42 295 149.455 295 147.033C295 144.612 293.029 142.647 290.6 142.647H277.645C275.216 142.647 273.245 144.612 273.245 147.033Z" fill="#5C5C5C" fill-opacity="0.45"/>
<path d="M4.40036 151.42H17.355C19.784 151.42 21.7554 149.455 21.7554 147.033C21.7554 144.612 19.784 142.647 17.355 142.647H4.40036C1.97136 142.647 0 144.612 0 147.033C0 149.455 1.97136 151.42 4.40036 151.42Z" fill="#5C5C5C" fill-opacity="0.45"/>
<path d="M49.4248 43.0573C47.6999 41.3379 44.9189 41.3379 43.1939 43.0573C41.469 44.7768 41.469 47.5491 43.1939 49.2685L52.3819 58.3923C53.2268 59.2345 54.3533 59.6907 55.4797 59.6907C56.6062 59.6907 57.7327 59.2696 58.5776 58.3923C60.3025 56.6728 60.3025 53.9006 58.5776 52.1811L49.3896 43.0573H49.4248Z" fill="#5C5C5C" fill-opacity="0.45"/>
<path d="M103.532 157.982H109.199C109.833 159.877 110.607 161.737 111.523 163.561L107.509 167.562C105.749 169.316 104.764 171.668 104.764 174.194C104.764 176.721 105.749 179.037 107.509 180.826L112.051 185.318C115.606 188.827 121.731 188.827 125.287 185.318L129.3 181.318C131.131 182.265 132.996 183.037 134.932 183.669V189.283C134.932 194.442 139.122 198.653 144.296 198.653H150.703C155.843 198.653 160.067 194.442 160.067 189.283V183.634C162.003 183.002 163.869 182.23 165.665 181.318L169.713 185.318C173.268 188.827 179.429 188.827 182.914 185.318L187.49 180.791C191.151 177.142 191.151 171.211 187.49 167.562L183.477 163.561C184.392 161.772 185.167 159.912 185.801 157.982H191.503C196.678 157.982 200.903 153.771 200.903 148.612V142.261C200.903 137.102 196.678 132.891 191.503 132.891H185.801C185.167 130.961 184.392 129.137 183.477 127.347L187.526 123.311C191.187 119.662 191.187 113.731 187.526 110.082L182.984 105.59C179.323 101.941 173.409 101.941 169.748 105.59L165.7 109.626C163.904 108.713 162.039 107.941 160.103 107.31V101.66C160.103 96.5015 155.913 92.2906 150.739 92.2906H144.332C139.192 92.2906 134.968 96.5015 134.968 101.66V107.275C133.067 107.906 131.201 108.678 129.37 109.591L125.322 105.59C121.661 101.941 115.747 101.941 112.121 105.59L107.545 110.117C105.784 111.872 104.799 114.223 104.799 116.749C104.799 119.276 105.784 121.592 107.545 123.382L111.558 127.382C110.642 129.172 109.868 131.032 109.234 132.962H103.532C98.3919 132.962 94.1675 137.173 94.1675 142.331V148.683C94.1675 153.841 98.3567 158.052 103.532 158.052V157.982ZM102.968 142.261C102.968 141.945 103.215 141.664 103.532 141.664H112.579C114.62 141.664 116.381 140.261 116.873 138.296C117.683 134.927 118.986 131.768 120.781 128.926C121.872 127.172 121.626 124.926 120.182 123.452L113.776 117.1C113.564 116.89 113.564 116.469 113.776 116.293L118.352 111.766C118.563 111.556 118.915 111.556 119.162 111.766L125.568 118.118C127.012 119.557 129.265 119.802 130.99 118.714C133.947 116.89 137.08 115.591 140.389 114.854C142.395 114.398 143.804 112.609 143.804 110.573V101.625C143.804 101.309 144.05 101.028 144.367 101.028H150.774C151.091 101.028 151.337 101.274 151.337 101.625V110.573C151.337 112.609 152.745 114.363 154.716 114.854C158.096 115.661 161.264 116.96 164.08 118.75C165.805 119.837 168.094 119.592 169.537 118.153L175.944 111.766C176.155 111.556 176.507 111.556 176.753 111.766L181.295 116.258C181.506 116.469 181.506 116.855 181.295 117.1L174.888 123.487C173.444 124.926 173.163 127.207 174.289 128.926C176.085 131.733 177.387 134.892 178.197 138.26C178.654 140.226 180.45 141.629 182.492 141.629H191.503C191.82 141.629 192.102 141.91 192.102 142.226V148.577C192.102 148.893 191.82 149.174 191.503 149.174H182.492C180.45 149.174 178.69 150.578 178.197 152.543C177.387 155.911 176.085 159.07 174.289 161.912C173.198 163.667 173.444 165.913 174.888 167.386L181.295 173.738C181.506 173.948 181.506 174.334 181.295 174.545L176.718 179.072C176.542 179.247 176.12 179.247 175.909 179.072L169.502 172.72C168.058 171.282 165.77 171.036 164.045 172.124C161.229 173.913 158.061 175.212 154.681 176.019C152.675 176.475 151.302 178.265 151.302 180.3V189.248C151.302 189.564 151.055 189.845 150.739 189.845H144.332C144.015 189.845 143.768 189.599 143.768 189.248V180.3C143.768 178.265 142.325 176.475 140.318 176.019C137.045 175.282 133.912 173.984 130.919 172.124C130.18 171.668 129.406 171.457 128.596 171.457C127.469 171.457 126.343 171.878 125.498 172.755L119.126 179.107C118.95 179.282 118.528 179.282 118.317 179.107L113.776 174.615C113.564 174.405 113.564 173.984 113.776 173.808L120.147 167.457C121.591 166.018 121.837 163.772 120.781 162.052C118.95 159.105 117.613 155.947 116.838 152.683C116.381 150.718 114.585 149.314 112.543 149.314H103.567C103.25 149.314 103.003 149.069 103.003 148.718V142.366L102.968 142.261Z" fill="#5C5C5C" fill-opacity="0.45"/>
<path d="M147.465 167.702C159.786 167.702 169.819 157.736 169.819 145.489C169.819 133.242 159.786 123.276 147.465 123.276C135.144 123.276 125.181 133.242 125.181 145.489C125.181 157.736 135.179 167.702 147.465 167.702ZM147.465 132.014C154.928 132.014 161.018 138.05 161.018 145.454C161.018 152.859 154.928 158.894 147.465 158.894C140.002 158.894 133.982 152.859 133.982 145.454C133.982 138.05 140.037 132.014 147.465 132.014Z" fill="#5C5C5C" fill-opacity="0.45"/>
</svg>
