<svg width="168" height="181" viewBox="0 0 168 181" fill="none" xmlns="http://www.w3.org/2000/svg">
<path d="M29.6249 80.1738C29.6249 99.0921 39.5716 116.218 56.2094 125.96C63.4797 130.226 68.2533 137.728 69.1321 145.969H67.0549C62.3412 145.969 58.5063 149.71 58.5063 154.308V159.257C58.5063 163.855 62.3412 167.595 67.0549 167.595H68.2733C69.4717 175.174 76.2027 181 84.3318 181C92.4609 181 99.152 175.174 100.35 167.595H101.569C106.282 167.595 110.117 163.855 110.117 159.257V154.308C110.117 149.71 106.282 145.969 101.569 145.969H99.5115C100.41 137.728 105.344 130.246 113.053 125.589C131.289 114.562 141.096 94.7474 138.639 73.9002C135.783 49.4876 115.55 29.8289 90.5435 27.1403C74.7446 25.4452 59.5849 30.1407 47.8406 40.4084C36.256 50.5202 29.6249 65.0158 29.6249 80.1738ZM84.3518 176.149C78.979 176.149 74.485 172.486 73.3665 167.615H95.2972C94.1587 172.486 89.6846 176.149 84.3518 176.149ZM105.144 154.327V159.276C105.144 161.185 103.546 162.744 101.589 162.744H67.0749C65.1175 162.744 63.5196 161.185 63.5196 159.276V154.327C63.5196 152.418 65.1175 150.859 67.0749 150.859H101.589C103.546 150.859 105.144 152.418 105.144 154.327ZM51.1761 44.0323C61.8419 34.7193 75.6434 30.4329 89.9843 31.9916C112.714 34.427 131.089 52.2932 133.666 74.4652C135.903 93.4225 126.995 111.425 110.417 121.459C101.229 127.012 95.397 136.033 94.4782 145.969H74.1454C73.2666 136.033 67.5342 126.934 58.766 121.79C43.6262 112.925 34.5983 97.3581 34.5983 80.1738C34.5983 66.3991 40.6302 53.2284 51.1561 44.0323H51.1761Z" fill="#5C5C5C" fill-opacity="0.15"/>
<path d="M86.8085 9.60527V2.43541C86.8085 1.09107 85.69 0 84.3118 0C82.9337 0 81.8152 1.09107 81.8152 2.43541V9.60527C81.8152 10.9496 82.9337 12.0407 84.3118 12.0407C85.69 12.0407 86.8085 10.9496 86.8085 9.60527Z" fill="#5C5C5C" fill-opacity="0.15"/>
<path d="M138.28 32.4203L143.473 27.3546C144.451 26.3999 144.451 24.8607 143.473 23.906C142.494 22.9514 140.916 22.9514 139.937 23.906L134.744 28.9717C133.766 29.9264 133.766 31.4656 134.744 32.4203C135.224 32.8879 135.863 33.1411 136.502 33.1411C137.141 33.1411 137.78 32.9073 138.26 32.4203H138.28Z" fill="#5C5C5C" fill-opacity="0.15"/>
<path d="M155.656 81.6351C155.656 82.9794 156.775 84.0705 158.153 84.0705H165.503C166.881 84.0705 168 82.9794 168 81.6351C168 80.2907 166.881 79.1996 165.503 79.1996H158.153C156.775 79.1996 155.656 80.2907 155.656 81.6351Z" fill="#5C5C5C" fill-opacity="0.15"/>
<path d="M3.12032 84.0705H10.4705C11.8487 84.0705 12.9672 82.9794 12.9672 81.6351C12.9672 80.2907 11.8487 79.1996 10.4705 79.1996H3.12032C1.74216 79.1996 0.623657 80.2907 0.623657 81.6351C0.623657 82.9794 1.74216 84.0705 3.12032 84.0705Z" fill="#5C5C5C" fill-opacity="0.15"/>
<path d="M28.6662 23.906C27.6875 22.9514 26.1096 22.9514 25.1309 23.906C24.1522 24.8607 24.1522 26.3999 25.1309 27.3546L30.3439 32.4203C30.8233 32.8879 31.4624 33.1411 32.1016 33.1411C32.7407 33.1411 33.3799 32.9073 33.8592 32.4203C34.8379 31.4656 34.8379 29.9264 33.8592 28.9717L28.6462 23.906H28.6662Z" fill="#5C5C5C" fill-opacity="0.15"/>
<path d="M59.3651 87.7139H62.5808C62.9403 88.766 63.3798 89.7986 63.8991 90.8117L61.6221 93.0328C60.6234 94.007 60.0642 95.3123 60.0642 96.7151C60.0642 98.1179 60.6234 99.4038 61.6221 100.397L64.1987 102.891C66.216 104.84 69.6913 104.84 71.7086 102.891L73.9856 100.67C75.0242 101.196 76.0828 101.625 77.1813 101.976V105.093C77.1813 107.957 79.5581 110.295 82.4942 110.295H86.1294C89.0455 110.295 91.4423 107.957 91.4423 105.093V101.956C92.5408 101.605 93.5994 101.177 94.618 100.67L96.9149 102.891C98.9322 104.84 102.428 104.84 104.405 102.891L107.001 100.378C109.079 98.3517 109.079 95.0591 107.001 93.0328L104.725 90.8117C105.244 89.8181 105.683 88.7854 106.043 87.7139H109.278C112.215 87.7139 114.611 85.3759 114.611 82.5118V78.9853C114.611 76.1213 112.215 73.7833 109.278 73.7833H106.043C105.683 72.7117 105.244 71.6986 104.725 70.7049L107.021 68.4643C109.099 66.4381 109.099 63.1454 107.021 61.1191L104.445 58.6253C102.368 56.599 99.0121 56.599 96.9349 58.6253L94.638 60.8658C93.6193 60.3593 92.5608 59.9306 91.4622 59.5799V56.4431C91.4622 53.5791 89.0854 51.2411 86.1493 51.2411H82.5142C79.5981 51.2411 77.2013 53.5791 77.2013 56.4431V59.5605C76.1227 59.9112 75.0641 60.3398 74.0255 60.8464L71.7286 58.6253C69.6514 56.599 66.2959 56.599 64.2386 58.6253L61.6421 61.1386C60.6434 62.1128 60.0842 63.4182 60.0842 64.821C60.0842 66.2238 60.6434 67.5097 61.6421 68.5033L63.919 70.7244C63.3997 71.7181 62.9603 72.7507 62.6008 73.8223H59.3651C56.449 73.8223 54.0522 76.1603 54.0522 79.0243V82.5508C54.0522 85.4148 56.429 87.7528 59.3651 87.7528V87.7139ZM59.0455 78.9853C59.0455 78.81 59.1854 78.6541 59.3651 78.6541H64.4983C65.6567 78.6541 66.6554 77.8748 66.935 76.7837C67.3944 74.9133 68.1334 73.1598 69.152 71.5817C69.7712 70.6075 69.6314 69.3606 68.8125 68.5423L65.1773 65.0158C65.0575 64.8989 65.0575 64.6651 65.1773 64.5677L67.7739 62.0543C67.8937 61.9374 68.0935 61.9374 68.2333 62.0543L71.8684 65.5808C72.6873 66.3796 73.9656 66.516 74.9443 65.912C76.6221 64.8989 78.3997 64.178 80.2772 63.7689C81.4157 63.5156 82.2146 62.5219 82.2146 61.3919V56.4237C82.2146 56.2483 82.3544 56.0924 82.5342 56.0924H86.1693C86.3491 56.0924 86.4889 56.2288 86.4889 56.4237V61.3919C86.4889 62.5219 87.2878 63.4961 88.4063 63.7689C90.3238 64.217 92.1213 64.9379 93.7192 65.9315C94.6979 66.5355 95.9962 66.3991 96.8151 65.6003L100.45 62.0543C100.57 61.9374 100.77 61.9374 100.91 62.0543L103.486 64.5482C103.606 64.6651 103.606 64.8794 103.486 65.0158L99.851 68.5618C99.0321 69.3606 98.8723 70.627 99.5115 71.5817C100.53 73.1403 101.269 74.8938 101.729 76.7642C101.988 77.8553 103.007 78.6346 104.165 78.6346H109.278C109.458 78.6346 109.618 78.7905 109.618 78.9658V82.4923C109.618 82.6677 109.458 82.8235 109.278 82.8235H104.165C103.007 82.8235 102.008 83.6029 101.729 84.6939C101.269 86.5643 100.53 88.3178 99.5115 89.896C98.8923 90.8702 99.0321 92.1171 99.851 92.9354L103.486 96.4619C103.606 96.5788 103.606 96.7931 103.486 96.91L100.89 99.4233C100.79 99.5207 100.55 99.5207 100.43 99.4233L96.7951 95.8969C95.9762 95.098 94.6779 94.9616 93.6992 95.5656C92.1014 96.5593 90.3038 97.2802 88.3863 97.7283C87.2479 97.9816 86.4689 98.9752 86.4689 100.105V105.073C86.4689 105.249 86.3291 105.405 86.1493 105.405H82.5142C82.3344 105.405 82.1946 105.268 82.1946 105.073V100.105C82.1946 98.9752 81.3757 97.9816 80.2372 97.7283C78.3797 97.3191 76.6021 96.5982 74.9043 95.5656C74.4849 95.3123 74.0455 95.1954 73.5861 95.1954C72.947 95.1954 72.3078 95.4292 71.8285 95.9163L68.2133 99.4428C68.1134 99.5402 67.8737 99.5402 67.7539 99.4428L65.1773 96.9489C65.0575 96.832 65.0575 96.5982 65.1773 96.5008L68.7925 92.9744C69.6114 92.1755 69.7512 90.9286 69.152 89.9739C68.1134 88.3373 67.3544 86.5838 66.915 84.7719C66.6554 83.6808 65.6367 82.9015 64.4783 82.9015H59.3851C59.2053 82.9015 59.0655 82.7651 59.0655 82.5703V79.0438L59.0455 78.9853Z" fill="#5C5C5C" fill-opacity="0.15"/>
<path d="M84.2918 93.1108C91.2825 93.1108 96.9749 87.5775 96.9749 80.7778C96.9749 73.9781 91.2825 68.4449 84.2918 68.4449C77.3012 68.4449 71.6487 73.9781 71.6487 80.7778C71.6487 87.5775 77.3212 93.1108 84.2918 93.1108ZM84.2918 73.2962C88.5262 73.2962 91.9816 76.6474 91.9816 80.7583C91.9816 84.8693 88.5262 88.2204 84.2918 88.2204C80.0575 88.2204 76.6421 84.8693 76.6421 80.7583C76.6421 76.6474 80.0775 73.2962 84.2918 73.2962Z" fill="#5C5C5C" fill-opacity="0.15"/>
</svg>
