<svg width="37" height="38" viewBox="0 0 37 38" fill="none" xmlns="http://www.w3.org/2000/svg">
<path d="M6.41098 16.8321C6.41098 20.8039 8.60979 24.3994 12.2877 26.4446C13.8949 27.3404 14.9501 28.9152 15.1444 30.6454H14.6852C13.6432 30.6454 12.7955 31.4308 12.7955 32.3961V33.4351C12.7955 34.4004 13.6432 35.1858 14.6852 35.1858H14.9545C15.2195 36.777 16.7074 38 18.5044 38C20.3014 38 21.7805 36.777 22.0455 35.1858H22.3148C23.3568 35.1858 24.2045 34.4004 24.2045 33.4351V32.3961C24.2045 31.4308 23.3568 30.6454 22.3148 30.6454H21.86C22.0587 28.9152 23.1493 27.3445 24.8536 26.3668C28.8847 24.0517 31.0526 19.8917 30.5095 15.515C29.8782 10.3897 25.4055 6.26243 19.8776 5.69795C16.3851 5.34209 13.0339 6.32788 10.4377 8.48353C7.87685 10.6065 6.41098 13.6497 6.41098 16.8321ZM18.5088 36.9815C17.3211 36.9815 16.3277 36.2125 16.0804 35.1899H20.9284C20.6767 36.2125 19.6877 36.9815 18.5088 36.9815ZM23.1051 32.4002V33.4392C23.1051 33.84 22.7519 34.1673 22.3192 34.1673H14.6896C14.2569 34.1673 13.9037 33.84 13.9037 33.4392V32.4002C13.9037 31.9994 14.2569 31.6721 14.6896 31.6721H22.3192C22.7519 31.6721 23.1051 31.9994 23.1051 32.4002ZM11.1751 9.24435C13.5328 7.28913 16.5838 6.38924 19.7539 6.71647C24.7785 7.22777 28.8406 10.9787 29.4101 15.6336C29.9047 19.6136 27.9354 23.3931 24.2708 25.4997C22.2397 26.6654 20.9505 28.5593 20.7474 30.6454H16.2526C16.0584 28.5593 14.7912 26.6491 12.8529 25.5692C9.50609 23.7081 7.51038 20.4398 7.51038 16.8321C7.51038 13.9402 8.8438 11.175 11.1706 9.24435H11.1751Z" fill="#5C5C5C" fill-opacity="0.15"/>
<path d="M19.0519 2.01658V0.511302C19.0519 0.229064 18.8047 0 18.5 0C18.1953 0 17.9481 0.229064 17.9481 0.511302V2.01658C17.9481 2.29882 18.1953 2.52788 18.5 2.52788C18.8047 2.52788 19.0519 2.29882 19.0519 2.01658Z" fill="#5C5C5C" fill-opacity="0.15"/>
<path d="M30.4301 6.80646L31.578 5.74295C31.7944 5.54252 31.7944 5.21938 31.578 5.01894C31.3617 4.81851 31.0129 4.81851 30.7965 5.01894L29.6486 6.08245C29.4322 6.28288 29.4322 6.60603 29.6486 6.80646C29.7545 6.90463 29.8958 6.9578 30.0371 6.9578C30.1784 6.9578 30.3197 6.90872 30.4256 6.80646H30.4301Z" fill="#5C5C5C" fill-opacity="0.15"/>
<path d="M34.2714 17.1389C34.2714 17.4211 34.5186 17.6502 34.8233 17.6502H36.4481C36.7527 17.6502 37 17.4211 37 17.1389C37 16.8566 36.7527 16.6275 36.4481 16.6275H34.8233C34.5186 16.6275 34.2714 16.8566 34.2714 17.1389Z" fill="#5C5C5C" fill-opacity="0.15"/>
<path d="M0.551909 17.6502H2.17673C2.48138 17.6502 2.72864 17.4211 2.72864 17.1389C2.72864 16.8566 2.48138 16.6275 2.17673 16.6275H0.551909C0.247255 16.6275 0 16.8566 0 17.1389C0 17.4211 0.247255 17.6502 0.551909 17.6502Z" fill="#5C5C5C" fill-opacity="0.15"/>
<path d="M6.19904 5.01894C5.9827 4.81851 5.63389 4.81851 5.41754 5.01894C5.20119 5.21938 5.20119 5.54252 5.41754 5.74295L6.56993 6.80646C6.67589 6.90463 6.81718 6.9578 6.95847 6.9578C7.09976 6.9578 7.24105 6.90872 7.34702 6.80646C7.56336 6.60603 7.56336 6.28288 7.34702 6.08245L6.19463 5.01894H6.19904Z" fill="#5C5C5C" fill-opacity="0.15"/>
<path d="M12.9853 18.4151H13.6962C13.7756 18.6359 13.8728 18.8527 13.9876 19.0654L13.4842 19.5317C13.2635 19.7363 13.1398 20.0103 13.1398 20.3048C13.1398 20.5993 13.2635 20.8693 13.4842 21.0779L14.0538 21.6015C14.4998 22.0105 15.268 22.0105 15.714 21.6015L16.2173 21.1352C16.4469 21.2456 16.6809 21.3356 16.9237 21.4093V22.0637C16.9237 22.665 17.4492 23.1559 18.0982 23.1559H18.9018C19.5464 23.1559 20.0762 22.665 20.0762 22.0637V21.4052C20.3191 21.3315 20.5531 21.2415 20.7783 21.1352L21.286 21.6015C21.732 22.0105 22.5046 22.0105 22.9418 21.6015L23.5157 21.0738C23.9749 20.6484 23.9749 19.9572 23.5157 19.5317L23.0124 19.0654C23.1272 18.8568 23.2243 18.64 23.3038 18.4151H24.0191C24.6681 18.4151 25.198 17.9242 25.198 17.3229V16.5826C25.198 15.9813 24.6681 15.4904 24.0191 15.4904H23.3038C23.2243 15.2654 23.1272 15.0527 23.0124 14.8441L23.5202 14.3737C23.9793 13.9483 23.9793 13.257 23.5202 12.8316L22.9506 12.3081C22.4914 11.8827 21.7496 11.8827 21.2904 12.3081L20.7827 12.7785C20.5575 12.6721 20.3235 12.5821 20.0807 12.5085V11.8499C20.0807 11.2486 19.5552 10.7578 18.9062 10.7578H18.1026C17.458 10.7578 16.9282 11.2486 16.9282 11.8499V12.5044C16.6897 12.578 16.4557 12.668 16.2261 12.7744L15.7184 12.3081C15.2592 11.8827 14.5174 11.8827 14.0626 12.3081L13.4887 12.8357C13.2679 13.0403 13.1443 13.3143 13.1443 13.6088C13.1443 13.9033 13.2679 14.1733 13.4887 14.3819L13.992 14.8482C13.8772 15.0568 13.7801 15.2736 13.7006 15.4986H12.9853C12.3407 15.4986 11.8109 15.9894 11.8109 16.5907V17.3311C11.8109 17.9324 12.3363 18.4232 12.9853 18.4232V18.4151ZM12.9147 16.5826C12.9147 16.5457 12.9456 16.513 12.9853 16.513H14.12C14.3761 16.513 14.5969 16.3494 14.6587 16.1203C14.7603 15.7277 14.9236 15.3595 15.1488 15.0282C15.2857 14.8237 15.2548 14.5619 15.0737 14.3901L14.2702 13.6497C14.2437 13.6252 14.2437 13.5761 14.2702 13.5556L14.8441 13.028C14.8706 13.0034 14.9148 13.0034 14.9457 13.028L15.7493 13.7683C15.9303 13.9361 16.2129 13.9647 16.4292 13.8379C16.8001 13.6252 17.1931 13.4738 17.6081 13.3879C17.8598 13.3348 18.0364 13.1262 18.0364 12.8889V11.8458C18.0364 11.809 18.0673 11.7763 18.107 11.7763H18.9106C18.9504 11.7763 18.9813 11.8049 18.9813 11.8458V12.8889C18.9813 13.1262 19.1579 13.3307 19.4051 13.3879C19.829 13.482 20.2264 13.6334 20.5796 13.842C20.7959 13.9688 21.0829 13.9401 21.264 13.7724L22.0675 13.028C22.094 13.0034 22.1382 13.0034 22.1691 13.028L22.7387 13.5516C22.7651 13.5761 22.7651 13.6211 22.7387 13.6497L21.9351 14.3942C21.754 14.5619 21.7187 14.8278 21.86 15.0282C22.0852 15.3554 22.2486 15.7236 22.3501 16.1162C22.4075 16.3453 22.6327 16.5089 22.8888 16.5089H24.0191C24.0588 16.5089 24.0941 16.5417 24.0941 16.5785V17.3188C24.0941 17.3556 24.0588 17.3884 24.0191 17.3884H22.8888C22.6327 17.3884 22.4119 17.552 22.3501 17.781C22.2486 18.1737 22.0852 18.5419 21.86 18.8732C21.7231 19.0777 21.754 19.3395 21.9351 19.5113L22.7387 20.2517C22.7651 20.2762 22.7651 20.3212 22.7387 20.3457L22.1647 20.8734C22.1426 20.8939 22.0896 20.8939 22.0631 20.8734L21.2595 20.133C21.0785 19.9653 20.7915 19.9367 20.5752 20.0635C20.2219 20.2721 19.8246 20.4235 19.4007 20.5175C19.149 20.5707 18.9768 20.7793 18.9768 21.0166V22.0596C18.9768 22.0964 18.9459 22.1292 18.9062 22.1292H18.1026C18.0629 22.1292 18.032 22.1005 18.032 22.0596V21.0166C18.032 20.7793 17.8509 20.5707 17.5993 20.5175C17.1887 20.4316 16.7957 20.2803 16.4204 20.0635C16.3277 20.0103 16.2305 19.9858 16.129 19.9858C15.9877 19.9858 15.8464 20.0349 15.7404 20.1371L14.9413 20.8775C14.9192 20.8979 14.8662 20.8979 14.8397 20.8775L14.2702 20.3539C14.2437 20.3294 14.2437 20.2803 14.2702 20.2598L15.0693 19.5195C15.2504 19.3518 15.2813 19.09 15.1488 18.8896C14.9192 18.546 14.7514 18.1778 14.6543 17.7974C14.5969 17.5683 14.3717 17.4047 14.1156 17.4047H12.9897C12.95 17.4047 12.9191 17.3761 12.9191 17.3352V16.5948L12.9147 16.5826Z" fill="#5C5C5C" fill-opacity="0.15"/>
<path d="M18.4956 19.5481C20.0409 19.5481 21.2993 18.3864 21.2993 16.9589C21.2993 15.5313 20.0409 14.3696 18.4956 14.3696C16.9502 14.3696 15.7007 15.5313 15.7007 16.9589C15.7007 18.3864 16.9547 19.5481 18.4956 19.5481ZM18.4956 15.3882C19.4316 15.3882 20.1955 16.0917 20.1955 16.9548C20.1955 17.8179 19.4316 18.5214 18.4956 18.5214C17.5595 18.5214 16.8045 17.8179 16.8045 16.9548C16.8045 16.0917 17.564 15.3882 18.4956 15.3882Z" fill="#5C5C5C" fill-opacity="0.15"/>
</svg>
