<svg width="131" height="128" viewBox="0 0 131 128" fill="none" xmlns="http://www.w3.org/2000/svg">
<path d="M22.6983 56.6975C22.6983 70.0762 30.4833 82.1873 43.5051 89.0764C49.1953 92.0939 52.9315 97.3985 53.6193 103.227H51.9936C48.3043 103.227 45.3029 105.872 45.3029 109.124V112.623C45.3029 115.875 48.3043 118.521 51.9936 118.521H52.9471C53.8851 123.88 59.1532 128 65.5156 128C71.878 128 77.1149 123.88 78.0529 118.521H79.0064C82.6957 118.521 85.6971 115.875 85.6971 112.623V109.124C85.6971 105.872 82.6957 103.227 79.0064 103.227H77.3963C78.0998 97.3985 81.961 92.1076 87.9951 88.8146C102.268 81.0161 109.943 67.0037 108.02 52.2609C105.785 34.9968 89.9492 21.0945 70.3773 19.1931C58.0121 17.9944 46.147 21.315 36.9551 28.5761C27.8883 35.727 22.6983 45.978 22.6983 56.6975ZM65.5313 124.569C61.3261 124.569 57.8088 121.979 56.9334 118.534H74.0979C73.2068 121.979 69.7051 124.569 65.5313 124.569ZM81.8047 109.138V112.637C81.8047 113.988 80.5541 115.09 79.0221 115.09H52.0092C50.4772 115.09 49.2266 113.988 49.2266 112.637V109.138C49.2266 107.787 50.4772 106.685 52.0092 106.685H79.0221C80.5541 106.685 81.8047 107.787 81.8047 109.138ZM39.5658 31.1389C47.9135 24.5528 58.7155 21.5216 69.9396 22.6239C87.7294 24.3462 102.111 36.9808 104.128 52.6605C105.879 66.0667 98.9066 78.7978 85.9316 85.8936C78.7407 89.8204 74.176 96.1998 73.4569 103.227H57.5431C56.8553 96.1998 52.3687 89.7653 45.5061 86.1279C33.6567 79.8588 26.5908 68.8499 26.5908 56.6975C26.5908 46.9563 31.3118 37.6422 39.5501 31.1389H39.5658Z" fill="#5C5C5C" fill-opacity="0.25"/>
<path d="M67.454 6.79268V1.72228C67.454 0.771582 66.5786 0 65.5 0C64.4213 0 63.5459 0.771582 63.5459 1.72228V6.79268C63.5459 7.74338 64.4213 8.51496 65.5 8.51496C66.5786 8.51496 67.454 7.74338 67.454 6.79268Z" fill="#5C5C5C" fill-opacity="0.25"/>
<path d="M107.739 22.927L111.803 19.3447C112.569 18.6696 112.569 17.5811 111.803 16.9059C111.037 16.2308 109.802 16.2308 109.036 16.9059L104.972 20.4883C104.206 21.1634 104.206 22.2519 104.972 22.927C105.347 23.2577 105.847 23.4368 106.348 23.4368C106.848 23.4368 107.348 23.2715 107.723 22.927H107.739Z" fill="#5C5C5C" fill-opacity="0.25"/>
<path d="M121.339 57.7309C121.339 58.6816 122.215 59.4532 123.293 59.4532H129.046C130.125 59.4532 131 58.6816 131 57.7309C131 56.7802 130.125 56.0086 129.046 56.0086H123.293C122.215 56.0086 121.339 56.7802 121.339 57.7309Z" fill="#5C5C5C" fill-opacity="0.25"/>
<path d="M1.95406 59.4532H7.7068C8.78544 59.4532 9.66086 58.6816 9.66086 57.7309C9.66086 56.7802 8.78544 56.0086 7.7068 56.0086H1.95406C0.875418 56.0086 0 56.7802 0 57.7309C0 58.6816 0.875418 59.4532 1.95406 59.4532Z" fill="#5C5C5C" fill-opacity="0.25"/>
<path d="M21.948 16.9059C21.182 16.2308 19.947 16.2308 19.181 16.9059C18.415 17.5811 18.415 18.6696 19.181 19.3447L23.2611 22.927C23.6363 23.2577 24.1365 23.4368 24.6368 23.4368C25.137 23.4368 25.6372 23.2715 26.0124 22.927C26.7784 22.2519 26.7784 21.1634 26.0124 20.4883L21.9323 16.9059H21.948Z" fill="#5C5C5C" fill-opacity="0.25"/>
<path d="M45.975 62.0297H48.4918C48.7732 62.7737 49.1171 63.504 49.5236 64.2204L47.7415 65.7911C46.9599 66.4801 46.5221 67.4032 46.5221 68.3952C46.5221 69.3873 46.9599 70.2966 47.7415 70.9993L49.7581 72.7629C51.3369 74.1408 54.057 74.1408 55.6359 72.7629L57.418 71.1922C58.2309 71.5642 59.0594 71.8674 59.9192 72.1154V74.3199C59.9192 76.3453 61.7794 77.9987 64.0774 77.9987H66.9225C69.2048 77.9987 71.0807 76.3453 71.0807 74.3199V72.1016C71.9405 71.8536 72.769 71.5505 73.5663 71.1922L75.364 72.7629C76.9429 74.1408 79.6786 74.1408 81.2262 72.7629L83.2584 70.9855C84.8842 69.5526 84.8842 67.2241 83.2584 65.7911L81.4763 64.2204C81.8828 63.5177 82.2267 62.7875 82.5081 62.0297H85.0405C87.3385 62.0297 89.2144 60.3763 89.2144 58.3509V55.857C89.2144 53.8316 87.3385 52.1782 85.0405 52.1782H82.5081C82.2267 51.4204 81.8828 50.704 81.4763 50.0013L83.2741 48.4168C84.8998 46.9838 84.8998 44.6553 83.2741 43.2224L81.2575 41.4587C79.6317 40.0258 77.0054 40.0258 75.3797 41.4587L73.5819 43.0432C72.7847 42.685 71.9562 42.3819 71.0964 42.1339V39.9156C71.0964 37.8902 69.2361 36.2368 66.9381 36.2368H64.093C61.8107 36.2368 59.9348 37.8902 59.9348 39.9156V42.1201C59.0906 42.3681 58.2621 42.6712 57.4492 43.0295L55.6515 41.4587C54.0257 40.0258 51.3995 40.0258 49.7893 41.4587L47.7571 43.2361C46.9755 43.9251 46.5378 44.8482 46.5378 45.8402C46.5378 46.8323 46.9755 47.7416 47.7571 48.4443L49.5392 50.015C49.1328 50.7177 48.7889 51.448 48.5075 52.2058H45.975C43.6927 52.2058 41.8168 53.8592 41.8168 55.8846V58.3784C41.8168 60.4038 43.677 62.0572 45.975 62.0572V62.0297ZM45.7249 55.857C45.7249 55.733 45.8343 55.6228 45.975 55.6228H49.9925C50.8992 55.6228 51.6809 55.0717 51.8997 54.3001C52.2593 52.9774 52.8377 51.7373 53.6349 50.6213C54.1195 49.9324 54.0101 49.0506 53.3692 48.4719L50.5241 45.978C50.4303 45.8953 50.4303 45.73 50.5241 45.6611L52.5563 43.8837C52.6501 43.801 52.8064 43.801 52.9158 43.8837L55.7609 46.3776C56.4019 46.9425 57.4023 47.0389 58.1683 46.6118C59.4814 45.8953 60.8727 45.3855 62.3422 45.0962C63.2332 44.9171 63.8585 44.2144 63.8585 43.4153V39.9018C63.8585 39.7778 63.968 39.6676 64.1087 39.6676H66.9538C67.0945 39.6676 67.2039 39.764 67.2039 39.9018V43.4153C67.2039 44.2144 67.8292 44.9033 68.7046 45.0962C70.2053 45.4131 71.6122 45.9229 72.8628 46.6256C73.6288 47.0527 74.6449 46.9563 75.2859 46.3914L78.131 43.8837C78.2248 43.801 78.3811 43.801 78.4905 43.8837L80.5071 45.6473C80.6009 45.73 80.6009 45.8816 80.5071 45.978L77.662 48.4857C77.0211 49.0506 76.896 49.9462 77.3962 50.6213C78.1935 51.7235 78.7719 52.9636 79.1315 54.2863C79.3347 55.0579 80.1319 55.609 81.0386 55.609H85.0405C85.1812 55.609 85.3063 55.7192 85.3063 55.8432V58.3371C85.3063 58.4611 85.1812 58.5713 85.0405 58.5713H81.0386C80.1319 58.5713 79.3503 59.1225 79.1315 59.8941C78.7719 61.2168 78.1935 62.4568 77.3962 63.5728C76.9116 64.2618 77.0211 65.1436 77.662 65.7223L80.5071 68.2161C80.6009 68.2988 80.6009 68.4503 80.5071 68.533L78.4749 70.3104C78.3967 70.3793 78.2091 70.3793 78.1153 70.3104L75.2702 67.8165C74.6293 67.2516 73.6132 67.1552 72.8472 67.5823C71.5966 68.285 70.1897 68.7948 68.689 69.1117C67.7979 69.2908 67.1883 69.9935 67.1883 70.7927V74.3061C67.1883 74.4301 67.0788 74.5403 66.9381 74.5403H64.093C63.9523 74.5403 63.8429 74.4439 63.8429 74.3061V70.7927C63.8429 69.9935 63.202 69.2908 62.3109 69.1117C60.8571 68.8224 59.4658 68.3126 58.1371 67.5823C57.8088 67.4032 57.4649 67.3205 57.1053 67.3205C56.6051 67.3205 56.1048 67.4859 55.7297 67.8303L52.9002 70.3242C52.822 70.3931 52.6344 70.3931 52.5406 70.3242L50.5241 68.5606C50.4303 68.4779 50.4303 68.3126 50.5241 68.2437L53.3535 65.7498C53.9945 65.1849 54.1039 64.3031 53.6349 63.628C52.822 62.4706 52.228 61.2305 51.8841 59.9492C51.6809 59.1776 50.8836 58.6265 49.9769 58.6265H45.9906C45.8499 58.6265 45.7405 58.53 45.7405 58.3922V55.8984L45.7249 55.857Z" fill="#5C5C5C" fill-opacity="0.25"/>
<path d="M65.4844 65.8463C70.9557 65.8463 75.411 61.9333 75.411 57.1246C75.411 52.316 70.9557 48.403 65.4844 48.403C60.013 48.403 55.589 52.316 55.589 57.1246C55.589 61.9333 60.0286 65.8463 65.4844 65.8463ZM65.4844 51.8338C68.7984 51.8338 71.5029 54.2037 71.5029 57.1109C71.5029 60.0181 68.7984 62.3879 65.4844 62.3879C62.1703 62.3879 59.4971 60.0181 59.4971 57.1109C59.4971 54.2037 62.1859 51.8338 65.4844 51.8338Z" fill="#5C5C5C" fill-opacity="0.25"/>
</svg>
