<svg width="119" height="128" viewBox="0 0 119 128" fill="none" xmlns="http://www.w3.org/2000/svg">
<path d="M20.6191 56.6975C20.6191 70.0762 27.6909 82.1873 39.5199 89.0764C44.6889 92.0939 48.0828 97.3985 48.7076 103.227H47.2308C43.8795 103.227 41.153 105.872 41.153 109.124V112.623C41.153 115.875 43.8795 118.521 47.2308 118.521H48.097C48.9491 123.88 53.7346 128 59.5142 128C65.2938 128 70.051 123.88 70.903 118.521H71.7692C75.1205 118.521 77.847 115.875 77.847 112.623V109.124C77.847 105.872 75.1205 103.227 71.7692 103.227H70.3066C70.9456 97.3985 74.4531 92.1076 79.9345 88.8146C92.8995 81.0161 99.872 67.0037 98.1253 52.2609C96.0946 34.9968 81.7096 21.0945 63.9306 19.1931C52.698 17.9944 41.9198 21.315 33.5699 28.5761C25.3337 35.727 20.6191 45.978 20.6191 56.6975ZM59.5284 124.569C55.7085 124.569 52.5134 121.979 51.7181 118.534H67.3103C66.5008 121.979 63.3199 124.569 59.5284 124.569ZM74.3111 109.138V112.637C74.3111 113.988 73.1751 115.09 71.7834 115.09H47.245C45.8534 115.09 44.7173 113.988 44.7173 112.637V109.138C44.7173 107.787 45.8534 106.685 47.245 106.685H71.7834C73.1751 106.685 74.3111 107.787 74.3111 109.138ZM35.9414 31.1389C43.5245 24.5528 53.337 21.5216 63.5329 22.6239C79.6931 24.3462 92.7575 36.9808 94.5894 52.6605C96.1798 66.0667 89.8464 78.7978 78.06 85.8936C71.5278 89.8204 67.3813 96.1998 66.7281 103.227H52.272C51.6471 96.1998 47.5716 89.7653 41.3376 86.1279C30.5736 79.8588 24.155 68.8499 24.155 56.6975C24.155 46.9563 28.4436 37.6422 35.9272 31.1389H35.9414Z" fill="#5C5C5C" fill-opacity="0.25"/>
<path d="M61.275 6.79268V1.72228C61.275 0.771582 60.4798 0 59.5 0C58.5201 0 57.7249 0.771582 57.7249 1.72228V6.79268C57.7249 7.74338 58.5201 8.51496 59.5 8.51496C60.4798 8.51496 61.275 7.74338 61.275 6.79268Z" fill="#5C5C5C" fill-opacity="0.25"/>
<path d="M97.8696 22.927L101.562 19.3447C102.258 18.6696 102.258 17.5811 101.562 16.9059C100.866 16.2308 99.7441 16.2308 99.0483 16.9059L95.3562 20.4883C94.6603 21.1634 94.6603 22.2519 95.3562 22.927C95.697 23.2577 96.1514 23.4368 96.6058 23.4368C97.0602 23.4368 97.5146 23.2715 97.8554 22.927H97.8696Z" fill="#5C5C5C" fill-opacity="0.25"/>
<path d="M110.224 57.7309C110.224 58.6816 111.019 59.4532 111.999 59.4532H117.225C118.205 59.4532 119 58.6816 119 57.7309C119 56.7802 118.205 56.0086 117.225 56.0086H111.999C111.019 56.0086 110.224 56.7802 110.224 57.7309Z" fill="#5C5C5C" fill-opacity="0.25"/>
<path d="M1.77506 59.4532H7.00083C7.98067 59.4532 8.77589 58.6816 8.77589 57.7309C8.77589 56.7802 7.98067 56.0086 7.00083 56.0086H1.77506C0.795227 56.0086 0 56.7802 0 57.7309C0 58.6816 0.795227 59.4532 1.77506 59.4532Z" fill="#5C5C5C" fill-opacity="0.25"/>
<path d="M19.9375 16.9059C19.2417 16.2308 18.1198 16.2308 17.424 16.9059C16.7282 17.5811 16.7282 18.6696 17.424 19.3447L21.1303 22.927C21.4711 23.2577 21.9255 23.4368 22.38 23.4368C22.8344 23.4368 23.2888 23.2715 23.6296 22.927C24.3254 22.2519 24.3254 21.1634 23.6296 20.4883L19.9233 16.9059H19.9375Z" fill="#5C5C5C" fill-opacity="0.25"/>
<path d="M41.7636 62.0297H44.0498C44.3054 62.7737 44.6179 63.504 44.9871 64.2204L43.3682 65.7911C42.6582 66.4801 42.2606 67.4032 42.2606 68.3952C42.2606 69.3873 42.6582 70.2966 43.3682 70.9993L45.2001 72.7629C46.6343 74.1408 49.1052 74.1408 50.5395 72.7629L52.1583 71.1922C52.8967 71.5642 53.6494 71.8674 54.4304 72.1154V74.3199C54.4304 76.3453 56.1202 77.9987 58.2077 77.9987H60.7922C62.8655 77.9987 64.5695 76.3453 64.5695 74.3199V72.1016C65.3506 71.8536 66.1032 71.5505 66.8274 71.1922L68.4605 72.7629C69.8947 74.1408 72.3798 74.1408 73.7856 72.7629L75.6317 70.9855C77.1085 69.5526 77.1085 67.2241 75.6317 65.7911L74.0128 64.2204C74.3821 63.5177 74.6945 62.7875 74.9501 62.0297H77.2506C79.338 62.0297 81.0421 60.3763 81.0421 58.3509V55.857C81.0421 53.8316 79.338 52.1782 77.2506 52.1782H74.9501C74.6945 51.4204 74.3821 50.704 74.0128 50.0013L75.6459 48.4168C77.1228 46.9838 77.1228 44.6553 75.6459 43.2224L73.814 41.4587C72.3372 40.0258 69.9515 40.0258 68.4747 41.4587L66.8416 43.0432C66.1174 42.685 65.3648 42.3819 64.5837 42.1339V39.9156C64.5837 37.8902 62.8939 36.2368 60.8064 36.2368H58.2219C56.1486 36.2368 54.4446 37.8902 54.4446 39.9156V42.1201C53.6778 42.3681 52.9251 42.6712 52.1867 43.0295L50.5537 41.4587C49.0768 40.0258 46.6911 40.0258 45.2285 41.4587L43.3824 43.2361C42.6724 43.9251 42.2748 44.8482 42.2748 45.8402C42.2748 46.8323 42.6724 47.7416 43.3824 48.4443L45.0013 50.015C44.6321 50.7177 44.3197 51.448 44.064 52.2058H41.7636C39.6903 52.2058 37.9862 53.8592 37.9862 55.8846V58.3784C37.9862 60.4038 39.6761 62.0572 41.7636 62.0572V62.0297ZM41.5364 55.857C41.5364 55.733 41.6358 55.6228 41.7636 55.6228H45.4131C46.2367 55.6228 46.9467 55.0717 47.1455 54.3001C47.4722 52.9774 47.9976 51.7373 48.7218 50.6213C49.162 49.9324 49.0626 49.0506 48.4804 48.4719L45.8959 45.978C45.8107 45.8953 45.8107 45.73 45.8959 45.6611L47.742 43.8837C47.8272 43.801 47.9692 43.801 48.0686 43.8837L50.6531 46.3776C51.2353 46.9425 52.1441 47.0389 52.8399 46.6118C54.0328 45.8953 55.2966 45.3855 56.6315 45.0962C57.4409 44.9171 58.0089 44.2144 58.0089 43.4153V39.9018C58.0089 39.7778 58.1083 39.6676 58.2361 39.6676H60.8206C60.9484 39.6676 61.0478 39.764 61.0478 39.9018V43.4153C61.0478 44.2144 61.6158 44.9033 62.4111 45.0962C63.7743 45.4131 65.0523 45.9229 66.1884 46.6256C66.8842 47.0527 67.8072 46.9563 68.3895 46.3914L70.9739 43.8837C71.0591 43.801 71.2012 43.801 71.3006 43.8837L73.1324 45.6473C73.2176 45.73 73.2176 45.8816 73.1324 45.978L70.5479 48.4857C69.9657 49.0506 69.8521 49.9462 70.3065 50.6213C71.0307 51.7235 71.5562 52.9636 71.8828 54.2863C72.0674 55.0579 72.7916 55.609 73.6152 55.609H77.2506C77.3784 55.609 77.492 55.7192 77.492 55.8432V58.3371C77.492 58.4611 77.3784 58.5713 77.2506 58.5713H73.6152C72.7916 58.5713 72.0816 59.1225 71.8828 59.8941C71.5562 61.2168 71.0307 62.4568 70.3065 63.5728C69.8663 64.2618 69.9657 65.1436 70.5479 65.7223L73.1324 68.2161C73.2176 68.2988 73.2176 68.4503 73.1324 68.533L71.2864 70.3104C71.2154 70.3793 71.045 70.3793 70.9597 70.3104L68.3753 67.8165C67.793 67.2516 66.87 67.1552 66.1742 67.5823C65.0381 68.285 63.7601 68.7948 62.3969 69.1117C61.5874 69.2908 61.0336 69.9935 61.0336 70.7927V74.3061C61.0336 74.4301 60.9342 74.5403 60.8064 74.5403H58.2219C58.0941 74.5403 57.9947 74.4439 57.9947 74.3061V70.7927C57.9947 69.9935 57.4125 69.2908 56.6031 69.1117C55.2824 68.8224 54.0186 68.3126 52.8115 67.5823C52.5133 67.4032 52.2009 67.3205 51.8743 67.3205C51.4199 67.3205 50.9655 67.4859 50.6247 67.8303L48.0544 70.3242C47.9834 70.3931 47.813 70.3931 47.7278 70.3242L45.8959 68.5606C45.8107 68.4779 45.8107 68.3126 45.8959 68.2437L48.4662 65.7498C49.0484 65.1849 49.1478 64.3031 48.7218 63.628C47.9834 62.4706 47.4438 61.2305 47.1313 59.9492C46.9467 59.1776 46.2225 58.6265 45.3989 58.6265H41.7778C41.65 58.6265 41.5506 58.53 41.5506 58.3922V55.8984L41.5364 55.857Z" fill="#5C5C5C" fill-opacity="0.25"/>
<path d="M59.4858 65.8463C64.456 65.8463 68.5031 61.9333 68.5031 57.1246C68.5031 52.316 64.456 48.403 59.4858 48.403C54.5156 48.403 50.4969 52.316 50.4969 57.1246C50.4969 61.9333 54.5298 65.8463 59.4858 65.8463ZM59.4858 51.8338C62.4963 51.8338 64.953 54.2037 64.953 57.1109C64.953 60.0181 62.4963 62.3879 59.4858 62.3879C56.4753 62.3879 54.047 60.0181 54.047 57.1109C54.047 54.2037 56.4895 51.8338 59.4858 51.8338Z" fill="#5C5C5C" fill-opacity="0.25"/>
</svg>
