<svg width="245" height="258" viewBox="0 0 245 258" fill="none" xmlns="http://www.w3.org/2000/svg">
<path d="M42.4511 114.281C42.4511 141.247 57.0108 165.659 81.3646 179.545C92.0066 185.627 98.9941 196.319 100.28 208.066H97.2399C90.3401 208.066 84.7268 213.398 84.7268 219.953V227.007C84.7268 233.561 90.3401 238.893 97.2399 238.893H99.0233C100.777 249.696 110.63 258 122.529 258C134.428 258 144.223 249.696 145.977 238.893H147.76C154.66 238.893 160.273 233.561 160.273 227.007V219.953C160.273 213.398 154.66 208.066 147.76 208.066H144.749C146.064 196.319 153.286 185.654 164.571 179.017C191.264 163.298 205.619 135.054 202.023 105.338C197.842 70.5404 168.226 42.5186 131.622 38.6861C108.496 36.27 86.3055 42.963 69.1146 57.5987C52.1576 72.0123 42.4511 92.6745 42.4511 114.281ZM122.559 251.085C114.694 251.085 108.116 245.864 106.479 238.921H138.58C136.914 245.864 130.365 251.085 122.559 251.085ZM152.993 219.98V227.034C152.993 229.756 150.655 231.978 147.789 231.978H97.2691C94.404 231.978 92.0651 229.756 92.0651 227.034V219.98C92.0651 217.259 94.404 215.037 97.2691 215.037H147.789C150.655 215.037 152.993 217.259 152.993 219.98ZM73.997 62.7643C89.6092 49.4893 109.811 43.3795 130.803 45.6013C164.074 49.0728 190.971 74.5395 194.743 106.144C198.017 133.166 184.978 158.827 160.712 173.129C147.263 181.044 138.726 193.903 137.381 208.066H107.619C106.332 193.903 97.9416 180.933 85.1068 173.601C62.9457 160.965 49.7309 138.776 49.7309 114.281C49.7309 94.6463 58.5603 75.8725 73.9678 62.7643H73.997Z" fill="#5C5C5C" fill-opacity="0.45"/>
<path d="M126.154 13.6915V3.47147C126.154 1.55522 124.517 0 122.5 0C120.483 0 118.845 1.55522 118.845 3.47147V13.6915C118.845 15.6078 120.483 17.163 122.5 17.163C124.517 17.163 126.154 15.6078 126.154 13.6915Z" fill="#5C5C5C" fill-opacity="0.45"/>
<path d="M201.496 46.2123L209.098 38.9917C210.53 37.6309 210.53 35.4369 209.098 34.0761C207.665 32.7152 205.355 32.7152 203.923 34.0761L196.321 41.2967C194.889 42.6575 194.889 44.8515 196.321 46.2123C197.023 46.8789 197.959 47.2399 198.894 47.2399C199.83 47.2399 200.765 46.9066 201.467 46.2123H201.496Z" fill="#5C5C5C" fill-opacity="0.45"/>
<path d="M226.932 116.364C226.932 118.28 228.569 119.835 230.587 119.835H241.345C243.363 119.835 245 118.28 245 116.364C245 114.448 243.363 112.892 241.345 112.892H230.587C228.569 112.892 226.932 114.448 226.932 116.364Z" fill="#5C5C5C" fill-opacity="0.45"/>
<path d="M3.65453 119.835H14.4135C16.4308 119.835 18.068 118.28 18.068 116.364C18.068 114.448 16.4308 112.892 14.4135 112.892H3.65453C1.63723 112.892 0 114.448 0 116.364C0 118.28 1.63723 119.835 3.65453 119.835Z" fill="#5C5C5C" fill-opacity="0.45"/>
<path d="M41.0477 34.0761C39.6152 32.7152 37.3055 32.7152 35.8729 34.0761C34.4403 35.4369 34.4403 37.6309 35.8729 38.9917L43.5036 46.2123C44.2053 46.8789 45.1408 47.2399 46.0764 47.2399C47.0119 47.2399 47.9475 46.9066 48.6492 46.2123C50.0818 44.8515 50.0818 42.6575 48.6492 41.2967L41.0185 34.0761H41.0477Z" fill="#5C5C5C" fill-opacity="0.45"/>
<path d="M85.9838 125.029H90.6908C91.2171 126.528 91.8603 128 92.6204 129.444L89.2875 132.61C87.8257 133.999 87.0071 135.86 87.0071 137.859C87.0071 139.859 87.8257 141.692 89.2875 143.108L93.059 146.663C96.0118 149.44 101.099 149.44 104.052 146.663L107.385 143.497C108.905 144.247 110.455 144.858 112.063 145.358V149.801C112.063 153.883 115.542 157.216 119.839 157.216H125.16C129.429 157.216 132.937 153.883 132.937 149.801V145.33C134.545 144.83 136.095 144.219 137.586 143.497L140.948 146.663C143.901 149.44 149.017 149.44 151.912 146.663L155.712 143.08C158.753 140.192 158.753 135.499 155.712 132.61L152.379 129.444C153.14 128.028 153.783 126.556 154.309 125.029H159.045C163.343 125.029 166.851 121.696 166.851 117.613V112.587C166.851 108.504 163.343 105.172 159.045 105.172H154.309C153.783 103.644 153.14 102.2 152.379 100.784L155.742 97.59C158.782 94.7018 158.782 90.0083 155.742 87.1201L151.97 83.5653C148.929 80.677 144.018 80.677 140.977 83.5653L137.615 86.759C136.124 86.037 134.574 85.426 132.966 84.9261V80.4548C132.966 76.3724 129.487 73.0398 125.19 73.0398H119.869C115.6 73.0398 112.092 76.3724 112.092 80.4548V84.8983C110.513 85.3982 108.964 86.0092 107.443 86.7313L104.081 83.5653C101.04 80.677 96.1288 80.677 93.1174 83.5653L89.3167 87.1478C87.8549 88.5364 87.0363 90.3971 87.0363 92.3967C87.0363 94.3963 87.8549 96.2292 89.3167 97.6456L92.6497 100.812C91.8895 102.228 91.2463 103.7 90.7201 105.227H85.9838C81.7153 105.227 78.2069 108.56 78.2069 112.642V117.669C78.2069 121.751 81.6861 125.084 85.9838 125.084V125.029ZM85.516 112.587C85.516 112.337 85.7207 112.115 85.9838 112.115H93.4975C95.1932 112.115 96.655 111.004 97.0643 109.449C97.7368 106.782 98.8185 104.283 100.31 102.034C101.216 100.645 101.011 98.8675 99.8125 97.7011L94.4915 92.6744C94.3161 92.5078 94.3161 92.1745 94.4915 92.0357L98.2923 88.4531C98.4677 88.2865 98.76 88.2865 98.9647 88.4531L104.286 93.4798C105.484 94.6185 107.356 94.8129 108.788 93.9519C111.244 92.5078 113.846 91.4802 116.594 90.897C118.261 90.536 119.43 89.1196 119.43 87.5089V80.4271C119.43 80.1771 119.635 79.9549 119.898 79.9549H125.219C125.482 79.9549 125.687 80.1493 125.687 80.4271V87.5089C125.687 89.1196 126.856 90.5082 128.493 90.897C131.3 91.5358 133.931 92.5633 136.27 93.9797C137.703 94.8406 139.603 94.6462 140.802 93.5076L146.123 88.4531C146.298 88.2865 146.591 88.2865 146.795 88.4531L150.567 92.0079C150.742 92.1745 150.742 92.48 150.567 92.6744L145.246 97.7289C144.047 98.8675 143.813 100.673 144.749 102.034C146.24 104.255 147.321 106.755 147.994 109.421C148.374 110.976 149.865 112.087 151.561 112.087H159.045C159.308 112.087 159.542 112.309 159.542 112.559V117.586C159.542 117.836 159.308 118.058 159.045 118.058H151.561C149.865 118.058 148.403 119.169 147.994 120.724C147.321 123.39 146.24 125.889 144.749 128.139C143.842 129.528 144.047 131.305 145.246 132.471L150.567 137.498C150.742 137.665 150.742 137.97 150.567 138.137L146.766 141.719C146.62 141.858 146.269 141.858 146.094 141.719L140.773 136.693C139.574 135.554 137.674 135.36 136.241 136.221C133.902 137.637 131.271 138.665 128.464 139.303C126.798 139.664 125.657 141.081 125.657 142.691V149.773C125.657 150.023 125.453 150.245 125.19 150.245H119.869C119.606 150.245 119.401 150.051 119.401 149.773V142.691C119.401 141.081 118.202 139.664 116.536 139.303C113.817 138.72 111.215 137.693 108.73 136.221C108.116 135.86 107.472 135.693 106.8 135.693C105.864 135.693 104.929 136.026 104.227 136.72L98.9355 141.747C98.7893 141.886 98.4384 141.886 98.263 141.747L94.4915 138.192C94.3161 138.026 94.3161 137.693 94.4915 137.554L99.7833 132.527C100.982 131.388 101.187 129.611 100.31 128.25C98.7893 125.917 97.6783 123.418 97.0351 120.835C96.655 119.28 95.164 118.169 93.4683 118.169H86.013C85.7499 118.169 85.5452 117.975 85.5452 117.697V112.67L85.516 112.587Z" fill="#5C5C5C" fill-opacity="0.45"/>
<path d="M122.471 132.721C132.703 132.721 141.036 124.834 141.036 115.142C141.036 105.45 132.703 97.5623 122.471 97.5623C112.238 97.5623 103.964 105.45 103.964 115.142C103.964 124.834 112.267 132.721 122.471 132.721ZM122.471 104.477C128.669 104.477 133.727 109.254 133.727 115.114C133.727 120.974 128.669 125.751 122.471 125.751C116.273 125.751 111.273 120.974 111.273 115.114C111.273 109.254 116.302 104.477 122.471 104.477Z" fill="#5C5C5C" fill-opacity="0.45"/>
</svg>
