<svg width="237" height="272" viewBox="0 0 237 272" fill="none" xmlns="http://www.w3.org/2000/svg">
<path d="M41.0649 120.482C41.0649 148.912 55.1492 174.648 78.7078 189.287C89.0023 195.699 95.7616 206.972 97.006 219.357H94.0647C87.3902 219.357 81.9602 224.978 81.9602 231.888V239.325C81.9602 246.235 87.3902 251.856 94.0647 251.856H95.7899C97.4868 263.246 107.018 272 118.528 272C130.039 272 139.513 263.246 141.21 251.856H142.935C149.61 251.856 155.04 246.235 155.04 239.325V231.888C155.04 224.978 149.61 219.357 142.935 219.357H140.022C141.295 206.972 148.281 195.729 159.197 188.731C185.018 172.159 198.905 142.383 195.426 111.054C191.382 74.3681 162.732 44.8258 127.324 40.7854C104.953 38.2381 83.4874 45.2943 66.8578 60.7242C50.4544 75.9199 41.0649 97.7033 41.0649 120.482ZM118.557 264.71C110.949 264.71 104.585 259.205 103.002 251.885H134.055C132.443 259.205 126.108 264.71 118.557 264.71ZM147.998 231.917V239.354C147.998 242.223 145.735 244.566 142.964 244.566H94.093C91.3214 244.566 89.0589 242.223 89.0589 239.354V231.917C89.0589 229.048 91.3214 226.706 94.093 226.706H142.964C145.735 226.706 147.998 229.048 147.998 231.917ZM71.5808 66.1701C86.6832 52.1748 106.226 45.7335 126.532 48.0758C158.716 51.7356 184.736 78.5843 188.384 111.904C191.551 140.392 178.938 167.445 155.464 182.524C142.455 190.868 134.196 204.425 132.895 219.357H104.105C102.86 204.425 94.7435 190.751 82.3278 183.022C60.8904 169.7 48.1071 146.306 48.1071 120.482C48.1071 99.7821 56.6481 79.9897 71.5525 66.1701H71.5808Z" fill="#5C5C5C" fill-opacity="0.25"/>
<path d="M122.035 14.4344V3.65985C122.035 1.63961 120.451 0 118.5 0C116.549 0 114.965 1.63961 114.965 3.65985V14.4344C114.965 16.4547 116.549 18.0943 118.5 18.0943C120.451 18.0943 122.035 16.4547 122.035 14.4344Z" fill="#5C5C5C" fill-opacity="0.25"/>
<path d="M194.917 48.72L202.27 41.1075C203.656 39.6728 203.656 37.3598 202.27 35.9251C200.884 34.4905 198.65 34.4905 197.264 35.9251L189.911 43.5376C188.525 44.9723 188.525 47.2853 189.911 48.72C190.59 49.4227 191.495 49.8033 192.4 49.8033C193.305 49.8033 194.21 49.4519 194.889 48.72H194.917Z" fill="#5C5C5C" fill-opacity="0.25"/>
<path d="M219.522 122.678C219.522 124.698 221.106 126.338 223.057 126.338H233.465C235.416 126.338 237 124.698 237 122.678C237 120.658 235.416 119.018 233.465 119.018H223.057C221.106 119.018 219.522 120.658 219.522 122.678Z" fill="#5C5C5C" fill-opacity="0.25"/>
<path d="M3.5352 126.338H13.9428C15.8943 126.338 17.478 124.698 17.478 122.678C17.478 120.658 15.8943 119.018 13.9428 119.018H3.5352C1.58377 119.018 0 120.658 0 122.678C0 124.698 1.58377 126.338 3.5352 126.338Z" fill="#5C5C5C" fill-opacity="0.25"/>
<path d="M39.7074 35.9251C38.3216 34.4905 36.0874 34.4905 34.7016 35.9251C33.3158 37.3598 33.3158 39.6728 34.7016 41.1075L42.0831 48.72C42.7618 49.4227 43.6669 49.8033 44.5719 49.8033C45.4769 49.8033 46.3819 49.4519 47.0606 48.72C48.4464 47.2853 48.4464 44.9723 47.0606 43.5376L39.6791 35.9251H39.7074Z" fill="#5C5C5C" fill-opacity="0.25"/>
<path d="M83.1762 131.813H87.7295C88.2386 133.394 88.8608 134.946 89.5961 136.468L86.372 139.806C84.9579 141.27 84.166 143.232 84.166 145.34C84.166 147.448 84.9579 149.38 86.372 150.874L90.0203 154.621C92.8768 157.549 97.7978 157.549 100.654 154.621L103.878 151.283C105.349 152.074 106.848 152.718 108.403 153.245V157.93C108.403 162.234 111.769 165.747 115.926 165.747H121.074C125.203 165.747 128.596 162.234 128.596 157.93V153.216C130.152 152.689 131.651 152.045 133.093 151.283L136.346 154.621C139.202 157.549 144.151 157.549 146.951 154.621L150.628 150.844C153.569 147.799 153.569 142.851 150.628 139.806L147.404 136.468C148.139 134.975 148.761 133.423 149.27 131.813H153.852C158.009 131.813 161.403 128.3 161.403 123.996V118.696C161.403 114.392 158.009 110.879 153.852 110.879H149.27C148.761 109.268 148.139 107.746 147.404 106.253L150.656 102.886C153.597 99.8406 153.597 94.8925 150.656 91.8475L147.008 88.0998C144.067 85.0548 139.315 85.0548 136.374 88.0998L133.122 91.4669C131.679 90.7057 130.18 90.0615 128.625 89.5345V84.8206C128.625 80.5166 125.259 77.0032 121.102 77.0032H115.955C111.825 77.0032 108.432 80.5166 108.432 84.8206V89.5052C106.904 90.0322 105.406 90.6764 103.935 91.4376L100.682 88.0998C97.7412 85.0548 92.9899 85.0548 90.0769 88.0998L86.4003 91.8768C84.9862 93.3407 84.1943 95.3024 84.1943 97.4105C84.1943 99.5186 84.9862 101.451 86.4003 102.944L89.6244 106.282C88.8891 107.775 88.2669 109.327 87.7578 110.937H83.1762C79.0471 110.937 75.6533 114.451 75.6533 118.755V124.054C75.6533 128.358 79.0188 131.872 83.1762 131.872V131.813ZM82.7237 118.696C82.7237 118.433 82.9216 118.198 83.1762 118.198H90.4445C92.0849 118.198 93.499 117.027 93.8949 115.388C94.5454 112.577 95.5918 109.942 97.0342 107.57C97.9109 106.106 97.7129 104.232 96.5534 103.003L91.4061 97.7033C91.2364 97.5276 91.2364 97.1763 91.4061 97.0299L95.0827 93.2529C95.2524 93.0772 95.5352 93.0772 95.7332 93.2529L100.88 98.5524C102.04 99.7528 103.85 99.9578 105.236 99.0501C107.611 97.5276 110.129 96.4443 112.787 95.8294C114.399 95.4488 115.53 93.9556 115.53 92.2574V84.7913C115.53 84.5278 115.728 84.2936 115.983 84.2936H121.13C121.385 84.2936 121.583 84.4985 121.583 84.7913V92.2574C121.583 93.9556 122.714 95.4195 124.298 95.8294C127.013 96.5029 129.558 97.5862 131.821 99.0794C133.206 99.987 135.045 99.7821 136.204 98.5816L141.351 93.2529C141.521 93.0772 141.804 93.0772 142.002 93.2529L145.65 97.0006C145.82 97.1763 145.82 97.4983 145.65 97.7033L140.503 103.032C139.343 104.232 139.117 106.136 140.022 107.57C141.465 109.913 142.511 112.548 143.161 115.358C143.529 116.998 144.972 118.169 146.612 118.169H153.852C154.106 118.169 154.333 118.403 154.333 118.667V123.966C154.333 124.23 154.106 124.464 153.852 124.464H146.612C144.972 124.464 143.557 125.635 143.161 127.275C142.511 130.086 141.465 132.721 140.022 135.092C139.145 136.556 139.343 138.43 140.503 139.66L145.65 144.959C145.82 145.135 145.82 145.457 145.65 145.633L141.974 149.41C141.832 149.556 141.493 149.556 141.323 149.41L136.176 144.11C135.016 142.91 133.178 142.705 131.792 143.612C129.53 145.106 126.984 146.189 124.269 146.862C122.657 147.243 121.554 148.736 121.554 150.434V157.9C121.554 158.164 121.356 158.398 121.102 158.398H115.955C115.7 158.398 115.502 158.193 115.502 157.9V150.434C115.502 148.736 114.343 147.243 112.73 146.862C110.1 146.248 107.583 145.164 105.179 143.612C104.585 143.232 103.963 143.056 103.313 143.056C102.408 143.056 101.503 143.407 100.824 144.139L95.7049 149.439C95.5635 149.585 95.2241 149.585 95.0545 149.439L91.4061 145.691C91.2364 145.516 91.2364 145.164 91.4061 145.018L96.5251 139.718C97.6846 138.518 97.8826 136.644 97.0342 135.209C95.5635 132.75 94.4888 130.115 93.8666 127.392C93.499 125.752 92.0566 124.581 90.4163 124.581H83.2045C82.9499 124.581 82.7519 124.376 82.7519 124.083V118.784L82.7237 118.696Z" fill="#5C5C5C" fill-opacity="0.25"/>
<path d="M118.472 139.923C128.37 139.923 136.431 131.608 136.431 121.39C136.431 111.172 128.37 102.856 118.472 102.856C108.573 102.856 100.569 111.172 100.569 121.39C100.569 131.608 108.601 139.923 118.472 139.923ZM118.472 110.147C124.467 110.147 129.36 115.183 129.36 121.361C129.36 127.538 124.467 132.574 118.472 132.574C112.476 132.574 107.64 127.538 107.64 121.361C107.64 115.183 112.504 110.147 118.472 110.147Z" fill="#5C5C5C" fill-opacity="0.25"/>
</svg>
