<svg width="25" height="20" viewBox="0 0 25 20" fill="none" xmlns="http://www.w3.org/2000/svg">
<path d="M23.4976 0H1.1032C0.4956 0 0 0.3472 0 0.77376V1.59712C0 2.02368 0.4956 2.37088 1.1032 2.37088H1.414V15.381C1.414 15.9563 1.9096 16.4275 2.5172 16.4275H12.04V17.36C11.522 17.4666 11.1328 17.8783 11.1328 18.3694C11.1328 18.9398 11.6564 19.406 12.3032 19.406C12.95 19.406 13.4736 18.9422 13.4736 18.3694C13.4736 17.8783 13.0844 17.4666 12.5664 17.36V16.4275H22.0892C22.6968 16.4275 23.1924 15.9588 23.1924 15.381V2.3684H23.5032C24.1108 2.3684 24.6064 2.0212 24.6064 1.59464V0.77376C24.598 0.3472 24.1052 0 23.4976 0ZM12.9472 18.3669C12.9472 18.6818 12.656 18.9398 12.3004 18.9398C11.9448 18.9398 11.6536 18.6818 11.6536 18.3669C11.6536 18.0519 11.9448 17.794 12.3004 17.794C12.656 17.7965 12.9472 18.0519 12.9472 18.3669ZM22.6632 15.381C22.6632 15.7009 22.4028 15.9638 22.0836 15.9638H2.5172C2.198 15.9638 1.9376 15.7034 1.9376 15.381V2.3684H22.6632V15.381ZM24.0772 1.59712C24.0772 1.74344 23.8392 1.90712 23.4976 1.90712H1.1032C0.7616 1.90712 0.5236 1.74344 0.5236 1.59712V0.77376C0.5236 0.62744 0.7616 0.46376 1.1032 0.46376H23.4976C23.8392 0.46376 24.0772 0.62744 24.0772 0.77376V1.59712ZM5.4012 14.0368C6.2412 14.0368 6.9244 13.4317 6.9244 12.6877C6.9244 12.4124 6.832 12.1594 6.6724 11.9462C8.9208 9.40416 10.164 9.35456 11.5976 9.29752C12.8996 9.24544 14.3668 9.1884 16.688 7.30856V8.37744C16.688 8.5064 16.8056 8.60808 16.9484 8.60808C17.0912 8.60808 17.2088 8.50392 17.2088 8.37744V6.7704C17.2088 6.64144 17.0912 6.53976 16.9484 6.53976H15.134C14.9884 6.53976 14.8736 6.64392 14.8736 6.7704C14.8736 6.89936 14.9912 7.00104 15.134 7.00104H16.2904C14.14 8.73456 12.8352 8.78416 11.5752 8.83376C10.0856 8.89328 8.6772 8.94784 6.3084 11.6039C6.0536 11.4378 5.74 11.3386 5.4012 11.3386C4.5612 11.3386 3.878 11.9437 3.878 12.6877C3.878 13.4317 4.5612 14.0368 5.4012 14.0368ZM5.4012 11.8023C5.9528 11.8023 6.4008 12.1991 6.4008 12.6877C6.4008 13.1762 5.9528 13.573 5.4012 13.573C4.8496 13.573 4.4016 13.1762 4.4016 12.6877C4.4016 12.1991 4.8496 11.8023 5.4012 11.8023ZM16.9736 12.2264L15.8984 13.1787L16.9736 14.131C17.0744 14.2203 17.0744 14.3691 16.9736 14.4584C16.9232 14.503 16.856 14.5254 16.7888 14.5254C16.7216 14.5254 16.6544 14.503 16.604 14.4584L15.5288 13.5061L14.4536 14.4584C14.4032 14.503 14.336 14.5254 14.2688 14.5254C14.2016 14.5254 14.1344 14.503 14.084 14.4584C13.9832 14.3691 13.9832 14.2203 14.084 14.131L15.1592 13.1787L14.084 12.2264C13.9832 12.1371 13.9832 11.9883 14.084 11.899C14.1876 11.8098 14.3528 11.8098 14.4536 11.899L15.5288 12.8514L16.604 11.899C16.7076 11.8098 16.8728 11.8098 16.9736 11.899C17.0772 11.9883 17.0772 12.1346 16.9736 12.2264ZM18.7824 6.7828C19.6224 6.7828 20.3056 6.17768 20.3056 5.43368C20.3056 4.68968 19.6224 4.08456 18.7824 4.08456C17.9424 4.08456 17.2592 4.68968 17.2592 5.43368C17.2592 6.17768 17.9424 6.7828 18.7824 6.7828ZM18.7824 4.54832C19.334 4.54832 19.782 4.94512 19.782 5.43368C19.782 5.92224 19.334 6.31904 18.7824 6.31904C18.2308 6.31904 17.7828 5.92224 17.7828 5.43368C17.7828 4.94512 18.2308 4.54832 18.7824 4.54832ZM11.8412 11.1526L10.766 12.1049L11.8412 13.0572C11.942 13.1465 11.942 13.2953 11.8412 13.3846C11.7908 13.4292 11.7236 13.4515 11.6564 13.4515C11.5892 13.4515 11.522 13.4292 11.4716 13.3846L10.3964 12.4322L9.3212 13.3846C9.2708 13.4292 9.2036 13.4515 9.1364 13.4515C9.0692 13.4515 9.002 13.4292 8.9516 13.3846C8.8508 13.2953 8.8508 13.1465 8.9516 13.0572L10.0268 12.1049L8.9516 11.1526C8.8508 11.0633 8.8508 10.9145 8.9516 10.8252C9.0552 10.7359 9.2204 10.7359 9.3212 10.8252L10.3964 11.7775L11.4716 10.8252C11.5752 10.7359 11.7404 10.7359 11.8412 10.8252C11.942 10.917 11.942 11.0633 11.8412 11.1526ZM4.4408 8.37744L5.516 7.42512L4.4408 6.4728C4.34 6.38352 4.34 6.23472 4.4408 6.14544C4.5444 6.05616 4.7096 6.05616 4.8104 6.14544L5.8856 7.09776L6.9608 6.14544C7.0644 6.05616 7.2296 6.05616 7.3304 6.14544C7.4312 6.23472 7.4312 6.38352 7.3304 6.4728L6.2552 7.42512L7.3304 8.37744C7.4312 8.46672 7.4312 8.61552 7.3304 8.7048C7.28 8.74944 7.2128 8.77176 7.1456 8.77176C7.0784 8.77176 7.0112 8.74944 6.9608 8.7048L5.8856 7.75248L4.8104 8.7048C4.76 8.74944 4.6928 8.77176 4.6256 8.77176C4.5584 8.77176 4.4912 8.74944 4.4408 8.7048C4.34 8.61304 4.34 8.46672 4.4408 8.37744ZM10.206 6.06856L11.2812 5.11624L10.206 4.16392C10.1052 4.07464 10.1052 3.92584 10.206 3.83656C10.3096 3.74728 10.4748 3.74728 10.5756 3.83656L11.6508 4.78888L12.726 3.83656C12.8296 3.74728 12.9948 3.74728 13.0956 3.83656C13.1964 3.92584 13.1964 4.07464 13.0956 4.16392L12.0204 5.11624L13.0956 6.06856C13.1964 6.15784 13.1964 6.30664 13.0956 6.39592C13.0452 6.44056 12.978 6.46288 12.9108 6.46288C12.8436 6.46288 12.7764 6.44056 12.726 6.39592L11.6508 5.4436L10.5756 6.39592C10.5252 6.44056 10.458 6.46288 10.3908 6.46288C10.3236 6.46288 10.2564 6.44056 10.206 6.39592C10.1052 6.30664 10.1052 6.15784 10.206 6.06856ZM19.4292 9.99192L20.5044 9.0396C20.608 8.95032 20.7732 8.95032 20.874 9.0396C20.9748 9.12888 20.9748 9.27768 20.874 9.36696L19.7988 10.3193L20.874 11.2716C20.9748 11.3609 20.9748 11.5097 20.874 11.599C20.8236 11.6436 20.7564 11.6659 20.6892 11.6659C20.622 11.6659 20.5548 11.6436 20.5044 11.599L19.4292 10.6466L18.354 11.599C18.3036 11.6436 18.2364 11.6659 18.1692 11.6659C18.102 11.6659 18.0348 11.6436 17.9844 11.599C17.8836 11.5097 17.8836 11.3609 17.9844 11.2716L19.0596 10.3193L17.9844 9.36696C17.8836 9.27768 17.8836 9.12888 17.9844 9.0396C18.088 8.95032 18.2532 8.95032 18.354 9.0396L19.4292 9.99192Z" fill="#5C5C5C" fill-opacity="0.15"/>
</svg>
