<svg width="266" height="278" viewBox="0 0 266 278" fill="none" xmlns="http://www.w3.org/2000/svg">
<path d="M46.0898 123.14C46.0898 152.197 61.8974 178.501 88.3387 193.463C99.8929 200.016 107.479 211.537 108.876 224.195H105.575C98.0836 224.195 91.9891 229.941 91.9891 237.003V244.604C91.9891 251.666 98.0836 257.412 105.575 257.412H107.511C109.416 269.052 120.113 278 133.032 278C145.951 278 156.585 269.052 158.489 257.412H160.425C167.917 257.412 174.011 251.666 174.011 244.604V237.003C174.011 229.941 167.917 224.195 160.425 224.195H157.156C158.584 211.537 166.425 200.046 178.677 192.894C207.658 175.957 223.243 145.524 219.339 113.504C214.8 76.0086 182.645 45.8146 142.904 41.685C117.796 39.0816 93.7031 46.2934 75.0387 62.0637C56.6282 77.5946 46.0898 99.8586 46.0898 123.14ZM133.064 270.549C124.525 270.549 117.383 264.923 115.605 257.442H150.458C148.649 264.923 141.539 270.549 133.064 270.549ZM166.107 237.033V244.634C166.107 247.567 163.568 249.961 160.457 249.961H105.606C102.496 249.961 99.9564 247.567 99.9564 244.634V237.033C99.9564 234.101 102.496 231.707 105.606 231.707H160.457C163.568 231.707 166.107 234.101 166.107 237.033ZM80.3397 67.6297C97.29 53.3257 119.224 46.7423 142.015 49.1363C178.138 52.8769 207.34 80.3178 211.435 114.372C214.99 143.489 200.833 171.139 174.487 186.55C159.886 195.079 150.617 208.934 149.157 224.195H116.843C115.447 208.934 106.337 194.959 92.4017 187.059C68.3411 173.443 53.9936 149.533 53.9936 123.14C53.9936 101.983 63.5798 81.7541 80.3079 67.6297H80.3397Z" fill="#BE8BF8" fill-opacity="0.1"/>
<path d="M136.968 14.7529V3.74058C136.968 1.67578 135.19 0 133 0C130.81 0 129.032 1.67578 129.032 3.74058V14.7529C129.032 16.8177 130.81 18.4934 133 18.4934C135.19 18.4934 136.968 16.8177 136.968 14.7529Z" fill="#BE8BF8" fill-opacity="0.1"/>
<path d="M218.767 49.7947L227.02 42.0143C228.576 40.548 228.576 38.1839 227.02 36.7176C225.465 35.2513 222.957 35.2513 221.402 36.7176L213.149 44.498C211.594 45.9643 211.594 48.3284 213.149 49.7947C213.911 50.5129 214.927 50.9019 215.942 50.9019C216.958 50.9019 217.974 50.5428 218.736 49.7947H218.767Z" fill="#BE8BF8" fill-opacity="0.1"/>
<path d="M246.383 125.384C246.383 127.449 248.161 129.125 250.351 129.125H262.032C264.222 129.125 266 127.449 266 125.384C266 123.319 264.222 121.644 262.032 121.644H250.351C248.161 121.644 246.383 123.319 246.383 125.384Z" fill="#BE8BF8" fill-opacity="0.1"/>
<path d="M3.96778 129.125H15.6489C17.8391 129.125 19.6167 127.449 19.6167 125.384C19.6167 123.319 17.8391 121.644 15.6489 121.644H3.96778C1.77757 121.644 0 123.319 0 125.384C0 127.449 1.77757 129.125 3.96778 129.125Z" fill="#BE8BF8" fill-opacity="0.1"/>
<path d="M44.5661 36.7176C43.0108 35.2513 40.5031 35.2513 38.9477 36.7176C37.3924 38.1839 37.3924 40.548 38.9477 42.0143L47.2325 49.7947C47.9943 50.5129 49.01 50.9019 50.0258 50.9019C51.0415 50.9019 52.0573 50.5428 52.8191 49.7947C54.3745 48.3284 54.3745 45.9643 52.8191 44.498L44.5344 36.7176H44.5661Z" fill="#BE8BF8" fill-opacity="0.1"/>
<path d="M93.3538 134.721H98.4643C99.0357 136.337 99.734 137.923 100.559 139.479L96.9407 142.89C95.3536 144.386 94.4648 146.391 94.4648 148.546C94.4648 150.7 95.3536 152.675 96.9407 154.202L101.035 158.032C104.241 161.024 109.765 161.024 112.971 158.032L116.589 154.621C118.24 155.429 119.922 156.087 121.668 156.626V161.413C121.668 165.812 125.445 169.403 130.111 169.403H135.888C140.523 169.403 144.332 165.812 144.332 161.413V156.596C146.078 156.057 147.76 155.399 149.379 154.621L153.029 158.032C156.235 161.024 161.79 161.024 164.933 158.032L169.059 154.172C172.36 151.06 172.36 146.002 169.059 142.89L165.44 139.479C166.266 137.953 166.964 136.367 167.535 134.721H172.678C177.344 134.721 181.153 131.13 181.153 126.731V121.314C181.153 116.916 177.344 113.325 172.678 113.325H167.535C166.964 111.679 166.266 110.123 165.44 108.596L169.091 105.155C172.392 102.043 172.392 96.9857 169.091 93.8736L164.996 90.0432C161.695 86.931 156.362 86.931 153.061 90.0432L149.411 93.4845C147.792 92.7065 146.109 92.0481 144.364 91.5095V86.6916C144.364 82.2927 140.586 78.7018 135.92 78.7018H130.143C125.509 78.7018 121.7 82.2927 121.7 86.6916V91.4796C119.986 92.0182 118.303 92.6766 116.653 93.4546L113.002 90.0432C109.701 86.931 104.368 86.931 101.099 90.0432L96.9724 93.9035C95.3853 95.3997 94.4966 97.4047 94.4966 99.5592C94.4966 101.714 95.3853 103.689 96.9724 105.215L100.591 108.626C99.7658 110.153 99.0674 111.739 98.4961 113.384H93.3538C88.7195 113.384 84.9104 116.975 84.9104 121.374V126.791C84.9104 131.19 88.6877 134.781 93.3538 134.781V134.721ZM92.846 121.314C92.846 121.045 93.0682 120.806 93.3538 120.806H101.512C103.353 120.806 104.94 119.609 105.384 117.933C106.114 115.06 107.289 112.367 108.908 109.943C109.892 108.447 109.669 106.532 108.368 105.275L102.591 99.8585C102.4 99.6789 102.4 99.3198 102.591 99.1702L106.717 95.3099C106.908 95.1304 107.225 95.1304 107.447 95.3099L113.224 100.726C114.526 101.953 116.557 102.163 118.113 101.235C120.779 99.6789 123.604 98.5717 126.588 97.9433C128.397 97.5543 129.667 96.0281 129.667 94.2925V86.6617C129.667 86.3924 129.889 86.153 130.175 86.153H135.952C136.238 86.153 136.46 86.3625 136.46 86.6617V94.2925C136.46 96.0281 137.729 97.5244 139.507 97.9433C142.554 98.6316 145.411 99.7388 147.95 101.265C149.506 102.193 151.569 101.983 152.871 100.756L158.648 95.3099C158.838 95.1304 159.156 95.1304 159.378 95.3099L163.472 99.1403C163.663 99.3198 163.663 99.649 163.472 99.8585L157.695 105.305C156.394 106.532 156.14 108.477 157.156 109.943C158.775 112.337 159.949 115.03 160.679 117.903C161.092 119.579 162.711 120.776 164.552 120.776H172.678C172.963 120.776 173.217 121.015 173.217 121.285V126.701C173.217 126.97 172.963 127.21 172.678 127.21H164.552C162.711 127.21 161.124 128.407 160.679 130.082C159.949 132.955 158.775 135.648 157.156 138.072C156.172 139.568 156.394 141.484 157.695 142.741L163.472 148.157C163.663 148.336 163.663 148.666 163.472 148.845L159.346 152.705C159.187 152.855 158.806 152.855 158.616 152.705L152.839 147.289C151.537 146.062 149.474 145.853 147.919 146.78C145.379 148.306 142.523 149.414 139.475 150.102C137.666 150.491 136.428 152.017 136.428 153.753V161.384C136.428 161.653 136.206 161.892 135.92 161.892H130.143C129.857 161.892 129.635 161.683 129.635 161.384V153.753C129.635 152.017 128.334 150.491 126.524 150.102C123.572 149.474 120.747 148.366 118.049 146.78C117.383 146.391 116.684 146.212 115.954 146.212C114.939 146.212 113.923 146.571 113.161 147.319L107.416 152.735C107.257 152.885 106.876 152.885 106.686 152.735L102.591 148.905C102.4 148.725 102.4 148.366 102.591 148.217L108.336 142.8C109.638 141.573 109.86 139.658 108.908 138.192C107.257 135.678 106.051 132.985 105.352 130.202C104.94 128.526 103.321 127.329 101.48 127.329H93.3856C93.0999 127.329 92.8777 127.12 92.8777 126.821V121.404L92.846 121.314Z" fill="#BE8BF8" fill-opacity="0.1"/>
<path d="M132.968 143.01C144.078 143.01 153.125 134.511 153.125 124.068C153.125 113.624 144.078 105.125 132.968 105.125C121.858 105.125 112.875 113.624 112.875 124.068C112.875 134.511 121.89 143.01 132.968 143.01ZM132.968 112.577C139.698 112.577 145.189 117.724 145.189 124.038C145.189 130.352 139.698 135.499 132.968 135.499C126.239 135.499 120.811 130.352 120.811 124.038C120.811 117.724 126.271 112.577 132.968 112.577Z" fill="#BE8BF8" fill-opacity="0.1"/>
</svg>
