<svg width="258" height="279" viewBox="0 0 258 279" fill="none" xmlns="http://www.w3.org/2000/svg">
<path d="M44.7036 123.583C44.7036 152.744 60.0358 179.143 85.6819 194.159C96.8885 200.736 104.247 212.298 105.601 225.002H102.4C95.1336 225.002 89.2224 230.768 89.2224 237.856V245.484C89.2224 252.572 95.1336 258.338 102.4 258.338H104.278C106.125 270.02 116.5 279 129.031 279C141.561 279 151.875 270.02 153.722 258.338H155.6C162.866 258.338 168.778 252.572 168.778 245.484V237.856C168.778 230.768 162.866 225.002 155.6 225.002H152.429C153.815 212.298 161.419 200.766 173.303 193.588C201.412 176.59 216.529 146.047 212.742 113.912C208.34 76.282 177.152 45.9794 138.606 41.835C114.253 39.2222 90.885 46.46 72.7819 62.287C54.9251 77.8737 44.7036 100.218 44.7036 123.583ZM129.062 271.522C120.78 271.522 113.852 265.876 112.128 258.368H145.933C144.178 265.876 137.282 271.522 129.062 271.522ZM161.111 237.886V245.514C161.111 248.457 158.648 250.86 155.631 250.86H102.43C99.4131 250.86 96.9501 248.457 96.9501 245.514V237.886C96.9501 234.943 99.4131 232.54 102.43 232.54H155.631C158.648 232.54 161.111 234.943 161.111 237.886ZM77.9234 67.873C94.364 53.5175 115.638 46.9104 137.744 49.313C172.78 53.0671 201.105 80.6067 205.076 114.783C208.524 144.005 194.793 171.755 169.239 187.221C155.077 195.781 146.087 209.685 144.671 225.002H113.329C111.974 209.685 103.138 195.66 89.6227 187.732C66.2857 174.067 52.3697 150.071 52.3697 123.583C52.3697 102.35 61.6675 82.0482 77.8926 67.873H77.9234Z" fill="#5C5C5C" fill-opacity="0.15"/>
<path d="M132.848 14.8059V3.75404C132.848 1.68181 131.124 0 129 0C126.876 0 125.152 1.68181 125.152 3.75404V14.8059C125.152 16.8781 126.876 18.56 129 18.56C131.124 18.56 132.848 16.8781 132.848 14.8059Z" fill="#5C5C5C" fill-opacity="0.15"/>
<path d="M212.188 49.9737L220.193 42.1653C221.701 40.6938 221.701 38.3212 220.193 36.8496C218.684 35.378 216.252 35.378 214.743 36.8496L206.739 44.658C205.23 46.1296 205.23 48.5022 206.739 49.9737C207.478 50.6945 208.463 51.0849 209.448 51.0849C210.433 51.0849 211.418 50.7245 212.157 49.9737H212.188Z" fill="#5C5C5C" fill-opacity="0.15"/>
<path d="M238.973 125.835C238.973 127.907 240.697 129.589 242.822 129.589H254.152C256.276 129.589 258 127.907 258 125.835C258 123.763 256.276 122.081 254.152 122.081H242.822C240.697 122.081 238.973 123.763 238.973 125.835Z" fill="#5C5C5C" fill-opacity="0.15"/>
<path d="M3.84845 129.589H15.1783C17.3026 129.589 19.0267 127.907 19.0267 125.835C19.0267 123.763 17.3026 122.081 15.1783 122.081H3.84845C1.7241 122.081 0 123.763 0 125.835C0 127.907 1.7241 129.589 3.84845 129.589Z" fill="#5C5C5C" fill-opacity="0.15"/>
<path d="M43.2258 36.8496C41.7172 35.378 39.285 35.378 37.7764 36.8496C36.2678 38.3212 36.2678 40.6938 37.7764 42.1653L45.8119 49.9737C46.5508 50.6945 47.536 51.0849 48.5212 51.0849C49.5064 51.0849 50.4916 50.7245 51.2305 49.9737C52.7391 48.5022 52.7391 46.1296 51.2305 44.658L43.195 36.8496H43.2258Z" fill="#5C5C5C" fill-opacity="0.15"/>
<path d="M90.5462 135.205H95.5031C96.0572 136.827 96.7346 138.419 97.535 139.98L94.0252 143.404C92.4859 144.906 91.6238 146.918 91.6238 149.08C91.6238 151.243 92.4859 153.225 94.0252 154.756L97.9968 158.6C101.106 161.604 106.463 161.604 109.573 158.6L113.083 155.177C114.684 155.988 116.315 156.648 118.009 157.189V161.994C118.009 166.409 121.673 170.013 126.198 170.013H131.802C136.297 170.013 139.991 166.409 139.991 161.994V157.159C141.684 156.618 143.316 155.958 144.886 155.177L148.427 158.6C151.536 161.604 156.924 161.604 159.972 158.6L163.975 154.726C167.177 151.603 167.177 146.527 163.975 143.404L160.465 139.98C161.265 138.449 161.943 136.857 162.497 135.205H167.484C172.01 135.205 175.705 131.601 175.705 127.187V121.751C175.705 117.336 172.01 113.732 167.484 113.732H162.497C161.943 112.08 161.265 110.519 160.465 108.987L164.005 105.533C167.207 102.41 167.207 97.3346 164.005 94.2112L160.034 90.3671C156.832 87.2437 151.66 87.2437 148.458 90.3671L144.917 93.8208C143.347 93.04 141.715 92.3793 140.022 91.8387V87.0035C140.022 82.5887 136.358 78.9849 131.832 78.9849H126.229C121.734 78.9849 118.04 82.5887 118.04 87.0035V91.8087C116.377 92.3492 114.745 93.0099 113.144 93.7908L109.604 90.3671C106.402 87.2437 101.23 87.2437 98.0584 90.3671L94.056 94.2413C92.5167 95.7429 91.6546 97.755 91.6546 99.9174C91.6546 102.08 92.5167 104.062 94.056 105.593L97.5658 109.017C96.7653 110.549 96.088 112.141 95.5338 113.792H90.5462C86.0513 113.792 82.3568 117.396 82.3568 121.811V127.247C82.3568 131.662 86.0205 135.265 90.5462 135.265V135.205ZM90.0536 121.751C90.0536 121.481 90.2692 121.24 90.5462 121.24H98.4587C100.244 121.24 101.784 120.039 102.215 118.357C102.923 115.474 104.062 112.771 105.632 110.339C106.587 108.837 106.371 106.915 105.109 105.654L99.5054 100.218C99.3207 100.037 99.3207 99.6771 99.5054 99.527L103.508 95.6528C103.693 95.4726 104 95.4726 104.216 95.6528L109.819 101.089C111.082 102.32 113.052 102.53 114.561 101.599C117.147 100.038 119.887 98.9263 122.781 98.2956C124.536 97.9052 125.767 96.3736 125.767 94.6317V86.9735C125.767 86.7032 125.983 86.4629 126.26 86.4629H131.863C132.14 86.4629 132.356 86.6731 132.356 86.9735V94.6317C132.356 96.3736 133.587 97.8752 135.311 98.2956C138.267 98.9864 141.038 100.098 143.501 101.629C145.009 102.56 147.011 102.35 148.273 101.119L153.876 95.6528C154.061 95.4726 154.369 95.4726 154.584 95.6528L158.556 99.4969C158.741 99.6771 158.741 100.007 158.556 100.218L152.953 105.684C151.69 106.915 151.444 108.867 152.429 110.339C153.999 112.741 155.139 115.444 155.847 118.327C156.247 120.009 157.817 121.21 159.603 121.21H167.484C167.762 121.21 168.008 121.451 168.008 121.721V127.157C168.008 127.427 167.762 127.667 167.484 127.667H159.603C157.817 127.667 156.278 128.869 155.847 130.55C155.139 133.433 153.999 136.136 152.429 138.569C151.475 140.071 151.69 141.993 152.953 143.254L158.556 148.69C158.741 148.87 158.741 149.2 158.556 149.381L154.554 153.255C154.4 153.405 154.03 153.405 153.846 153.255L148.242 147.819C146.98 146.588 144.979 146.377 143.47 147.308C141.007 148.84 138.236 149.951 135.281 150.642C133.526 151.032 132.325 152.564 132.325 154.306V161.964C132.325 162.234 132.109 162.475 131.832 162.475H126.229C125.952 162.475 125.736 162.264 125.736 161.964V154.306C125.736 152.564 124.474 151.032 122.719 150.642C119.856 150.011 117.116 148.9 114.499 147.308C113.852 146.918 113.175 146.738 112.467 146.738C111.482 146.738 110.497 147.098 109.758 147.849L104.185 153.285C104.031 153.435 103.662 153.435 103.477 153.285L99.5054 149.441C99.3207 149.26 99.3207 148.9 99.5054 148.75L105.078 143.314C106.34 142.083 106.556 140.161 105.632 138.689C104.031 136.166 102.861 133.463 102.184 130.67C101.784 128.989 100.214 127.787 98.4279 127.787H90.577C90.2999 127.787 90.0844 127.577 90.0844 127.277V121.841L90.0536 121.751Z" fill="#5C5C5C" fill-opacity="0.15"/>
<path d="M128.969 143.524C139.745 143.524 148.519 134.995 148.519 124.514C148.519 114.033 139.745 105.503 128.969 105.503C118.194 105.503 109.481 114.033 109.481 124.514C109.481 134.995 118.224 143.524 128.969 143.524ZM128.969 112.981C135.496 112.981 140.822 118.147 140.822 124.484C140.822 130.821 135.496 135.986 128.969 135.986C122.442 135.986 117.178 130.821 117.178 124.484C117.178 118.147 122.473 112.981 128.969 112.981Z" fill="#5C5C5C" fill-opacity="0.15"/>
</svg>
