<?xml version="1.0" encoding="utf-8"?>
<!-- Generator: Adobe Illustrator 27.6.1, SVG Export Plug-In . SVG Version: 6.00 Build 0)  -->
<svg version="1.1" id="Layer_1" xmlns="http://www.w3.org/2000/svg" xmlns:xlink="http://www.w3.org/1999/xlink" x="0px" y="0px"
	 viewBox="0 0 24 24" style="enable-background:new 0 0 24 24;" xml:space="preserve">
<style type="text/css">
	.st0{fill:#CAAC6F;}
</style>
<path class="st0" d="M23,3.6L14.5,1L12,4.5L9.5,1L1,3.6l2,8.8l4.2,0.4l-1.7,4L12,23l6.5-6.2l-1.7-4l4.2-0.4L23,3.6L23,3.6z
	 M18.3,9.2L15,9.5l0.7,1.3l-1.3,2.3H13l1.4,3L12,18.3l-2.4-2.3l1.4-3H9.6l-1.3-2.3L9,9.5L5.7,9.2L5,6l3.2-1L10,7.7l0.7-1.3h2.6
	L14,7.7L15.9,5L19,6L18.3,9.2L18.3,9.2z"/>
</svg>
