<?xml version="1.0" encoding="utf-8"?>
<!-- Generator: Adobe Illustrator 27.6.1, SVG Export Plug-In . SVG Version: 6.00 Build 0)  -->
<svg version="1.1" id="Layer_1" xmlns="http://www.w3.org/2000/svg" xmlns:xlink="http://www.w3.org/1999/xlink" x="0px" y="0px"
	 viewBox="0 0 24 24" style="enable-background:new 0 0 24 24;" xml:space="preserve">
<style type="text/css">
	.st0{fill:#CAAC6F;}
</style>
<g>
	<g>
		<path class="st0" d="M19.8,17.9c-0.1,0.5-0.2,0.8-0.4,1.1c-0.1,0.1-0.1,0.2-0.2,0.3c0,0,0,0,0,0h-3.8c0,0,0,0,0,0c0,0,0,0,0,0
			c0,0,0,0,0,0c0,0,0,0,0,0c-0.1-0.1-0.2-0.2-0.3-0.5c-0.1-0.2-0.1-0.3-0.2-0.5c-0.1-0.3-0.2-0.6-0.2-0.9c-0.2-1-0.3-2.2-0.4-3.6
			H9.6c-0.1,1.4-0.2,2.6-0.4,3.6c-0.1,0.3-0.1,0.7-0.2,0.9c-0.1,0.2-0.1,0.4-0.2,0.5c-0.1,0.2-0.2,0.4-0.3,0.5c0,0,0,0-0.1,0.1
			c0,0,0,0,0,0H4.7c0,0,0,0,0,0c0,0-0.1-0.1-0.2-0.3c-0.1-0.2-0.2-0.6-0.4-1.1c-0.2-0.7-0.3-1.6-0.4-2.7c-0.1-1-0.2-2.2-0.2-3.5
			c0-2.2,0.2-4.1,0.4-5.5c0.1-0.3,0.1-0.7,0.2-0.9c0.1-0.2,0.1-0.4,0.2-0.5c0.1-0.2,0.2-0.4,0.3-0.5c0,0,0,0,0,0c0,0,0,0,0,0
			c0,0,0,0,0,0c0,0,0,0,0,0h3.8c0,0,0,0,0,0c0,0,0.1,0.1,0.2,0.3c0.1,0.2,0.2,0.6,0.4,1.1c0.2,0.7,0.3,1.6,0.4,2.7
			c0.1,0.5,0.1,1,0.1,1.6h4.8c0-0.6,0.1-1.1,0.1-1.6c0.1-1,0.2-2,0.4-2.7c0.1-0.5,0.2-0.8,0.4-1.1c0.1-0.1,0.1-0.2,0.2-0.3
			c0,0,0,0,0,0h3.8c0,0,0,0,0,0c0,0,0,0,0.1,0.1c0.1,0.1,0.2,0.2,0.3,0.5c0.1,0.2,0.1,0.3,0.2,0.5c0.1,0.3,0.2,0.6,0.2,0.9
			c0.3,1.4,0.4,3.3,0.4,5.5c0,1.3-0.1,2.4-0.2,3.5C20.2,16.3,20,17.2,19.8,17.9z"/>
		<path class="st0" d="M21.2,11.8c0-1.3-0.1-2.5-0.2-3.5c-0.1-0.7-0.2-1.3-0.3-1.9H23c0.6,0,1,2.4,1,5.5c0,3-0.5,5.5-1,5.5h-2.2
			C21,15.8,21.2,13.9,21.2,11.8z"/>
		<path class="st0" d="M2.8,11.8c0-1.3,0.1-2.5,0.2-3.5C3,7.5,3.1,6.9,3.2,6.3H1c-0.6,0-1,2.4-1,5.5c0,3,0.5,5.5,1,5.5h2.2
			C3,15.8,2.8,13.9,2.8,11.8z"/>
	</g>
</g>
</svg>
