<?xml version="1.0" encoding="utf-8"?>
<!-- Generator: Adobe Illustrator 27.6.1, SVG Export Plug-In . SVG Version: 6.00 Build 0)  -->
<svg version="1.1" id="Layer_1" xmlns="http://www.w3.org/2000/svg" xmlns:xlink="http://www.w3.org/1999/xlink" x="0px" y="0px"
	 viewBox="0 0 24 24" style="enable-background:new 0 0 24 24;" xml:space="preserve">
<style type="text/css">
	.st0{fill:#CAAC6F;}
</style>
<g>
	<g>
		<path class="st0" d="M8.7,13.9c0,0,1.6-3.1,1-8.6C10.3,3.7,11,2,12,0c1,2,1.7,3.7,2.3,5.3c-0.6,5.4,1,8.6,1,8.6H8.7z"/>
		<path class="st0" d="M6.7,10.7c-2.6,3.3,1.5,4.5,1.5,4.5h2.3l-1.7,3H6.4C-0.9,14,5.8,8.7,5.8,8.7S6.2,9.6,6.7,10.7z"/>
		<path class="st0" d="M9.6,19.3l0.6,3.3l0.5,1c0,0,0.5,0.3,1.3,0.3c0.9,0,1.3-0.3,1.3-0.3l0.5-1l0.6-3.3L12,15.6L9.6,19.3z"/>
		<path class="st0" d="M17.3,10.7c0.4-1,0.9-2,0.9-2s6.7,5.3-0.6,9.5h-2.3l-1.7-3h2.3C15.8,15.1,19.9,13.9,17.3,10.7z"/>
	</g>
</g>
</svg>
