<?xml version="1.0" encoding="utf-8"?>
<!-- Generator: Adobe Illustrator 27.6.1, SVG Export Plug-In . SVG Version: 6.00 Build 0)  -->
<svg version="1.1" id="Layer_1" xmlns="http://www.w3.org/2000/svg" xmlns:xlink="http://www.w3.org/1999/xlink" x="0px" y="0px"
	 viewBox="0 0 24 24" style="enable-background:new 0 0 24 24;" xml:space="preserve">
<style type="text/css">
	.st0{fill:#CAAC6F;}
</style>
<path class="st0" d="M8.6,4.9C6.8,4.4,4.9,4.1,3,4.3L6.3,1l15.3,1.4L23,17.7L19.7,21c0.1-1.9-0.1-3.7-0.6-5.6
	c-0.5-1.6-1.2-3.1-2.1-4.4c-0.5-0.8-1.1-1.5-1.8-2.1C14.5,8.2,13.8,7.6,13,7C11.6,6.1,10.1,5.4,8.6,4.9z"/>
<path class="st0" d="M7.7,16.3c-2.6-2.6-2.9-6.6-0.9-9.5c-1.6-0.3-3.3-0.4-5-0.1C0.2,11,1.1,16,4.5,19.5c3.5,3.5,8.5,4.4,12.8,2.7
	c0.3-1.7,0.2-3.4-0.1-5C14.3,19.2,10.3,18.9,7.7,16.3L7.7,16.3z"/>
<path class="st0" d="M10.3,13.7c1.5,1.5,4,1.5,5.5,0c0,0,0-0.1,0.1-0.1c0,0,0,0,0,0c0,0,0,0,0,0c-0.6-1.1-1.4-2.2-2.4-3.2
	c-1-1-2-1.7-3.2-2.4c0,0,0,0,0,0c0,0-0.1,0-0.1,0.1C8.7,9.7,8.7,12.2,10.3,13.7L10.3,13.7z"/>
</svg>
