<?xml version="1.0" encoding="utf-8"?>
<!-- Generator: Adobe Illustrator 27.6.1, SVG Export Plug-In . SVG Version: 6.00 Build 0)  -->
<svg version="1.1" id="Layer_1" xmlns="http://www.w3.org/2000/svg" xmlns:xlink="http://www.w3.org/1999/xlink" x="0px" y="0px"
	 viewBox="0 0 24 24" style="enable-background:new 0 0 24 24;" xml:space="preserve">
<style type="text/css">
	.st0{fill-rule:evenodd;clip-rule:evenodd;fill:#CAAC6F;}
</style>
<g>
	<g>
		<path class="st0" d="M14.7,18.6l2.1,2.1l1.4-1.4l-1.9-1.9c0.4-0.2,0.7-0.4,1.1-0.6c1.8-0.8,3-2.2,3.4-4.1
			c-0.5,0.2-0.9,0.4-1.2,0.4c-0.4,0.1-0.7,0-0.7-0.1c0-0.2,0.4-0.4,1.1-0.7c0.3-0.1,0.5-0.3,0.8-0.5h0c0,0,0.1,0,0.1-0.1
			c0,0,0.1,0,0.1-0.1c0.1-0.8,0-1.7-0.2-2.6c-0.4,0.5-0.8,0.9-1.2,1.2c-0.4,0.3-0.8,0.3-0.8,0.2c-0.1-0.1,0.1-0.4,0.4-0.7
			c0.3-0.4,0.7-0.8,1-1.4c0.1-0.1,0.1-0.3,0.2-0.4c-0.4-1.1-1.1-2.3-2-3.5L15.1,12c1,0.3,1.9,1,1.5,1.9c-0.2,0.5-0.9,1.3-1.8,2.1
			c-1.1-1.2-1.5-2.8-1.3-4.3l1.6-8.6L12,0L8.8,3.2l1.6,8.6c0.3,1.6-0.2,3.2-1.3,4.3c-0.9-0.8-1.6-1.6-1.8-2.1
			c-0.4-1,0.5-1.7,1.5-1.9L5.6,4.4c-0.9,1.2-1.6,2.4-2,3.5c0.1,0.1,0.1,0.3,0.2,0.4c0.3,0.6,0.7,1.1,1,1.4c0.3,0.4,0.5,0.6,0.4,0.7
			c-0.1,0.1-0.4,0-0.8-0.2c-0.4-0.2-0.8-0.6-1.2-1.2C3,10.1,3,10.9,3,11.8c0.1,0,0.2,0.1,0.2,0.1c0.3,0.2,0.6,0.3,0.8,0.5
			c0.6,0.3,1.1,0.6,1,0.7c0,0.1-0.3,0.1-0.7,0.1c-0.3-0.1-0.8-0.2-1.2-0.4c0.4,1.8,1.6,3.3,3.4,4.1C7,17,7.4,17.2,7.8,17.4l-1.9,1.9
			l1.4,1.4l2.1-2.1c0.6,0.5,1,0.9,1.3,1.3h0l-1.4,1.4L12,24l2.8-2.8l-1.4-1.4h0C13.7,19.6,14.1,19.1,14.7,18.6z M13.4,17.4L12,16
			l-1.4,1.4c0.6,0.5,1.1,0.9,1.4,1.1C12.3,18.2,12.8,17.8,13.4,17.4z"/>
	</g>
</g>
</svg>
