<?xml version="1.0" encoding="utf-8"?>
<!-- Generator: Adobe Illustrator 27.6.1, SVG Export Plug-In . SVG Version: 6.00 Build 0)  -->
<svg version="1.1" id="Layer_1" xmlns="http://www.w3.org/2000/svg" xmlns:xlink="http://www.w3.org/1999/xlink" x="0px" y="0px"
	 viewBox="0 0 24 24" style="enable-background:new 0 0 24 24;" xml:space="preserve">
<style type="text/css">
	.st0{fill:#CAAC6F;}
</style>
<path class="st0" d="M17.9,0c0.5,2.4,0.1,5-1.3,7.1H8.3C6.9,5,6.5,2.5,7,0.1C4.6,2,3.1,5,3,8.4l3.2,0.7c2.3,0.5,4.7,1.7,6.3,3.4
	c1.6-1.7,4-3,6.3-3.4L22,8.4C21.9,4.9,20.3,1.8,17.9,0L17.9,0z"/>
<path class="st0" d="M14.7,3.9c0-1.6-0.9-3.1-2.2-3.9c-1.3,0.8-2.2,2.2-2.2,3.9v0C10.3,6.7,14.7,6.7,14.7,3.9L14.7,3.9z"/>
<path class="st0" d="M12.5,15.3c0,0,1.7-2.4,3.4-3.2c0.8,3.7,2.5,7.8,5.6,7.8l-2.7,4H6.2l-2.7-4c3.1,0,4.8-4.2,5.6-7.8
	C10.8,12.9,12.5,15.3,12.5,15.3z"/>
</svg>
