<?xml version="1.0" encoding="utf-8"?>
<!-- Generator: Adobe Illustrator 27.6.1, SVG Export Plug-In . SVG Version: 6.00 Build 0)  -->
<svg version="1.1" id="Layer_1" xmlns="http://www.w3.org/2000/svg" xmlns:xlink="http://www.w3.org/1999/xlink" x="0px" y="0px"
	 viewBox="0 0 24 24" style="enable-background:new 0 0 24 24;" xml:space="preserve">
<style type="text/css">
	.st0{fill:#CAAC6F;}
</style>
<path class="st0" d="M5.8,7.1l1.7,1.8l2.4-2.4L8.7,5.3H4.6l1.1-2.1l1.6,0.4v0.7h1.7V2.5L3.6,1L1,5.4l1.6,3L5.8,7.1z"/>
<path class="st0" d="M16.5,8.9l-2.4-2.4l1.1-1.1h4.1l-1.1-2.1l-1.6,0.4v0.7h-1.7V2.5L20.4,1L23,5.4l-1.6,3l-3.2-1.4L16.5,8.9z"/>
<path class="st0" d="M12,23l-2.1-5l2.1-2.1l2.1,2.1L12,23z"/>
<path class="st0" d="M12,6.5l3.5,3.5l-2.1,2.3l1.6,1.5v3.1L12,13.8l-2.9,3.1v-3.1l1.6-1.5L8.5,10L12,6.5z"/>
<path class="st0" d="M18.6,8.9l4.1,1.7l-2.4,5.1l-0.7,0.6v-4.3H19l-1.8,8.5l-0.7,0.6V11.2L18.6,8.9z"/>
<path class="st0" d="M1.4,10.7L1.4,10.7l4.1-1.7l2.1,2.3v10.1l-0.7-0.6L5,12.2H4.5v4.3l-0.7-0.6L1.4,10.7z"/>
</svg>
