<?xml version="1.0" encoding="utf-8"?>
<!-- Generator: Adobe Illustrator 27.6.1, SVG Export Plug-In . SVG Version: 6.00 Build 0)  -->
<svg version="1.1" id="Layer_1" xmlns="http://www.w3.org/2000/svg" xmlns:xlink="http://www.w3.org/1999/xlink" x="0px" y="0px"
	 viewBox="0 0 24 24" style="enable-background:new 0 0 24 24;" xml:space="preserve">
<style type="text/css">
	.st0{fill-rule:evenodd;clip-rule:evenodd;fill:#CAAC6F;}
	.st1{fill:#CAAC6F;}
</style>
<path class="st0" d="M16.2,1l-1.4,1.4v1.4L5,13.2c-1,0.9-1.2,2.3-0.8,3.4l-3.1,3c0.3,0.4,0.6,0.8,1,1.2c1.3,1.3,3,2,4.7,2.1v-4.1
	c0.3,0.1,0.5,0.1,0.8,0.1c0.9,0,1.8-0.3,2.4-1l3.8-3.7v-3L18.1,7h1.5l1.4-1.4L16.2,1z M8.8,16.9c-0.4,0.4-0.9,0.6-1.4,0.6
	s-1-0.2-1.4-0.6l3.5-3.4l1.4,1.3L8.8,16.9z"/>
<path class="st1" d="M19,13.2l-2.5-2.4l-1.1,1.1v3l-2.2,2.2l0.9,0.9c0.7,0.7,1.6,1,2.4,1c0.3,0,0.5,0,0.8-0.1V23
	c1.7-0.2,3.4-0.9,4.7-2.1c0.4-0.4,0.7-0.7,1-1.2l-3.2-3.1C20.2,15.5,20,14.2,19,13.2z"/>
<path class="st1" d="M9.2,2.4v1.4c0,0,0.6,0.6,1.5,1.5L7.5,8.5L5.9,7H4.5L3.1,5.6L7.8,1L9.2,2.4z"/>
</svg>
