<?xml version="1.0" encoding="utf-8"?>
<!-- Generator: Adobe Illustrator 27.6.1, SVG Export Plug-In . SVG Version: 6.00 Build 0)  -->
<svg version="1.1" id="Layer_1" xmlns="http://www.w3.org/2000/svg" xmlns:xlink="http://www.w3.org/1999/xlink" x="0px" y="0px"
	 viewBox="0 0 24 24" style="enable-background:new 0 0 24 24;" xml:space="preserve">
<style type="text/css">
	.st0{fill:#CAAC6F;}
</style>
<path class="st0" d="M3.1,12C3.1,7,7.1,3,12,3c4.9,0,8.9,4,8.9,8.9c0,2.3-0.9,4.4-2.3,6l1.5,1.4c1.8-1.9,2.9-4.5,2.9-7.4
	c0-6-4.9-11-11-11C5.9,1,1,5.9,1,12c0,2.8,1.1,5.4,2.9,7.4l1.5-1.4C3.9,16.4,3.1,14.3,3.1,12z"/>
<path class="st0" d="M12,5.5l-5.6,9.3c-0.7-1.2-1.6-4,0.3-6.5C8.6,6,10.3,5.5,12,5.5z"/>
<path class="st0" d="M12,5.5c1.6,0,3.3,0.5,5.1,2.9c1.8,2.4,0.9,5.2,0.3,6.5L12,5.5z"/>
<path class="st0" d="M12,23c2.3,0,4.1-1.8,4.1-4.1c0-2.3-4.1-8.5-4.1-8.5s-4.1,6.2-4.1,8.5C7.9,21.2,9.7,23,12,23z"/>
</svg>
