<?xml version="1.0" encoding="utf-8"?>
<!-- Generator: Adobe Illustrator 27.6.1, SVG Export Plug-In . SVG Version: 6.00 Build 0)  -->
<svg version="1.1" id="Layer_1" xmlns="http://www.w3.org/2000/svg" xmlns:xlink="http://www.w3.org/1999/xlink" x="0px" y="0px"
	 viewBox="0 0 24 24" style="enable-background:new 0 0 24 24;" xml:space="preserve">
<style type="text/css">
	.st0{fill:#CAAC6F;}
</style>
<g>
	<g>
		<path class="st0" d="M20.1,12.4c-0.3,0.3-0.8,0.3-1,0h0c-1.8-3-6-5.9-10.6-5.9C6.8,6.4,5.1,6.8,3.7,7.7C3.2,7.9,2.7,7.6,3,7.1
			C3.8,5.7,6,4.7,7.7,4.2c1-0.3,2-0.4,2.9-0.5c0.3,0,0.3-0.4,0.1-0.5C9.6,2.8,8.5,2.7,7.4,2.7c-0.6,0-0.7-0.8-0.1-0.9
			c2.2-0.5,4.8-0.2,7.2,0.9c0.4,0.2,0.8,0.4,1.2,0.6c0.3,0.1,0.5-0.2,0.3-0.4c-0.8-0.8-1.7-1.5-2.7-2c-0.5-0.2-0.2-1,0.3-0.9
			C20,1.7,23.1,8.4,20.1,12.4z"/>
		<path class="st0" d="M5.1,16.9C5,13.6,7,10.8,9.9,9.7c0.3-0.1,0.3-0.6,0-0.8C8,8.2,6,8.2,4.5,9.2c-3,1.9-3.3,6.7-0.7,10.6
			c1.3,1.9,3,3.3,4.7,4c0.5,0.2,0.8-0.5,0.3-0.7C6.6,21.9,5.2,19.5,5.1,16.9L5.1,16.9z"/>
		<path class="st0" d="M19,19.7c-2.7,2.2-6.2,2.4-8.9,0.8c-0.3-0.2-0.8,0.1-0.6,0.5c1.6,3.8,6.6,3.7,9.7,1.3
			c2.8-2.2,4.6-6.5,3.6-9.7c-0.2-0.5-0.9-0.3-0.8,0.2C22.2,15.3,21.2,17.9,19,19.7z"/>
	</g>
</g>
</svg>
