<?xml version="1.0" encoding="utf-8"?>
<!-- Generator: Adobe Illustrator 27.6.1, SVG Export Plug-In . SVG Version: 6.00 Build 0)  -->
<svg version="1.1" id="Layer_1" xmlns="http://www.w3.org/2000/svg" xmlns:xlink="http://www.w3.org/1999/xlink" x="0px" y="0px"
	 viewBox="0 0 24 24" style="enable-background:new 0 0 24 24;" xml:space="preserve">
<style type="text/css">
	.st0{fill:#CAAC6F;}
</style>
<path class="st0" d="M6.9,5.2c4.5-4.5,10.9-5.5,14.1-2.3c3.3,3.3,2.3,9.6-2.3,14.1c-0.4,0.4-0.9,0.8-1.3,1.2
	c0.4-0.8,1.5-3.2,1.4-6.3l-2.4,0.2l2.4-4l-9.7,7C9,15.2,8.8,15,8.9,14.9l7-9.7l-4,2.4l0.2-2.4C8.9,5,6.5,6.1,5.8,6.5
	C6.1,6,6.5,5.6,6.9,5.2z"/>
<path class="st0" d="M9.3,15.8l4.2-2.1v0c0.9,2.4,0.2,5.4-2,7.5C10.7,22,9.9,22.6,8.9,23c1.2-1.7,1.5-3.8,0.9-5.6l-8.3,5.2
	c-0.1,0.1-0.3-0.1-0.2-0.2l5.2-8.3c-1.8-0.6-3.8-0.2-5.6,0.9c0.4-0.9,1-1.8,1.7-2.5c2.2-2.2,5.2-2.8,7.5-2l-2.1,4.2
	C8,15,8,15.2,8.1,15.5c0.1,0.3,0.4,0.4,0.7,0.5C9,16,9.1,15.9,9.3,15.8z"/>
</svg>
