<?xml version="1.0" encoding="utf-8"?>
<!-- Generator: Adobe Illustrator 27.6.1, SVG Export Plug-In . SVG Version: 6.00 Build 0)  -->
<svg version="1.1" id="Layer_1" xmlns="http://www.w3.org/2000/svg" xmlns:xlink="http://www.w3.org/1999/xlink" x="0px" y="0px"
	 viewBox="0 0 24 24" style="enable-background:new 0 0 24 24;" xml:space="preserve">
<style type="text/css">
	.st0{fill:#CAAC6F;}
</style>
<path class="st0" d="M7.9,8.6l1.5-0.8h0V5.4l1.8-1.7v7.8L7,10l2,2.9l2.2-0.5V23l-1.8-2v-5.6l-3.9-3.9v2.6l2.3,2.3v2.2l-4.5-4.5
	C1.6,12.5,0.9,10.5,1,8.4h0.6c0.8,0,1.5-0.6,1.5-1.4c0-0.8-0.7-1.4-1.5-1.4h0C2.8,3.1,5.3,1,8.8,1L9,1L5.5,4.5v1.7L7.9,8.6z"/>
<path class="st0" d="M22.4,5.7c-0.8,0-1.5,0.6-1.5,1.4c0,0.8,0.7,1.4,1.5,1.4H23c0.1,2-0.6,4.1-2.3,5.8l-4.5,4.5v-2.2l2.3-2.3v-2.6
	l-3.9,3.9V21l-1.8,2V12.3l2.2,0.5l2-2.9l-4.2,1.5V3.7l1.8,1.7v2.5l1.5,0.8l2.4-2.4V4.5L15,1l0.2,0C18.7,1,21.2,3.1,22.4,5.7
	L22.4,5.7z"/>
</svg>
