<?xml version="1.0" encoding="utf-8"?>
<!-- Generator: Adobe Illustrator 27.6.1, SVG Export Plug-In . SVG Version: 6.00 Build 0)  -->
<svg version="1.1" id="Layer_1" xmlns="http://www.w3.org/2000/svg" xmlns:xlink="http://www.w3.org/1999/xlink" x="0px" y="0px"
	 viewBox="0 0 24 24" style="enable-background:new 0 0 24 24;" xml:space="preserve">
<style type="text/css">
	.st0{fill:#CAAC6F;}
</style>
<path class="st0" d="M23,11.8c-0.9-0.1-1.6-0.7-1.9-1.6c-0.3-1,0.1-2.2,0.9-2.7c-0.4-0.8-0.8-1.5-1.3-2.2l-2.8,2.8
	c0.7,1.1,1.2,2.5,1.2,3.9c0,1.9-0.7,3.6-1.9,4.9v-4.4l-2.1-2.1V8.8c0.2-0.1,0.4-0.3,0.5-0.5c2-2,2-5.3,0-7.3l-1.5,1.5
	c1.2,1.2,1.2,3.2,0,4.4c-0.3,0.3-0.7,0.6-1.1,0.7V23c0.9-0.1,1.7-0.2,2.5-0.5c-0.2-0.9,0.1-2,0.9-2.6c0.9-0.7,2.2-0.6,3,0.2
	c0.6-0.5,1.1-1.1,1.6-1.8c-0.7-0.6-1-1.6-0.7-2.5c0.3-1.1,1.4-1.8,2.5-1.6c0.1-0.7,0.2-1.4,0.2-2.2c0,0,0,0,0-0.1
	C23,11.9,23,11.9,23,11.8L23,11.8z"/>
<path class="st0" d="M12,6.3c0.9,0,1.6-0.7,1.6-1.6c0-0.9-0.7-1.6-1.6-1.6c-0.9,0-1.6,0.7-1.6,1.6C10.4,5.6,11.1,6.3,12,6.3z"/>
<path class="st0" d="M9.9,6.9c0.3,0.3,0.7,0.6,1.1,0.7h0V23c-0.9-0.1-1.7-0.2-2.5-0.5c0.2-0.9-0.1-2-0.9-2.6c-0.9-0.7-2.2-0.6-3,0.2
	C4,19.6,3.5,19,3,18.4c0.7-0.6,1-1.6,0.7-2.5c-0.3-1.1-1.4-1.8-2.5-1.6C1.1,13.5,1,12.8,1,12c0-0.1,0-0.1,0-0.2
	c0.9-0.1,1.6-0.7,1.9-1.6C3.3,9.2,2.8,8,2,7.5c0.4-0.8,0.8-1.5,1.3-2.2l2.8,2.8C5.3,9.2,4.9,10.6,4.9,12c0,1.9,0.7,3.6,1.9,4.9v-4.4
	l2.1-2.1V8.8C8.7,8.7,8.6,8.5,8.4,8.3c-1-1-1.5-2.3-1.5-3.7C6.9,3.3,7.4,2,8.4,1l1.5,1.5C8.7,3.7,8.7,5.7,9.9,6.9z"/>
</svg>
