<?xml version="1.0" encoding="utf-8"?>
<!-- Generator: Adobe Illustrator 27.6.1, SVG Export Plug-In . SVG Version: 6.00 Build 0)  -->
<svg version="1.1" id="Layer_1" xmlns="http://www.w3.org/2000/svg" xmlns:xlink="http://www.w3.org/1999/xlink" x="0px" y="0px"
	 viewBox="0 0 24 24" style="enable-background:new 0 0 24 24;" xml:space="preserve">
<style type="text/css">
	.st0{fill:#CAAC6F;}
</style>
<path class="st0" d="M6.2,10.8c0.8,1.5,2,3,3.6,4.2l7.8-7.9L15.9,1L6.2,10.8z"/>
<path class="st0" d="M21,11.8c0,0-0.5,2.8,0.7,4.2h0c1,1.1,1.8,2.6-0.1,3.6c-0.6,0.3-0.7,0.9-0.8,1.5c-0.2,0.8-0.3,1.5-1.5,1.6
	c-0.8,0-1.5-0.2-2.3-0.6c-1.4,1.6-5,1-6.9-1c-0.1-0.1,0-0.2,0.2-0.2c2.4,0.6,3.7,0.3,4.7-0.3c-2.4-1.6-3.8-1.1-4.8-0.8l0,0
	c-0.2,0.1-0.4,0.1-0.6,0.2c-3,0.5-3.5-2.8-3.7-4.2c-0.2-1.3-1.3-1.8-2-2c-1.7-0.6-1.7-1.8-1.8-3c0-0.3,0-0.5,0-0.8
	C1.9,9.1,1.7,8.7,1.4,8.3C1.2,7.9,1,7.5,1,6.8c0.1-1.3,1.2-3,1.2-3c1.9,1.4,4.6,0.3,3.1-1.4C7,2.2,9.6,2.9,10.9,3.9
	c1.5,1.1-0.1,1.1-1.7,0.8C7.8,4.4,7.9,4.9,8,5.4c0,0,0,0.1,0,0.1C8.1,5.9,7.3,6,6.4,6c-1.2,0-2.6,0.1-2.8,0.9C3.3,7.8,4,8.2,4.8,8.5
	C5.2,8.6,5.3,9.1,5,9.3C4.7,9.6,4.5,10,4.7,10.4c1.7,4.4,7.4,9.1,13.7,9c3.5-0.7-0.8-4.2-0.8-4.2L21,11.8z"/>
<path class="st0" d="M18.7,8.3H23l-9.1,9.2c-1-0.4-2-0.9-2.9-1.4L18.7,8.3z"/>
<path class="st0" d="M4,17.4l0.8-0.8v0c0.2,1.2,0.6,2.5,1.5,3.4c0.2,0.2,0.3,0.3,0.5,0.4c-0.3,0.4-0.5,0.8-0.5,1.3
	c0,0.5,0.2,1,0.5,1.3H4.5l-3.2-3.2v-2.4C2.1,18.1,3.2,18.1,4,17.4z"/>
</svg>
