<?xml version="1.0" encoding="utf-8"?>
<!-- Generator: Adobe Illustrator 27.6.1, SVG Export Plug-In . SVG Version: 6.00 Build 0)  -->
<svg version="1.1" id="Layer_1" xmlns="http://www.w3.org/2000/svg" xmlns:xlink="http://www.w3.org/1999/xlink" x="0px" y="0px"
	 viewBox="0 0 24 24" style="enable-background:new 0 0 24 24;" xml:space="preserve">
<style type="text/css">
	.st0{fill:#CAAC6F;}
	.st1{fill-rule:evenodd;clip-rule:evenodd;fill:#CAAC6F;}
</style>
<path class="st0" d="M6.9,3.3v3.8l0,0C5.7,7.1,4.7,6.5,4,5.5C2.9,3.9,3.3,1.7,5,0.6s3.9-0.6,5.1,1c0.7,1,0.8,2.3,0.3,3.3L6.9,3.3z"
	/>
<path class="st0" d="M18.8,8.7L18.8,8.7L18.8,8.7L18.8,8.7z"/>
<path class="st1" d="M15.6,7.3l3.2,1.4L21,24L7.2,16.1l0-3.4L3,15.5v-3.8l13.2-8.6l3.5,1.5L15.6,7.3z M11.4,10l6.8,9.9l-1.9-9.5
	L13,8.9L11.4,10z"/>
</svg>
