<?xml version="1.0" encoding="utf-8"?>
<!-- Generator: Adobe Illustrator 27.6.1, SVG Export Plug-In . SVG Version: 6.00 Build 0)  -->
<svg version="1.1" id="Layer_1" xmlns="http://www.w3.org/2000/svg" xmlns:xlink="http://www.w3.org/1999/xlink" x="0px" y="0px"
	 viewBox="0 0 24 24" style="enable-background:new 0 0 24 24;" xml:space="preserve">
<style type="text/css">
	.st0{fill:#CAAC6F;}
</style>
<path class="st0" d="M6.8,12.5c0.5-0.5,1.1-1,1.8-1.3c-0.1,0.2-0.1,0.5-0.1,0.7c0,1.7,1.5,3.1,3.4,3.1c1.6,0,2.9-1,3.3-2.3
	c-0.4,0.3-0.8,0.5-1.4,0.5c-1.1,0-2-0.8-2-1.8c0-0.4,0.1-0.8,0.4-1.1c2.1,0.1,4,1,5.1,2.4c0-0.1,0.1-0.1,0.1-0.2c0,0,0,0,0,0
	c0,0,0,0,0-0.1c1-1.6,0.8-3.5-0.2-5.1c-0.2-0.2-0.3-0.5-0.5-0.7c-0.4-0.3-0.7-0.6-1-0.9C13.4,3.3,12,1.3,12,0c0,0-2.1,1.8-3.2,4.5
	C8.3,5.5,8.1,6.7,8.1,7.9c0,0-1.2-1.7-1.9-2.8C3.8,8.2,5.2,11.4,6.8,12.5z"/>
<path class="st0" d="M19.4,8.7c0,0,1.2-1.2,0.4-3.2c-1-2.5-4.6-2.9-4.6-2.9S18.6,5.4,19.4,8.7z"/>
<path class="st0" d="M20.6,10c0.2,0.5,0.3,1,0.4,1.7h0c0.2,1.9-1.2,4.3-3.1,5.8c-2.1,1.5-3.2,2.2-3.9,2.5c-0.4,0.2-0.6,0.3-0.6,0.5
	c0,0.3,0.4,0.6,0.9,0.6c0.4-0.1,0.8-0.2,1.2-0.4c0.3-0.1,0.6-0.2,0.8-0.3L15.6,22c-0.3,0.7-3.6,2-3.6,2s-3.2-1.3-3.6-2l-0.8-1.8
	c0.3,0.1,0.6,0.2,0.9,0.3C9,20.8,9.4,20.9,9.7,21c0.5,0.1,0.8-0.3,0.9-0.6c0-0.2-0.1-0.2-0.6-0.5c-0.6-0.3-1.8-0.9-3.9-2.5
	c-2-1.5-3.4-3.9-3.1-5.8C3.1,11,3.2,10.5,3.4,10c0.9,4,4.4,6.9,8.6,6.9C16.2,16.9,19.7,13.9,20.6,10z"/>
</svg>
