<?xml version="1.0" encoding="utf-8"?>
<!-- Generator: Adobe Illustrator 27.6.1, SVG Export Plug-In . SVG Version: 6.00 Build 0)  -->
<svg version="1.1" id="Layer_1" xmlns="http://www.w3.org/2000/svg" xmlns:xlink="http://www.w3.org/1999/xlink" x="0px" y="0px"
	 viewBox="0 0 24 24" style="enable-background:new 0 0 24 24;" xml:space="preserve">
<style type="text/css">
	.st0{fill-rule:evenodd;clip-rule:evenodd;fill:#CAAC6F;}
	.st1{fill:#CAAC6F;}
</style>
<path class="st0" d="M7.7,5.4C7.7,3,9.6,1,12,1c2.4,0,4.3,2,4.3,4.4c0,2.4-1.9,4.4-4.3,4.4C9.6,9.8,7.7,7.8,7.7,5.4z M14.2,5.4
	c0-1.2-1-2.2-2.2-2.2c-1.2,0-2.2,1-2.2,2.2c0,1.2,1,2.2,2.2,2.2C13.2,7.6,14.2,6.6,14.2,5.4z"/>
<path class="st1" d="M6.1,5.4c0,0.9,0.2,1.8,0.4,2.4L4,8.9L1,5.8V5.4H6.1z"/>
<path class="st1" d="M17.5,7.7c0.3-0.6,0.5-1.4,0.4-2.4H23v0.4l-3,3.1L17.5,7.7z"/>
<path class="st1" d="M4.4,9.7h3.4v0c0.5,0.5,1,0.9,1.7,1.2l-1.2,2.5C6.7,12.6,5.3,11.3,4.4,9.7z"/>
<path class="st1" d="M12,11.4c0.2,0,0.5,0,0.7,0l1.9,2.5L12,23l-2.6-9.2l1.9-2.5C11.5,11.3,11.8,11.4,12,11.4z"/>
<path class="st1" d="M16.2,9.7h3.4c-0.9,1.6-2.3,2.9-3.9,3.7l-1.2-2.5C15.1,10.6,15.7,10.2,16.2,9.7L16.2,9.7z"/>
</svg>
