<?xml version="1.0" encoding="utf-8"?>
<!-- Generator: Adobe Illustrator 27.6.1, SVG Export Plug-In . SVG Version: 6.00 Build 0)  -->
<svg version="1.1" id="Layer_1" xmlns="http://www.w3.org/2000/svg" xmlns:xlink="http://www.w3.org/1999/xlink" x="0px" y="0px"
	 viewBox="0 0 24 24" style="enable-background:new 0 0 24 24;" xml:space="preserve">
<style type="text/css">
	.st0{fill:#CAAC6F;}
</style>
<path class="st0" d="M13.7,22.4c0.8-0.7,0.1-1.5,0.1-1.5l2.3-3.2l1.8,1c0.5,0.3,1.1,0.1,1.3-0.4c0.3-0.5,0.1-1.1-0.4-1.4L18,16.4
	c1.4-1,9.5-7.2,1.6-15.4L13,13.8l-1-0.5c-0.5-0.3-1.1-0.1-1.3,0.4c-0.3,0.5-0.1,1.1,0.4,1.4l1,0.5l-2.2,4.3c-0.4,0.7,0.1,1.8,1,2.3
	l1.1,0.6C12.8,23.2,12.9,23.1,13.7,22.4z"/>
<path class="st0" d="M12.8,10.5l-0.6,1.2C10.4,10.4,5.7,8.5,1,10.3C4.3,8,7.3,6.9,11.1,7.4C9.8,5.9,7.8,4.5,5.4,4.2
	c4.6-1.6,7.4-1.6,10.3,1.2L12.8,10.5C12.8,10.5,12.8,10.5,12.8,10.5z"/>
</svg>
