<?xml version="1.0" encoding="utf-8"?>
<!-- Generator: Adobe Illustrator 27.6.1, SVG Export Plug-In . SVG Version: 6.00 Build 0)  -->
<svg version="1.1" id="Layer_1" xmlns="http://www.w3.org/2000/svg" xmlns:xlink="http://www.w3.org/1999/xlink" x="0px" y="0px"
	 viewBox="0 0 24 24" style="enable-background:new 0 0 24 24;" xml:space="preserve">
<style type="text/css">
	.st0{fill:#CAAC6F;}
</style>
<path class="st0" d="M15.3,8.4L15.3,8.4L12.5,0L9.7,8.3l0,0L7.5,6.2v7.7c0,0.5,0.1,0.9,0.4,1.4c0.3,0.5,0.8,1,1.4,1.6
	c0.3,0.2,1.4,0.9,3.2,2c1.8-1,2.9-1.8,3.2-2c0.7-0.6,1.2-1.1,1.4-1.6c0.2-0.4,0.4-0.9,0.4-1.4V6.2L15.3,8.4z"/>
<path class="st0" d="M19.8,13.9v-10h0L22,1.7v12.2c0,1.3-0.3,2.5-1,3.6c-0.6,1-1.4,1.9-2.5,2.8c-1.1,0.9-6,3.7-6,3.7s-4.9-2.8-6-3.7
	c-1.1-0.9-1.9-1.8-2.5-2.8c-0.6-1.1-1-2.3-1-3.6V1.7l2.3,2.3v10c0,0.9,0.2,1.7,0.7,2.5c0.4,0.7,1.1,1.5,2,2.2
	c0.5,0.4,2.7,1.8,4.6,2.8c1.9-1.1,4.1-2.4,4.6-2.8c0.9-0.7,1.6-1.5,2-2.2C19.5,15.6,19.8,14.8,19.8,13.9z"/>
</svg>
