<?xml version="1.0" encoding="utf-8"?>
<!-- Generator: Adobe Illustrator 27.6.1, SVG Export Plug-In . SVG Version: 6.00 Build 0)  -->
<svg version="1.1" id="Layer_1" xmlns="http://www.w3.org/2000/svg" xmlns:xlink="http://www.w3.org/1999/xlink" x="0px" y="0px"
	 viewBox="0 0 24 24" style="enable-background:new 0 0 24 24;" xml:space="preserve">
<style type="text/css">
	.st0{fill-rule:evenodd;clip-rule:evenodd;fill:#CAAC6F;}
	.st1{fill:#CAAC6F;}
</style>
<path class="st0" d="M17.2,7c0.8-0.9,2-1.3,3.1-1.3H23v9.4h-2.7c-1.2,0-2.3-0.5-3.1-1.3l-0.8-0.8l-4.2,5.4h-1.9l-3.4-4.3h-2
	c-2.1,0-3.8-1.7-3.8-3.8V4.8C1,2.7,2.7,1,4.8,1h6.9c2.1,0,3.8,1.7,3.8,3.8v1.8l0.9,1.2L17.2,7z M5.7,11.2V5.7h7.1V4.8
	c0-0.6-0.5-1.1-1.1-1.1H4.8c-0.6,0-1.1,0.5-1.1,1.1v5.3c0,0.6,0.5,1.1,1.1,1.1H5.7z"/>
<path class="st1" d="M2,19.3L3.3,23h3.4v-2.3l1.7-1.4l-1.5-2L2,19.3z"/>
<path class="st1" d="M14,19.3l1.7,1.4V23h3.4l1.3-3.7l-4.9-1.9L14,19.3z"/>
</svg>
