<?xml version="1.0" encoding="utf-8"?>
<!-- Generator: Adobe Illustrator 27.6.1, SVG Export Plug-In . SVG Version: 6.00 Build 0)  -->
<svg version="1.1" id="Layer_1" xmlns="http://www.w3.org/2000/svg" xmlns:xlink="http://www.w3.org/1999/xlink" x="0px" y="0px"
	 viewBox="0 0 24 24" style="enable-background:new 0 0 24 24;" xml:space="preserve">
<style type="text/css">
	.st0{fill:#CAAC6F;}
</style>
<path class="st0" d="M17.2,7.3c1.3-0.3,2.7,0,3.9,0.9v0c1.8,1.3,2.4,3.7,1.6,5.8c-0.4,1.1-1.2,1.9-2.1,2.4c0,0,0,0,0,0
	c1.1-2,0.5-4.5-1.5-5.6c-2-1.1-4.5-0.5-5.6,1.5c0,0-0.1,0.1-0.1,0.1c0,0.1-0.1,0.1-0.1,0.2v0c-0.1,0.2-0.2,0.4-0.2,0.6l-2.6,7.6v0
	C10,21.9,9.1,23,7.7,23.6c-2,0.9-4.4,0.2-5.7-1.5c-0.7-0.9-1-2-1-3l0,0c0,0,0,0,0,0c1.1,2,3.6,2.6,5.6,1.5c2-1.1,2.6-3.7,1.5-5.6
	C8,14.9,8,14.8,7.9,14.7h0c-0.1-0.2-0.2-0.4-0.4-0.5L2.3,8.1h0C1.4,7.1,1,5.8,1.1,4.3c0.3-2.2,2-4,4.2-4.2c1.1-0.1,2.2,0.1,3.1,0.6
	h0c-2.3,0-4.1,1.8-4.1,4.1c0,2.3,1.8,4.1,4.1,4.1c0.1,0,0.2,0,0.4,0c0,0,0,0,0,0c0.2,0,0.4,0,0.6-0.1L17.2,7.3L17.2,7.3z"/>
<path class="st0" d="M8.4,6.8c-1.1,0-2-0.9-2-2c0-1.1,0.9-2,2-2c1.1,0,2,0.9,2,2C10.4,5.9,9.5,6.8,8.4,6.8z"/>
<path class="st0" d="M15.3,13.2c0.6-1,1.8-1.3,2.8-0.7l0,0c1,0.6,1.3,1.8,0.7,2.8c-0.6,1-1.8,1.3-2.8,0.7
	C15,15.5,14.7,14.2,15.3,13.2z"/>
<path class="st0" d="M5.6,18.8c1-0.6,1.3-1.8,0.7-2.8c-0.6-1-1.8-1.3-2.8-0.7c-1,0.6-1.3,1.8-0.7,2.8C3.3,19.1,4.6,19.4,5.6,18.8
	L5.6,18.8z"/>
</svg>
