<?xml version="1.0" encoding="utf-8"?>
<!-- Generator: Adobe Illustrator 27.6.1, SVG Export Plug-In . SVG Version: 6.00 Build 0)  -->
<svg version="1.1" id="Layer_1" xmlns="http://www.w3.org/2000/svg" xmlns:xlink="http://www.w3.org/1999/xlink" x="0px" y="0px"
	 viewBox="0 0 24 24" style="enable-background:new 0 0 24 24;" xml:space="preserve">
<style type="text/css">
	.st0{fill-rule:evenodd;clip-rule:evenodd;fill:#CAAC6F;}
</style>
<path class="st0" d="M24,3l-6.7,1.4C14,2.5,10,2.5,6.7,4.4L0,3l1.3,6.8L0,13.9C1.6,17.1,6.1,22,12,22c5.9,0,9.9-4.3,12-8.1l-1.3-4.1
	L24,3z M4,12.5v-1.4c0,0,1.1-2.7,2.7-2.7c1.6,0,2.7,2.7,2.7,2.7v1.4c-1.1-1.5-3.2-1.8-4.7-0.7C4.4,12,4.2,12.2,4,12.5z M16,15.2
	c-0.9,2.2-3.5,3.3-5.7,2.4c-1.1-0.4-1.9-1.3-2.3-2.4v-1.4c2.4,1.8,5.6,1.8,8,0L16,15.2L16,15.2z M20,12.5c-0.9-1.5-2.9-1.9-4.4-1
	c-0.4,0.3-0.7,0.6-1,1v-1.4c0,0,0.8-2.7,2.7-2.7c1.9,0,2.7,2.7,2.7,2.7V12.5z"/>
</svg>
