<?xml version="1.0" encoding="utf-8"?>
<!-- Generator: Adobe Illustrator 27.6.1, SVG Export Plug-In . SVG Version: 6.00 Build 0)  -->
<svg version="1.1" id="Layer_1" xmlns="http://www.w3.org/2000/svg" xmlns:xlink="http://www.w3.org/1999/xlink" x="0px" y="0px"
	 viewBox="0 0 24 24" style="enable-background:new 0 0 24 24;" xml:space="preserve">
<style type="text/css">
	.st0{fill-rule:evenodd;clip-rule:evenodd;fill:#CAAC6F;}
	.st1{fill:#CAAC6F;}
</style>
<path class="st0" d="M8,5.6c1.1,0.2,1.9,1.1,1.9,2.3c0,1.3-1.1,2.3-2.3,2.3c-1.2,0-2.2-1-2.3-2.2c-0.8,0.3-1.5,1-2.1,2.3
	c-1,2.3,0.6,4.4,1.5,5.5c0.3,0.4,0.6,0.7,0.5,0.8c-0.2,0.5-6.2-2.4-3.4-8C2,8.2,2,7.6,1.1,7.4c0.5-0.9,2-3.2,5.3-3.2
	C7.4,2,9,1.2,9.6,1l0.7,1.3C9.5,2.5,8.1,3.7,8,5.6z M6.5,7.9c0,0.6,0.5,1.1,1.1,1.1c0.6,0,1.1-0.5,1.1-1.1c0-0.6-0.5-1.1-1.1-1.1
	C7,6.8,6.5,7.3,6.5,7.9z"/>
<path class="st1" d="M12,7.9l2.1-2.3C13.4,4.3,12,4.5,12,4.5s-1.4-0.1-2.1,1.1L12,7.9z"/>
<path class="st1" d="M10.3,19.8c-0.2,0.3-0.2,0.4-0.4,0.7l1.5,2.2c0.1,0.2,0.3,0.3,0.6,0.3c0.2,0,0.4-0.1,0.6-0.3l1.5-2.2L14,20.4
	c0-0.1-0.1-0.2-0.1-0.2L13.8,20c0-0.1-0.1-0.1-0.1-0.2H10.3z"/>
<path class="st0" d="M22.2,8.7C22,8.2,22,7.6,22.9,7.4c-0.5-0.9-2-3.2-5.3-3.2c-1-2.2-2.6-3-3.2-3.2l-0.7,1.3
	c0.8,0.2,2.2,1.4,2.3,3.3c-1.1,0.2-1.9,1.1-1.9,2.3c0,1.3,1,2.3,2.3,2.3c1.3,0,2.2-1,2.3-2.2c0.8,0.3,1.5,1,2.1,2.3
	c1,2.3-0.6,4.4-1.5,5.5c-0.3,0.4-0.6,0.7-0.5,0.8C19,17.1,25.1,14.2,22.2,8.7z M16.4,9c-0.6,0-1.1-0.5-1.1-1.1
	c0-0.6,0.5-1.1,1.1-1.1c0.6,0,1.1,0.5,1.1,1.1C17.5,8.5,17,9,16.4,9z"/>
<path class="st1" d="M10.1,12.8l4.8,2.5c0.7,0.4,0.7,1.4,0,1.8c-0.4,0.2-0.8,0.4-1.2,0.7c-0.5,0.3-1.1-0.3-0.7-0.8
	c0.1-0.2,0.1-0.5-0.2-0.6c-0.6-0.3-2.6-1.5-4.6-2.7c-1.3-0.8-0.8-2.8,0.8-2.8h1.1c0.6,0,0.8,0.8,0.2,1.1L10.2,12
	C9.9,12.2,9.9,12.6,10.1,12.8z"/>
<path class="st1" d="M16.5,12.1c0,0-0.7-0.4-2.2-1.1c-1.1-0.6-1.2-1.5-1.2-2h-2.2v1.1c0,0.5,0.3,0.9,0.7,1.2
	c0.9,0.5,2.4,1.3,2.5,1.4c0.2,0.1,0.3,0.5,0.2,0.7c-0.4,0.7,0.4,1.6,1.2,1.1l1.1-0.7C17.1,13.4,17.1,12.5,16.5,12.1L16.5,12.1z"/>
<path class="st1" d="M12.1,19c-0.3,0-0.6-0.1-0.8-0.4c-0.1-0.2-0.3-0.4-0.8-0.6c-1.1-0.6-1.6-0.8-1.6-0.8c-0.5-0.3-0.5-0.9,0-1.2
	l0.8-0.5c0.5-0.3,1.2,0.3,0.8,0.8c-0.1,0.2,0,0.4,0.1,0.5c0.1,0.1,1.2,0.7,1.9,1c0.3,0.2,0.5,0.5,0.5,0.9c0,0.2-0.2,0.4-0.4,0.4
	H12.1z"/>
</svg>
