<?xml version="1.0" encoding="utf-8"?>
<!-- Generator: Adobe Illustrator 27.6.1, SVG Export Plug-In . SVG Version: 6.00 Build 0)  -->
<svg version="1.1" xmlns="http://www.w3.org/2000/svg" xmlns:xlink="http://www.w3.org/1999/xlink" x="0px" y="0px"
	 viewBox="0 0 100 100" style="enable-background:new 0 0 100 100;" xml:space="preserve">
<style type="text/css">
	.st0{fill:url(#SVGID_1_);}
	.st1{fill:url(#SVGID_00000036946444295372119670000016831362088250339770_);}
	.st2{fill:#211F33;}
	.st3{opacity:0.5;fill:#FFDC94;}
	.st4{opacity:0.5;fill:#FFFFFF;}
	.st5{opacity:0.5;fill:url(#SVGID_00000086679773366602500430000014199892631606060943_);}
	.st6{opacity:0.5;fill:url(#SVGID_00000120518023759059441790000006744222675288232618_);}
	.st7{opacity:0.5;fill:#BA9853;}
	.st8{opacity:0.5;fill:#D4AD5F;}
	.st9{opacity:0.5;fill:url(#SVGID_00000099640397970679512140000012833732999921118141_);}
	.st10{fill:url(#SVGID_00000026879569586038249660000001619987745299498152_);}
	.st11{fill:#FFFFFF;}
	.st12{fill:url(#SVGID_00000087399615050864943240000006754313730641778581_);}
	.st13{opacity:0.5;fill:#DBC18C;}
	.st14{opacity:0.5;fill:#E0BB71;}
	.st15{opacity:0.5;fill:url(#SVGID_00000102503830474220959100000008269623681925842867_);}
	.st16{opacity:0.5;fill:url(#SVGID_00000054255447138276943300000014262650660916497809_);}
	.st17{opacity:0.5;fill:url(#SVGID_00000106134944382867013670000012027894623112696727_);}
	.st18{opacity:0.5;fill:#403520;}
	.st19{fill:url(#SVGID_00000155852636217283885390000000593927291443145123_);}
	.st20{fill:#DAE1EF;}
	.st21{fill:url(#SVGID_00000033353879409088157720000012147333952404926630_);}
	.st22{fill:url(#SVGID_00000173159807580384694130000013720694082723344025_);}
	.st23{display:none;}
	.st24{display:inline;fill:url(#SVGID_00000023238724018467476070000005908708365505244076_);}
	.st25{display:inline;fill:url(#SVGID_00000067220066449918078050000014908801960574181557_);}
	.st26{display:inline;opacity:0.5;fill:#9E8145;}
	.st27{display:inline;opacity:0.5;fill:#C4A76A;}
	.st28{display:inline;opacity:0.5;fill:#FFD070;}
	.st29{display:inline;opacity:0.5;fill:#FFD98A;}
	.st30{display:inline;fill:#FFFFFF;}
	.st31{fill:#DEC083;}
</style>
<g id="Layer_1">
	<g>
		<g>
			<g>
				<linearGradient id="SVGID_1_" gradientUnits="userSpaceOnUse" x1="50.223" y1="99.9435" x2="50.223" y2="17.5417">
					<stop  offset="0.2103" style="stop-color:#FFD782"/>
					<stop  offset="0.4881" style="stop-color:#CAAC6F"/>
					<stop  offset="1" style="stop-color:#EFEBDA"/>
				</linearGradient>
				<polygon class="st0" points="50.2,2.2 12.3,24.1 12.3,76.4 50.2,98.3 88.2,76.4 88.2,24.1 				"/>
				
					<linearGradient id="SVGID_00000122680371261565680620000017677563873228030891_" gradientUnits="userSpaceOnUse" x1="50.2229" y1="15.0852" x2="50.2229" y2="90.1545">
					<stop  offset="0.2103" style="stop-color:#F2D79B"/>
					<stop  offset="0.4881" style="stop-color:#CAAC6F"/>
					<stop  offset="1" style="stop-color:#EFECDA"/>
				</linearGradient>
				<polygon style="fill:url(#SVGID_00000122680371261565680620000017677563873228030891_);" points="19.1,72.4 19.1,28.1 
					50.2,10.1 81.3,28.1 81.3,72.4 50.2,90.4 				"/>
				<polygon class="st2" points="21.4,71.1 21.4,29.4 50.2,12.8 79,29.4 79,71.1 50.2,87.7 				"/>
				<path class="st3" d="M13.2,24.2c-0.5,1.4,3.6,3.1,6.4,2.5c2.8-0.6,29.5-16.3,30.2-17.7c0.2-0.4,0.2-5.9,0-5.9
					C48.9,3.2,13.4,23.6,13.2,24.2z"/>
				<path class="st4" d="M87,24.2c0.5,1.4-3.6,3.1-6.4,2.5c-2.8-0.6-29.3-16.4-30.2-17.7c-0.5-0.6-0.6-5.9,0-5.9
					C51.4,3.2,86.8,23.6,87,24.2z"/>
				
					<linearGradient id="SVGID_00000017506568744747954390000003525502556590873531_" gradientUnits="userSpaceOnUse" x1="15.6694" y1="85.3169" x2="15.6694" y2="39.887">
					<stop  offset="0" style="stop-color:#917C50"/>
					<stop  offset="1" style="stop-color:#FFFFFF"/>
				</linearGradient>
				<path style="opacity:0.5;fill:url(#SVGID_00000017506568744747954390000003525502556590873531_);" d="M13.2,54
					c-0.3,1.6-0.9,21.4,0,21.5c0.9,0.2,5-2.7,5.2-4c0.2-1.3,0.3-14.9,0-16.2C18.1,54.1,13.6,51.4,13.2,54z"/>
				
					<linearGradient id="SVGID_00000069379967820035641860000009096813887898433169_" gradientUnits="userSpaceOnUse" x1="-4920.5571" y1="85.3169" x2="-4920.5571" y2="39.887" gradientTransform="matrix(-1 0 0 1 -4835.9287 0)">
					<stop  offset="0" style="stop-color:#917C50"/>
					<stop  offset="1" style="stop-color:#FFFFFF"/>
				</linearGradient>
				<path style="opacity:0.5;fill:url(#SVGID_00000069379967820035641860000009096813887898433169_);" d="M87.1,54
					c0.3,1.6,0.9,21.4,0,21.5c-0.9,0.2-5-2.7-5.2-4c-0.2-1.3-0.3-14.9,0-16.2C82.2,54.1,86.7,51.4,87.1,54z"/>
				<path class="st7" d="M14.1,76c0.5,0.7,34.6,20.9,35.2,20.9c0.3,0,0.6-5,0.6-5.6c0-1.6-30.2-17.6-30.8-17.8
					C18.4,73.3,13.7,75.3,14.1,76z"/>
				<path class="st8" d="M86.4,76.5c-0.5,0.7-35.3,20.8-35.8,20.8c-0.1,0-0.1-6.2,0.1-6.5c1.1-1.1,29.9-17.2,30.5-17.3
					C81.9,73.3,86.8,75.9,86.4,76.5z"/>
				
					<linearGradient id="SVGID_00000148654760505429124850000016913387045702858160_" gradientUnits="userSpaceOnUse" x1="19.1365" y1="41.2715" x2="81.3094" y2="41.2715">
					<stop  offset="0" style="stop-color:#8980EB"/>
					<stop  offset="1" style="stop-color:#705AB8"/>
				</linearGradient>
				<path style="opacity:0.5;fill:url(#SVGID_00000148654760505429124850000016913387045702858160_);" d="M19.1,72.4V28.1l31.1-17.9
					l31.1,17.9v44.4L79,71.1c0,0,0.1-38.6-0.7-39.8c-3-4.3-26-14.8-29.7-13.6c-3.9,1.2-24.3,9.9-26.6,13.6
					c-0.8,1.2-0.6,39.8-0.6,39.8L19.1,72.4z"/>
				
					<linearGradient id="SVGID_00000023239187065920282870000015929059962231319438_" gradientUnits="userSpaceOnUse" x1="12.2736" y1="21.1156" x2="64.7966" y2="21.1156">
					<stop  offset="0" style="stop-color:#9C8455"/>
					<stop  offset="1" style="stop-color:#6B5320"/>
				</linearGradient>
				<path style="fill:url(#SVGID_00000023239187065920282870000015929059962231319438_);" d="M12.3,40c0-0.1,0.3-14.7,0.9-15.8
					c0.6-1,36.2-20.8,37.2-21c1-0.3,14.4,7.4,14.4,7.4L50.2,2.2L12.3,24.1V40z"/>
				<path class="st11" d="M63.8,18c0,0,16.7,9.5,16.9,10.6c0.2,1.1,0.6,29.7,0.6,29.7s0.2-29,0-30.2S63.8,18,63.8,18z"/>
				<path class="st11" d="M19.1,52.4c0,0-0.6-24-0.3-24.8c0.3-0.8,31.4-17.5,31.4-17.5s-30,17.2-30.6,18.2
					C19,29.5,19.1,52.4,19.1,52.4z"/>
				
					<linearGradient id="SVGID_00000015347445640643556880000005751348364134177712_" gradientUnits="userSpaceOnUse" x1="12.2736" y1="74.0188" x2="88.1723" y2="74.0188">
					<stop  offset="0" style="stop-color:#728EE3"/>
					<stop  offset="1" style="stop-color:#836888"/>
				</linearGradient>
				<path style="fill:url(#SVGID_00000015347445640643556880000005751348364134177712_);" d="M12.3,76.4l37.9,21.9l37.9-21.9V64.5
					c0,0-0.3,10.4-1.1,11.7c-0.8,1.3-34.8,21.1-36.5,21.2c-1.7,0.1-36.5-20.5-37.4-21.9c-0.9-1.4-0.9-25.7-0.9-25.7V76.4z"/>
				<path class="st11" d="M19.1,61.1c0,0-0.1,10.2,0.5,11.1c0.6,0.9,15.3,9.4,15.3,9.4s-16-8.3-16.1-8.8
					C18.6,72.2,19.1,61.1,19.1,61.1z"/>
				<path class="st13" d="M32,81.7c-1.1,0-4.3,1.3-3.6,2c0.5,0.6,19.4,12,21.5,12.8c0.7,0.3,0.6-4.2-0.3-5.6
					C49.2,90.3,35.4,81.7,32,81.7z"/>
				<path class="st11" d="M63.6,10.8c-0.9,0.2,2.1,4.1,3.6,4.4c1.4,0.3,3.4-0.7,2.7-1.4C69.2,13.2,65,10.4,63.6,10.8z"/>
				<path class="st11" d="M70.3,14.6c-1.4,0.4,1.2,6.4,2.3,7.5c1.1,1.1,10.8,3,10.6,1.2C82.9,21.6,72.3,14.1,70.3,14.6z"/>
				<path class="st14" d="M67.7,81.8c-0.8,3.6-0.7,5.7-0.2,5.7c0.5,0,17.1-10,17.5-10.4c0.5-0.4-2.7-3.3-3.9-3.1
					C79.8,74.2,68,80.5,67.7,81.8z"/>
				
					<linearGradient id="SVGID_00000158724670310345183980000008843288806464312457_" gradientUnits="userSpaceOnUse" x1="19.2794" y1="41.8356" x2="21.2454" y2="41.8356">
					<stop  offset="0" style="stop-color:#8980EB"/>
					<stop  offset="1" style="stop-color:#705AB8"/>
				</linearGradient>
				<path style="opacity:0.5;fill:url(#SVGID_00000158724670310345183980000008843288806464312457_);" d="M21.2,29.1
					c-0.4-1.2-1.6-1.2-1.7,0.1c-0.1,1.3-0.3,26.2,0.2,26.2c0.5,0,1.5-1.2,1.6-1.8C21.2,53.1,21.3,29.7,21.2,29.1z"/>
				
					<linearGradient id="SVGID_00000120520113991360668950000003526994476315065532_" gradientUnits="userSpaceOnUse" x1="79.1437" y1="40.8923" x2="80.9726" y2="40.8923">
					<stop  offset="0" style="stop-color:#8980EB"/>
					<stop  offset="1" style="stop-color:#705AB8"/>
				</linearGradient>
				<path style="opacity:0.5;fill:url(#SVGID_00000120520113991360668950000003526994476315065532_);" d="M79.3,29.2
					c-0.1,0.5-0.3,23.9,0,23.9c0.3,0,1.7-1.1,1.7-1.7c0-0.6-0.3-22.8-0.5-22.9C80.3,28.5,79.3,28.9,79.3,29.2z"/>
				
					<linearGradient id="SVGID_00000138555704873059395920000003172292585852773001_" gradientUnits="userSpaceOnUse" x1="36.3566" y1="15.3932" x2="50.2655" y2="15.3932">
					<stop  offset="0" style="stop-color:#8980EB"/>
					<stop  offset="1" style="stop-color:#705AB8"/>
				</linearGradient>
				<path style="opacity:0.5;fill:url(#SVGID_00000138555704873059395920000003172292585852773001_);" d="M50.2,12.4
					c0,0.5-13.4,8.1-13.7,8.1s-0.2-2.1,0.2-2.3c0.4-0.3,13.4-8.1,13.5-7.8C50.3,10.6,50.2,12,50.2,12.4z"/>
				<g>
					<path class="st18" d="M77.8,74.2c-0.9,0-3.7,1.6-3.5,2.5c0.2,0.8,2,1.7,2.5,1.2C77.2,77.4,78.4,74.2,77.8,74.2z"/>
					<path class="st18" d="M78.9,74.8C78.6,75,78,76,78.6,76.5c0.6,0.5,2.4-0.8,2.1-1.1C80.5,75,79.3,74.4,78.9,74.8z"/>
					
						<linearGradient id="SVGID_00000003811706702371035780000014053299071347440519_" gradientUnits="userSpaceOnUse" x1="2674.3389" y1="-4418.5947" x2="2676.5095" y2="-4418.5947" gradientTransform="matrix(0.4683 0.8836 -0.8836 0.4683 -5080.5483 -218.8981)">
						<stop  offset="0" style="stop-color:#735826"/>
						<stop  offset="1" style="stop-color:#4D3B17"/>
					</linearGradient>
					<path style="fill:url(#SVGID_00000003811706702371035780000014053299071347440519_);" d="M74.7,75.8c-0.7,1,2.2,1.6,2.6,0.8
						c0.4-0.8,1-2.5,0.5-2.4C77.3,74.3,75.1,75.3,74.7,75.8z"/>
					<path class="st20" d="M74.3,76.4c0,0,0.2,0.8,1.1,1.3c0.7,0.4,1.3,0.3,1.4,0c0,0-0.5,0.7-1.4,0.3
						C74.1,77.4,74.3,76.4,74.3,76.4z"/>
					
						<linearGradient id="SVGID_00000123406194284512034610000001744855556896547220_" gradientUnits="userSpaceOnUse" x1="2675.6987" y1="-4421.5498" x2="2677.3323" y2="-4421.5498" gradientTransform="matrix(0.4683 0.8836 -0.8836 0.4683 -5080.5483 -218.8981)">
						<stop  offset="0" style="stop-color:#735826"/>
						<stop  offset="1" style="stop-color:#4D3B17"/>
					</linearGradient>
					<path style="fill:url(#SVGID_00000123406194284512034610000001744855556896547220_);" d="M79.2,74.8c-0.7,0.7-0.1,1.7,0.2,1.7
						c0.4-0.1,1.5-0.8,1.3-1.1C80.5,75,79.4,74.6,79.2,74.8z"/>
					<path class="st20" d="M78.9,74.8c0,0-0.6,0.8-0.4,1.3c0.2,0.5,0.6,0.5,0.6,0.5s-0.8,0.5-0.9-0.1C78,75.6,78.9,74.8,78.9,74.8z"
						/>
				</g>
				<g>
					<path class="st18" d="M46.3,12.1c-2-0.5-3.7,0.8-4.6,1.8c-0.9,1-0.4,1.6,0.7,1.4C43.6,15.1,47.2,12.3,46.3,12.1z"/>
					
						<linearGradient id="SVGID_00000139271300536843892250000004083016149355150519_" gradientUnits="userSpaceOnUse" x1="2299.2815" y1="-4193.7383" x2="2301.3657" y2="-4193.7383" gradientTransform="matrix(0.4569 0.8895 -0.8895 0.4569 -4736.7881 -116.8915)">
						<stop  offset="0" style="stop-color:#9C8455"/>
						<stop  offset="1" style="stop-color:#6B5320"/>
					</linearGradient>
					<path style="fill:url(#SVGID_00000139271300536843892250000004083016149355150519_);" d="M46.3,12.1c-1.4-0.5-3.1,0.4-3.7,0.9
						c-0.5,0.5,0.5,1.9,1.3,1.6C44.7,14.3,46.9,12.3,46.3,12.1z"/>
					<path class="st11" d="M42.2,13.4c0,0-2.3,1.5-2.1,2.3c0.3,0.7,3-0.6,3-0.6s-1.4,0.5-1.8-0.2C41.1,14.2,42.2,13.4,42.2,13.4z"/>
				</g>
				<path class="st11" d="M20.5,72.7c-1.1,0.3,2.1,2.5,2.9,2.6c0.8,0.1,0-1.8-0.4-2.2C22.7,72.9,21.1,72.6,20.5,72.7z"/>
			</g>
			<g class="st23">
				
					<linearGradient id="SVGID_00000083777175519885817440000010905954629912962707_" gradientUnits="userSpaceOnUse" x1="50.074" y1="24.8915" x2="50.074" y2="84.6133">
					<stop  offset="0.2103" style="stop-color:#98ABD2"/>
					<stop  offset="0.4881" style="stop-color:#72719D"/>
					<stop  offset="1" style="stop-color:#DAE1EF"/>
				</linearGradient>
				<path style="display:inline;fill:url(#SVGID_00000083777175519885817440000010905954629912962707_);" d="M50.2,74.9L11,52
					c-1.5,3.5-1.9,6.7-1.9,6.7l2.6,4.3l38.5,22.4l0,0L88.7,63l2.3-4.3c0,0,0-3.2-1.4-6.7L50.2,74.9z"/>
				
					<linearGradient id="SVGID_00000086686762861545464620000001544902854680385934_" gradientUnits="userSpaceOnUse" x1="9.1479" y1="72.0416" x2="91" y2="72.0416">
					<stop  offset="0.2103" style="stop-color:#98ABD2"/>
					<stop  offset="0.4881" style="stop-color:#72719D"/>
					<stop  offset="1" style="stop-color:#DAE1EF"/>
				</linearGradient>
				<polygon style="display:inline;fill:url(#SVGID_00000086686762861545464620000001544902854680385934_);" points="11.7,63 
					9.1,58.7 50.2,82.7 91,58.7 88.7,63 50.2,85.4 				"/>
				<path class="st26" d="M9.1,58.7l2.6,4.3l0.6,0.4l0,1.3c0,0,2.2,1.1,6.5,3.5c0.1,0.1,2.7,2.8,2.7,2.8s27.7,16.8,28.7,16.8
					c1.3,0,28.8-17.1,28.8-17.1s2.1-1.8,2.4-1.9l6.8-3.6v-1.8l0.5-0.3l2.3-4.3l-40.8,24L9.1,58.7z"/>
				<path class="st27" d="M50.2,74.9v7.9l40.8-24c0,0-0.2-4-1.4-6.7L50.2,74.9z"/>
				<path class="st28" d="M13,53.7c-0.7,0-0.1,6.6,2.1,8.2c3.6,2.4,25.4,15.3,26.8,15.3c1,0,0.9-5.6,0.6-6.1
					C42.1,70.3,14.2,53.7,13,53.7z"/>
				<path class="st29" d="M62.3,68c-0.5,0.5-0.4,6.7,0.4,6.5c0.8-0.2,13.1-6.8,18.9-11c5.8-4.3,6.6-9.9,5.3-9.8
					C87,53.7,63.3,67,62.3,68z"/>
				<path class="st30" d="M30.2,71.1c0,0,18.8,11.2,20,11.2c1.2,0,16.2-9.1,16.2-9.1s-15.7,10-16.1,10
					C49.9,83.2,30.2,71.1,30.2,71.1z"/>
			</g>
		</g>
	</g>
</g>
<g id="Layer_2">
	<g>
		<g>
			<path class="st31" d="M34.9,29.4h14c11.8,0,17.5,6.9,17.5,17.5c0,11.6-6.3,18.8-17.7,18.8H34.9V29.4z M44.9,58.5h3.3
				c5.3,0,7.7-3.5,7.7-11.4c0-6.8-2.1-10.4-7.6-10.4h-3.4V58.5z"/>
		</g>
	</g>
</g>
</svg>
