<svg width="211" height="198" viewBox="0 0 211 198" fill="none" xmlns="http://www.w3.org/2000/svg">
<path d="M95.7848 99V63.9267C95.7848 62.0506 97.3077 60.5306 99.1874 60.5306C101.067 60.5306 102.59 62.0506 102.59 63.9267V95.6039H120.614C122.493 95.6039 124.016 97.1239 124.016 99C124.016 100.876 122.493 102.396 120.614 102.396H99.1874C97.3077 102.396 95.7848 100.876 95.7848 99ZM68.6754 53.041L72.7176 60.0296L78.6123 56.6335L74.5701 49.6449L68.6754 53.041ZM49.7413 74.4268L56.7432 78.4614L60.1457 72.5777L53.1438 68.5432L49.7413 74.4268ZM52.1425 95.6014H44.0557V102.394H52.1425V95.6014ZM49.7388 123.571L53.1414 129.454L60.1432 125.42L56.7407 119.536L49.7388 123.571ZM68.6729 144.957L74.5677 148.353L78.6099 141.364L72.7151 137.968L68.6729 144.957ZM95.7848 154.028H102.59V145.956H95.7848V154.028ZM119.762 141.364L123.805 148.353L129.699 144.957L125.657 137.968L119.762 141.364ZM138.229 125.42L145.231 129.457L148.636 123.573L141.634 119.536L138.229 125.42ZM148.636 74.4268L145.233 68.5432L138.232 72.5777L141.634 78.4614L148.636 74.4268ZM129.702 53.0434L123.807 49.6473L119.762 56.636L125.657 60.0321L129.702 53.0434ZM102.592 43.97H95.7873V52.0415H102.592V43.97ZM123.96 187.959L125.763 194.511C128.014 193.892 130.278 193.182 132.487 192.401L130.214 185.999C128.157 186.724 126.053 187.384 123.96 187.959ZM136.305 183.591L139.036 189.813C141.172 188.88 143.307 187.853 145.383 186.761L142.21 180.749C140.278 181.768 138.291 182.721 136.305 183.591ZM111.102 190.508L111.944 197.249C114.269 196.959 116.611 196.583 118.901 196.129L117.578 189.464C115.447 189.887 113.267 190.238 111.102 190.508ZM83.8576 196.745C86.1653 197.114 88.5173 197.401 90.8471 197.607L91.4474 190.839C89.275 190.648 87.0805 190.375 84.9253 190.034L83.8576 196.745ZM70.1441 193.592C72.378 194.27 74.6661 194.879 76.9467 195.404L78.4745 188.784C76.3464 188.295 74.2109 187.726 72.1246 187.095L70.1441 193.592ZM147.895 177.498L151.492 183.266C153.483 182.031 155.448 180.71 157.338 179.342L153.34 173.842C151.581 175.116 149.75 176.344 147.895 177.498ZM99.7434 191.208L98.0015 191.191L97.8884 197.983L99.7458 198C101.466 198 103.21 197.956 104.93 197.865L104.575 191.08C102.969 191.164 101.345 191.208 99.7434 191.208ZM187.309 126.788L193.801 128.828C194.502 126.608 195.132 124.327 195.676 122.048L189.055 120.474C188.548 122.598 187.961 124.72 187.309 126.788ZM182.484 138.975L188.62 141.917C189.633 139.81 190.583 137.641 191.444 135.468L185.114 132.971C184.312 134.992 183.429 137.013 182.484 138.975ZM190.344 114.055L197.061 115.155C197.44 112.854 197.74 110.507 197.954 108.179L191.176 107.558C190.977 109.729 190.699 111.914 190.344 114.055ZM158.511 169.81L162.888 175.011C164.679 173.51 166.438 171.924 168.119 170.301L163.383 165.422C161.818 166.934 160.179 168.412 158.511 169.81ZM167.934 160.699L173.005 165.232C174.564 163.496 176.082 161.679 177.517 159.833L172.141 155.668C170.8 157.389 169.386 159.081 167.934 160.699ZM175.982 150.352L181.638 154.131C182.937 152.193 184.184 150.18 185.345 148.146L179.433 144.78C178.351 146.673 177.19 148.549 175.982 150.352ZM6.80751 99C6.80751 48.1568 48.2504 6.79465 99.1874 6.79465C128.231 6.79465 155.254 20.2882 172.7 43.1719L161.71 41.3253C159.855 41.011 158.1 42.2609 157.788 44.1124C157.476 45.9639 158.725 47.7148 160.58 48.0266L184.002 51.963L187.946 28.5857C188.258 26.7341 187.008 24.9833 185.153 24.6714C183.301 24.3571 181.544 25.607 181.232 27.4585L179.059 40.3357C160.371 14.9914 130.905 0 99.1874 0C44.496 0 0 44.412 0 99C0 137.145 22.0217 172.157 56.106 188.197L59.0091 182.051C27.2989 167.128 6.80751 134.528 6.80751 99ZM208.853 71.7747L172.439 118.915C170.631 121.255 167.988 122.603 165.228 122.859C155.19 150.619 128.974 169.09 99.1874 169.09C60.4655 169.09 28.9645 137.646 28.9645 99C28.9645 60.3538 60.4655 28.9098 99.1874 28.9098C134.824 28.9098 164.325 55.5481 168.803 89.9192L192.529 59.1947C194.214 57.0166 196.645 55.6243 199.379 55.2756C202.109 54.9244 204.818 55.6586 206.995 57.3383C211.495 60.8056 212.329 67.2835 208.853 71.7747ZM158.59 121.204C158.561 121.184 158.531 121.164 158.501 121.145L132.693 103.668C130.418 102.128 128.878 99.7956 128.359 97.0969C127.839 94.3982 128.403 91.6602 129.948 89.3863C131.493 87.1124 133.83 85.5752 136.534 85.0571C139.238 84.5365 141.978 85.1013 144.257 86.6434L162.034 98.6808L162.593 97.9564C162.01 63.5092 133.788 35.6995 99.1874 35.6995C64.2199 35.6995 35.7695 64.0936 35.7695 98.9975C35.7695 133.899 64.2174 162.296 99.1874 162.296C125.854 162.298 149.352 145.907 158.59 121.204ZM202.835 62.7136C202.095 62.1414 201.174 61.8983 200.245 62.0113C199.317 62.1316 198.49 62.6031 197.917 63.3422L165.471 105.362C165.196 105.719 164.864 106.003 164.497 106.219C163.579 106.755 162.445 106.841 161.444 106.416C161.245 106.33 161.05 106.227 160.863 106.099L140.436 92.2667C140.178 92.0924 139.895 91.9672 139.607 91.8689C139.535 91.8444 139.462 91.8223 139.39 91.8026C139.098 91.7241 138.8 91.67 138.495 91.6676C138.271 91.6676 138.042 91.6872 137.818 91.729C136.901 91.9058 136.108 92.4264 135.584 93.1974C135.191 93.7769 134.986 94.4424 134.982 95.1275C134.979 95.3559 135.001 95.5843 135.045 95.8151C135.223 96.731 135.744 97.5217 136.517 98.0448L136.519 98.0472L162.325 115.521C163.848 116.55 165.927 116.221 167.051 114.767L203.467 67.6248C204.648 66.0949 204.363 63.8923 202.835 62.7136Z" fill="#BE8BF8" fill-opacity="0.05"/>
</svg>
